<?xml version="1.0" encoding="utf-8"?>
<!-- Generator: Adobe Illustrator 24.0.1, SVG Export Plug-In . SVG Version: 6.00 Build 0)  -->
<svg version="1.1" id="レイヤー_1" xmlns="http://www.w3.org/2000/svg" xmlns:xlink="http://www.w3.org/1999/xlink" x="0px"
	 y="0px" viewBox="0 0 832.2 129.9" style="enable-background:new 0 0 832.2 129.9;" xml:space="preserve">
<style type="text/css">
	.st0{fill:#FFFFFF;}
	.st1{fill:#172A88;}
	.st2{fill:#EA609E;}
</style>
<g>
	<path class="st0" d="M3,37.6l4.7-0.5c4.1-0.4,7.6-0.9,10.6-1.8L18,35.2c-5.4-2.8-10.2-4.4-13.8-5.4L0,28.5l4.4-11.3L3.8,17L9.7,3
		l3.3,0.7C19,5.1,23.5,6.5,28.9,8.8l3.7,1.6l-5.2,12l0.4,0.2l-4.4,10.9c5.4-2.7,9.3-7.3,12.4-15.5L35,18.2L34.3,14
		c-0.1-0.8-0.8-4.6-1.7-7l-1.7-4.6l12.4-2L43.6,1L50,0l1.3,2.8c1.5,3.3,2.5,7.7,2.5,7.8l0.9,4L51,15.2l2.2,1.1l-1.1,3.3
		c-8.4,24.9-21.5,31.2-41.3,33.9L7.3,54L3,37.6z"/>
	<path class="st1" d="M19.8,31.6c-5.9-3.1-11.1-4.7-14.5-5.7l2.6-6.7c2.3,0.5,9.7,2.5,14.8,5.2L19.8,31.6z M8.1,41.1
		c16.8-1.6,26.6-5.4,33.1-26.5l7.2,3.8c-7.5,22.1-18.3,28.6-38,31.2L8.1,41.1z M24.2,19.7c-5.3-2.6-9.4-3.9-14.9-5.4l2.8-6.7
		c5.6,1.2,9.8,2.5,15.2,4.8L24.2,19.7z M38.3,13.4c-0.1-0.6-0.8-4.9-1.9-7.8l4.4-0.7c0.4,1.2,1.1,2.8,2.2,7.5L38.3,13.4z M45.5,12.3
		c-0.4-2-1.2-4.9-2.2-7.2l4.3-0.7c1.3,2.8,2.2,6.5,2.3,7L45.5,12.3z"/>
	<path class="st0" d="M81.5,50.3c-8.5,0.9-23,1.7-28.8,2l-5.6,0.3l-1.9-16.4c0,0,5.8,0,6.3,0c6-19.6,6.3-20.6,8.2-30l0.7-3.5
		l17.1,1.6l-1.4,4.7c-2,6.6-3.4,11.5-4.6,15.3l11-5.1l1.9,2.5c5,6.4,9.3,14.4,12.8,23.5l1.4,3.6l-3.5,1.5l-11.8,5.1
		C83.4,55.4,81.6,50.6,81.5,50.3z M70.3,28.3c-1,3.2-1.7,5.4-2.4,7.6c1.7,0,3.8-0.1,7-0.3c-1.7-3.2-2.9-5-3.7-6.1L70.3,28.3z"/>
	<path class="st1" d="M81.4,24.1c7.2,9.3,11.1,19.6,12.2,22.5l-7.9,3.5c-0.7-1.9-1-2.8-1.6-4.2c-8.3,1.1-30,2.2-33.5,2.4l-0.9-8.2
		c0.8,0,3.8,0,4.8,0c6.9-22.2,7.1-23,9.1-33.2l8.7,0.8C65.7,30,65,32.4,62.2,40c4.8,0,6.3-0.1,19-0.6c-3.2-6.9-5.4-10.1-6.8-12.1
		L81.4,24.1z"/>
	<path class="st0" d="M96.5,49.1V33.3h50.6v15.8H96.5z M100.2,23.4V7.7h43.1v15.6H100.2z"/>
	<path class="st1" d="M143.1,37.3v7.8h-42.6v-7.8H143.1z M139.3,11.7v7.6h-35.1v-7.6H139.3z"/>
	<rect x="144.4" y="20.2" class="st0" width="51.5" height="16.2"/>
	<path class="st1" d="M192,24.2v8.2h-43.5v-8.2H192z"/>
	<path class="st0" d="M191.6,47.1l2.4-3.7c1.8-2.7,3.8-6.4,6.3-17.3l-6.1,0.1V10.7h8.6c0.2-1.7,0.3-3.4,0.4-5.1l0.3-4l16.4,1.1
		c0,0-0.9,7.1-1,8c3.1,0,5.7,0.7,7.9,1.9c-0.4-1.3-1-2.6-1.6-3.6l-2.6-4.5l12.2-3.3l0.5,0.8l6.5-1.8l1.7,2.6c0.6,1,1.9,2.9,3.6,8.5
		l1.2,3.9l-5.4,1.6c2,4.8,3.2,10.7,3.7,18.3l0.2,3.8l-14.4,1.4c-0.6,3.2-1.6,6.3-3.3,8.5c-3.9,5.1-9.2,5.1-11.5,5.1
		c-3.5,0-5.9-0.4-7.6-0.7l-2.5-0.4l-1.1,2.3L191.6,47.1z M213.4,38.2c0.8,0.1,1.6,0.2,2.5,0.2c0.3,0,0.4,0,0.6,0
		c0.6-1.2,1.3-6,1.3-10c0-0.6,0-1.7-0.1-2.3c-0.1,0-0.3,0-0.6,0l-0.8,0C215.5,30.5,214.6,34.5,213.4,38.2z"/>
	<path class="st1" d="M215.4,6.4c-0.3,1.9-0.5,4.1-1.1,8.3h4.2c9.8,0,11,7.3,11,14c0,2.8-0.4,13.5-3.5,17.7
		c-2.5,3.3-5.8,3.5-8.3,3.5c-3.3,0-5.4-0.4-7.2-0.7l-0.3-7.5c1.8,0.3,3.6,0.7,5.8,0.7c2.5,0,3.3-0.9,3.8-1.7c1.4-2,2-8.8,2-12.3
		c0-4-0.1-6.4-4.8-6.4l-3.9,0c-1.7,9.5-4.1,18.9-8.4,27.5l-7.3-3.9c2.2-3.3,4.8-8.1,7.9-23.5l-7.1,0.1v-7.5h8.1
		c0.4-3.6,0.7-6.5,0.8-8.8L215.4,6.4z M231.6,15c-0.4-1.8-1.5-5.4-3-7.9l4.3-1.2c1.4,2.3,2.6,5.7,3.1,7.7L231.6,15z M234.2,36.1
		c-0.3-12.3-2.8-16.9-3.8-18.7l7.2-2.2c2.5,4.2,4.3,10.2,4.9,20.1L234.2,36.1z M238.9,13.8c-0.1-0.5-1.4-4.7-3.3-7.7l4.3-1.2
		c0.5,0.8,1.6,2.3,3.3,7.6L238.9,13.8z"/>
	<path class="st0" d="M240.8,42.9l4.4-2.5c6.5-3.6,9.8-7.3,11.7-14h-11.4V11.1h13.6c0.1-1.8,0.1-3.2,0.1-4.4v-4l16.5,0.1l-0.2,4.2
		c-0.1,1.3-0.1,2.7-0.2,4.2h17.5v11.6c0,2.7-0.1,16.7-2.2,22.7c-2.9,8.3-10.5,8.3-13.3,8.3c-5.2,0-8.1-0.6-9.4-0.9l-3-0.7l-0.2-3.1
		l-0.2-4.1c-3.9,4.6-7.9,7.1-9.8,8.3l-2.8,1.8L240.8,42.9z M269.6,37.3c1.7,0.3,3.9,0.6,6.2,0.6c0.1,0,0.1,0,0.2,0
		c0.3-1.9,0.8-7.5,0.9-11.4h-3.5C272.4,30.6,271.1,34.2,269.6,37.3z"/>
	<path class="st1" d="M288.8,15.1v7.5c0,5.3-0.4,16.7-2,21.4c-2,5.6-6.8,5.6-9.5,5.6c-4.8,0-7.5-0.6-8.6-0.8l-0.4-7.8
		c1.8,0.3,4.5,0.8,7.5,0.8c3.1,0,3.6-0.8,4.1-3c0.4-2.4,1-9.9,1-13.9v-2.5h-10.8c-3,18.4-14,25.2-17.5,27.4l-5.4-6
		c8.7-4.8,12.7-10.3,14.8-21.5h-12.5v-7.4h13.4c0.3-3.9,0.3-6.5,0.3-8.4l8.3,0.1c-0.1,2.3-0.3,4.9-0.5,8.4
		C271,15.1,288.8,15.1,288.8,15.1z"/>
	<path class="st0" d="M296.7,41.8l5.2-1.3c7.1-1.7,11.6-3.7,14.7-6.8l-5.9,1.3l0-0.1l-11.2,2.6l-0.7-4.2c-0.5-2.7-1.5-6.8-3.6-11.4
		l-2-4.3l14-3.7l0.3,0.5l11.4-2.4l1.4,2.8c0.9,1.8,1.7,3.8,2.4,6c0.4-1.5,0.7-3.1,1-4.8l0.8-4l15.6,3.6l-1,3.9
		c-2.8,11.7-7.1,29.3-31.8,35l-2.9,0.7L296.7,41.8z"/>
	<path class="st1" d="M302.8,32.8c-0.5-3.2-1.7-7.6-3.9-12.4l6.3-1.7c2.4,4.6,3.6,9.5,4.3,12.5L302.8,32.8z M302.9,44.4
		c17.8-4.3,21.5-11.1,24.8-27.6l7.6,1.8c-2.8,11.6-6.5,26.9-28.8,32.1L302.9,44.4z M314,30.2c-1.2-6.7-2.5-10.1-3.5-12.3l6.3-1.3
		c2.5,5,3.5,10.8,3.7,12.2L314,30.2z"/>
	<polygon class="st0" points="341.1,50.7 341.1,35 370.1,35 370.1,22 341.6,22 341.6,6.3 386.5,6.3 386.5,50.7 	"/>
	<path class="st1" d="M382.5,10.4v36.4h-37.4V39h29V18h-28.5v-7.7C345.6,10.3,382.5,10.3,382.5,10.4z"/>
	<path class="st0" d="M432.6,55.9c-5.1-1.6-9.6-3.5-13.4-5.6v0.9l-3.2,0.7c-11.6,2.5-21,3.3-24.1,3.6l-4,0.3l-2-15.4
		c0,0,4.8-0.3,5-0.4V4.7h15.1V0.8h15.5v3.8h15.2v25.2l5.9,5.3l-3.8,2.9c-0.9,0.7-1.8,1.4-2.7,2c0.8,0.2,1.6,0.3,2.3,0.5l5.3,1
		l-8,15.3L432.6,55.9z M406.5,38.6C406.6,38.6,406.6,38.6,406.5,38.6c0,0,0-0.1,0-0.1V38.6z"/>
	<path class="st1" d="M390.4,44.1c2-0.2,3.2-0.2,4.5-0.3V8.7h15.1V4.8h7.5v3.9h15.2v23l3.6,3.3c-4.6,3.5-8.1,5.5-9.5,6.3
		c4.4,1.9,8.1,2.7,10.9,3.3l-4,7.5c-8.2-2.6-14.9-6.1-18.6-9.5V48c-11.6,2.5-21,3.3-23.8,3.5L390.4,44.1z M402.5,15.2v2.6h22.6v-2.6
		H402.5z M402.5,23.4v2.7h22.6v-2.7H402.5z M402.5,32.4v10.7c3.9-0.4,7.8-0.8,11.6-1.5c-3.7-3.7-5.5-7.3-6.4-9.2H402.5z M415.7,32.4
		c1,1.5,1.8,2.9,4.7,5.2c2.4-1.3,5.7-3.3,8.1-5.2H415.7z"/>
	<path class="st0" d="M468.8,53.9c-6.8-5.7-13.7-10.1-19.8-14l-0.7-0.5c-5.1-3.3-9.2-5.8-9.2-11.3c0-4.2,2.6-6.5,7-10.4
		C455,10,458.8,6.6,462.5,2.8l2-2.1l16.5,8.4l-4.3,3.9c-6.1,5.6-13.4,11.2-17.8,14.5c5.5,3,16.8,9.3,22.9,14.3l3.9,3.2L471.2,56
		L468.8,53.9z"/>
	<path class="st1" d="M471.3,50.9c-7.3-6.1-14.6-10.7-20.9-14.8c-4.7-3-7.4-4.6-7.4-7.9c0-2.4,1.6-3.9,5.6-7.4
		c9.2-8.1,12.9-11.4,16.6-15.3l8.7,4.4c-7.3,6.6-16.1,13.3-19.3,15.6c-0.8,0.6-1.9,1.4-1.9,2.2c0,1,0.9,1.4,2.5,2.3
		c4.6,2.5,17.5,9.5,23.9,14.8L471.3,50.9z"/>
	<path class="st0" d="M507,51.3l-0.8-2.4c-2.9,1.7-6,2.7-9.4,2.7c-10.1,0-13.7-7.1-13.7-13.7c0-7.3,4.3-12.9,9.4-16.4H485V6.3h9.6
		V2.5h16.1l-0.1,3.9h21.8v15.2h-3.9c4,3.2,6.2,7.9,6.2,13.6c0,7.9-4.1,17.7-23.7,18.9l-3.1,0.2L507,51.3z M519,34.6
		c-0.5,1-1,2-1.6,2.9C518.2,36.9,519,35.9,519,34.6C519,34.6,519,34.6,519,34.6z"/>
	<path class="st1" d="M498.7,6.4h7.9l-0.1,3.8h22v7.2h-22.2c0,0.9,0,2.2,0,3.2c0.9-0.1,2.6-0.3,5.1-0.3c11.4,0,19.4,5,19.4,14.8
		c0,13.7-15.2,14.6-19.9,14.9l-2.2-6.9c5.7-0.3,7.4-0.4,10.2-1.9c2.4-1.3,4.2-3.8,4.2-6.7c0-0.7,0-5.1-5.6-7
		c-2.2,8.1-10.5,19.9-20.6,19.9c-8.7,0-9.7-6.7-9.7-9.7c0-7.8,6.3-13,11.5-15.3c-0.1-2.6-0.1-4-0.1-5.1H489v-7.2h9.6L498.7,6.4
		L498.7,6.4z M499.3,29.8c-1.1,0.8-4.8,3.4-4.8,7.5c0,0.6,0.1,3.6,3.4,3.6c0.5,0,1.9,0,3.5-1C500.5,37.5,499.9,34.7,499.3,29.8z
		 M511,26.6c-1.2,0-2.6,0-4.6,0.3c0.1,2.5,0.3,4.9,0.8,7.4C509.5,31.1,510.3,28.7,511,26.6z"/>
	<path class="st0" d="M541.5,51.5l-2.8-9.9l-1.3,0.1l-0.4-3.8c-0.1-1.3-0.4-4.1-0.4-5.9c0-1.9,0.1-11.8,2-26.5l0.5-3.8l17.5,1.3
		l-1.4,4.4c1.8-0.6,3.6-0.9,5.5-0.9c5.1,0,10.4,2.4,13.2,6.1c3.5,4.5,4.3,11.1,4.3,15.7c0,23.9-19.6,25.1-32.5,25.9l-3.2,0.2
		L541.5,51.5z M559.3,22.2c-3.9,0-6.7,5.2-6.7,7.9c0,0.8,0.2,5.3,0.3,6.8l0.1,1.3c7.9-1.2,8.8-4.2,8.8-10.3
		C561.8,22.2,561,22.2,559.3,22.2z"/>
	<path class="st1" d="M551.2,6.8c-0.5,1.8-1,4.6-1.8,9.3c3-3.3,6.8-5.4,11.2-5.4c3.8,0,8,1.9,10.1,4.5c3.2,4.1,3.5,10.7,3.5,13.3
		c0,20.2-15.6,21.1-28.8,21.9l-2.1-7.5c16.5-0.3,22.6-2.6,22.6-15c0-4,0-9.7-6.5-9.7c-6.4,0-10.7,7.2-10.7,11.9
		c0,0.9,0.3,5.6,0.3,7.1l-8,0.4c-0.2-1.4-0.3-4-0.3-5.4c0-1.4,0-11.2,1.9-26L551.2,6.8z"/>
	<path class="st0" d="M599.5,54v1.7h-10.2l0,0l-0.1,0h-3.5v-2.5l-8.3-5.8l0.9-2.8c0.7-2.2,1-3.7,1.3-8h0l-1.3-15h3.6
		c-0.7-0.7-1.3-1.2-2-1.7l-2.6-1.9l6.3-13.9l1.3,1.1c0.2-0.5,0.4-1.1,0.6-1.6l1.2-3.3l14.4,3.1l-0.2,0.5h6.4V0.9h15.1v2.9h11.2v14.3
		h-1.6v2.3h0.6v16.5l1.1,0.3l0,2.9c0.1,6.6-0.3,10.4-2.8,12.9c-1.4,1.4-3.3,2.1-5.5,2.1h-6.9c-2.9,0-6-1.3-7.3-4.7
		c-1.6,1.7-3.7,3.3-6.3,4.7l-3.1,1.8L599.5,54z"/>
	<path class="st1" d="M588.5,34.3c-0.1,4.2-0.5,10.8-1.6,14.8l-4.8-3.4c1-3.2,1.3-5.3,1.6-11.9L588.5,34.3z M601.4,31.5l-3.7,1.1
		c-0.1-0.6-0.3-1.4-0.3-1.7c-0.3,0-1.1,0.1-1.9,0.2v20.6h-5.8V31.7c-1.1,0.1-5.8,0.6-6.6,0.6l-0.6-6.7c1,0,1.9,0,2.9,0
		c0.8-1,1.8-2.4,2.3-3.2c-2.5-3.3-4.6-5-5.6-5.7l2.9-6.4c0.7,0.5,0.8,0.7,1.1,1c1.4-2.6,2.3-4.3,3.1-6.6l6.2,1.3
		c-1.2,2.8-3.1,6.2-5.2,9.2c0.4,0.4,0.7,0.7,1.4,1.6c2.5-3.8,3.6-5.9,4.3-7.3l4.8,2V7.8h10.5V4.9h7.1v2.9h11.2v6.3h-11.2v2.4h9.6
		v5.7h-25.7v-5.7h9.1v-2.4h-10.5v-0.9c-2.5,4.2-5.4,8.2-8.5,12.1c0.8,0,3.3-0.2,3.8-0.3c-0.2-0.9-0.6-2.3-1-3l4.3-1.5
		c0.6,1.3,1,2.3,2,5.4v-1.4h27.1v10.3h-6.6v-4.6h-14.3V32h5.1c-0.2,10.7-2,15.3-9.9,19.8l-4.3-6.1c5.4-2.1,7.5-5.2,7.7-11h-4.8
		L601.4,31.5L601.4,31.5z M600.9,33.5c0.8,3.9,1.1,8.6,1.2,10.3l-4.7,0.9c0-3.8-0.3-7.3-0.8-10.4L600.9,33.5z M614.6,32h6.7v11.4
		c0,1.1,0.2,1.2,0.8,1.2h1.3c0.6,0,0.8-0.3,0.8-0.9c0.1-1,0.2-4.7,0.2-5l5.3,1.6c0.1,7.8-0.5,11-4.3,11h-6.9c-3.8,0-3.8-3.2-3.8-4.3
		L614.6,32L614.6,32z"/>
	<path class="st0" d="M648.2,51.8l-13.3,1.8l-0.7-3.8l3.9-0.7l-4,0.6c-0.6-3.3-1.7-9.4-1.7-19.7c0-7.5,0.5-14.8,1.7-23.8l0.5-3.8
		l15.9,1.2l-0.8,4.7c-0.2,0.9-0.3,2.1-0.5,3.6h9.6c0-2.1-0.1-4.5-0.2-5.2l-0.3-4.3H675l-0.1,4.1c0,0.8,0,3.2,0,5.3h8.1v15.4h-7.8
		c-0.1,13-3.1,23-22.7,26.5l-3,0.5L648.2,51.8z M648.3,28.2c0,4,0.2,7.5,0.5,10.6c9.2-1.5,10.5-2.7,10.5-11.4h-11
		C648.3,27.7,648.3,28,648.3,28.2z"/>
	<path class="st1" d="M646,7.4c-0.5,3.1-1.7,10.4-1.7,20.8c0,6.7,0.4,13.4,2,19.8l-8,1.1c-0.6-3.2-1.7-9-1.7-19
		c0-8,0.6-15.4,1.7-23.2L646,7.4z M663,16.1c0-1.5-0.2-8.1-0.3-9.5h8.1c0,1.5,0,8.1,0,9.5h8.1v7.4h-7.9c0.4,15.4-1.5,23.4-19.3,26.6
		l-3.4-7.1c13.9-2.2,15-5.4,14.8-19.5h-14.7v-7.4C648.5,16.1,663,16.1,663,16.1z"/>
	<path class="st0" d="M706.4,54c-12.3,0-15.7-6.4-16.7-10.3l-2.9,3l-10.1-13.4l3.2-2.4c3.2-2.4,4.9-3.9,14.3-12l-10.4,0.2V3.3h37.3
		v12l-2.9,2.4c8.2,2.5,12.4,9.9,12.4,17.2C730.8,44.2,724.4,54,706.4,54z M712.1,32.1c1,0.9,1.8,1.9,2.4,3
		C714.4,33.5,713.4,32.6,712.1,32.1z"/>
	<path class="st1" d="M717.2,7.3v6.2c-7.5,6.3-7.9,6.7-9.5,8c0.8-0.3,1.8-0.6,4.4-0.6c10.1,0,14.7,7.5,14.7,14.1
		c0,8.1-6.2,15-20.4,15c-12.8,0-13-7.9-13-9c0-5.2,5-8.1,9.8-8.1c5.9,0,8.9,4.1,8.9,8.1c0,0.6,0,1-0.2,1.7c4.2-1.3,6.6-3.7,6.6-7.4
		c0-3-1.9-7.8-10.2-7.8c-7.9,0-11.9,3.8-21,13l-4.9-6.5c4-3.1,5.9-4.7,22.8-19.4L687.9,15V7.3H717.2z M706.3,42.5
		c0-0.3-0.1-3.8-3.5-3.8c-1.9,0-3.2,0.9-3.2,2.4c0,2.5,3.5,2.7,4.7,2.7c0.6,0,1.1,0,1.9-0.2C706.3,43.2,706.3,42.9,706.3,42.5z"/>
	<path class="st0" d="M732.2,50.5c-0.4-2.2-1.4-7.5-1.4-17.4c0-11,1.2-21.6,1.7-26.1L733,3L749.5,4l-0.4,2.4H779v15.8h-31.9
		c-0.1,1.5-0.2,3.1-0.2,4.7c0.3-0.6,0.7-1.2,1.1-1.9l1.9-2.8l14.4,6.3l-3.3,4.1c-0.8,1-1.2,1.8-1.3,2.6c0.6,0.2,1.8,0.4,4.5,0.4
		c4.2,0,8.4-0.2,11.1-0.6l4.4-0.6l0.3,16.1l-3.8,0.4c-1.5,0.2-4.4,0.5-9.3,0.5c-4.7,0-13.9,0-19-4.8c0.1,0.6,0.2,1.2,0.3,1.8
		l0.9,4.4L732.9,54L732.2,50.5z"/>
	<path class="st1" d="M744.8,7.7c-0.5,3-2,11.4-2,23.6c0,5.9,0.3,12,1.5,17.8l-8.2,0.6c-0.4-2.4-1.3-7.3-1.3-16.6
		c0-11,1.2-21.6,1.7-26L744.8,7.7z M758,30.1c-1.8,2.3-2.3,4.2-2.3,5.6c0,3.4,3.8,4,8.5,4c3.5,0,8.1-0.2,11.6-0.6l0.2,8
		c-1.4,0.2-4.1,0.4-9,0.4c-8.1,0-18.8-0.4-18.8-10.4c0-1.3,0-5,3.2-9.9L758,30.1z M775,10.4v7.8h-25.4v-7.8H775z"/>
	<path class="st0" d="M781.3,50.3c-1-6.6-1.5-13.6-1.5-21.8c0-6.6,0.2-14.4,1.8-22.4l0.7-3.5l16.2,1.3l-1,4.5
		c-0.2,0.8-0.3,1.6-0.5,2.4h8.4V3.1h15.9v7.6h8.4v15.4h-8.3l0,4.5c3.5,1.9,6.8,4.5,8.6,6.4l2.3,2.4l-9.7,13.7l-3.3-3.8
		c-0.2-0.2-0.3-0.4-0.5-0.6c-2.4,3.2-6.7,5-12.1,5c-3.5,0-6.4-0.7-8.7-1.9l0.1,0.4l-16,1.8L781.3,50.3z M795.5,26.1c0,1,0,2,0,3.1
		c0,0.3,0,0.6,0,0.9c2.4-2,5.8-3.4,10-3.5v-0.5L795.5,26.1L795.5,26.1z"/>
	<path class="st1" d="M793.5,7.5c-1.6,7.1-2,14.4-2,21.7c0,11,1.2,17.2,1.7,19.6l-7.9,0.9c-1.1-7.2-1.4-14.2-1.4-21.2
		c0-7.3,0.3-14.5,1.7-21.6L793.5,7.5z M809.3,14.7V7.1h7.9v7.6h8.4v7.4h-8.3l0,11c3.8,1.7,7.8,4.8,9.7,6.7l-4.9,6.9
		c-2.3-2.6-4-3.9-5.3-4.9c0,1.4-0.1,2.7-1.1,4.2c-2.3,3.5-7.1,3.9-9.2,3.9c-9.1,0-11.8-5.5-11.8-9.6c0-5,4-9.6,11.5-9.6
		c1.9,0,2.4,0.1,3.3,0.4l-0.1-8.8h-13.6v-7.4L809.3,14.7L809.3,14.7z M809.6,37.8c-1-0.4-1.9-0.7-3.4-0.7c-3.2,0-4.7,1.6-4.7,3.2
		c0,1.5,1.3,3.1,4.4,3.1c3.7,0,3.7-1.7,3.7-3.1L809.6,37.8L809.6,37.8z"/>
</g>
<g>
	<path class="st0" d="M44.9,120.6l-0.6-3.4l-2,1c0,0-1.8-3.9-1.8-4h-9.1v3.6H16.7V67.8h24.2v1.8h3.5v-3.7h15.5v3.7H69v10.2h1.3v15
		H70V105h-3.7v6.5c0,8.4-6.9,9.1-9,9.1L44.9,120.6L44.9,120.6z"/>
	<path class="st1" d="M20.7,71.8h16.2v38.4h-9.6v3.6h-6.6L20.7,71.8L20.7,71.8z M27.3,78.7v8.9H31v-8.9H27.3z M27.3,93.8v9.7H31
		v-9.7H27.3z M44.6,101h-6V94h16.3v-3.2H38.1v-7h10.3v-3.6h-8.9v-6.7h8.9v-3.7h7.5v3.7H65v6.7h-9.1v3.6h10.5v7h-4V94H66v7.1h-3.7
		v10.5c0,1.4,0,5.1-5,5.1h-9.1l-0.9-5.3l-3.1,1.5c-1.6-3.5-3-5.9-5.4-9.1L44.6,101z M53.8,109.3c0.8,0,1.1-0.3,1.1-1.3v-7h-9.5
		c0.6,0.7,3,3.7,5.4,8.3H53.8z"/>
	<path class="st0" d="M70.8,115.5c-0.4-2.2-1.4-7.5-1.4-17.4c0-11,1.2-21.6,1.7-26.1l0.5-4.1L88,69l-0.4,2.4h29.9v15.8H85.7
		c-0.1,1.5-0.2,3.1-0.2,4.7c0.3-0.6,0.7-1.2,1.1-1.9l1.9-2.8l14.4,6.3l-3.3,4.1c-0.8,1-1.2,1.8-1.3,2.6c0.6,0.2,1.8,0.4,4.5,0.4
		c4.2,0,8.4-0.2,11.1-0.6l4.4-0.6l0.3,16.1l-3.8,0.4c-1.5,0.2-4.4,0.4-9.3,0.4c-4.7,0-13.9,0-19-4.8c0.1,0.6,0.2,1.2,0.3,1.8
		l0.9,4.4L71.4,119L70.8,115.5z"/>
	<path class="st1" d="M83.4,72.7c-0.5,3-2,11.4-2,23.6c0,5.9,0.3,12,1.5,17.8l-8.2,0.6c-0.4-2.4-1.3-7.3-1.3-16.6
		c0-11.1,1.2-21.6,1.7-26L83.4,72.7z M96.5,95.1c-1.8,2.3-2.3,4.2-2.3,5.6c0,3.4,3.8,3.9,8.5,3.9c3.5,0,8.1-0.2,11.6-0.6l0.2,8
		c-1.4,0.2-4.2,0.4-9,0.4c-8.1,0-18.8-0.4-18.8-10.4c0-1.3,0-5,3.2-9.9L96.5,95.1z M113.6,75.4v7.8H88.2v-7.8H113.6z"/>
	<path class="st0" d="M119.8,115.3c-1-6.6-1.5-13.6-1.5-21.8c0-6.6,0.2-14.4,1.8-22.4l0.7-3.5l16.2,1.3l-1,4.5
		c-0.2,0.8-0.3,1.6-0.5,2.4h8.4v-7.6h15.9v7.6h8.4v15.4h-8.3l0,4.5c3.5,1.9,6.8,4.5,8.6,6.4l2.3,2.4l-9.7,13.7l-3.3-3.8
		c-0.2-0.2-0.3-0.4-0.5-0.6c-2.4,3.2-6.7,5-12.1,5c-3.5,0-6.4-0.7-8.7-1.9l0.1,0.4l-16,1.8L119.8,115.3z M134.1,91.1c0,1,0,2,0,3.1
		c0,0.3,0,0.6,0,0.9c2.4-2,5.8-3.4,10-3.5l0-0.4L134.1,91.1L134.1,91.1z"/>
	<path class="st1" d="M132.1,72.5c-1.6,7.1-2,14.4-2,21.7c0,11,1.2,17.2,1.7,19.6l-7.9,0.9c-1.1-7.2-1.4-14.2-1.4-21.2
		c0-7.3,0.3-14.5,1.7-21.6L132.1,72.5z M147.8,79.7v-7.6h7.9v7.6h8.4v7.4h-8.3l0.1,11c3.9,1.7,7.9,4.8,9.7,6.7l-4.9,6.9
		c-2.3-2.6-3.9-3.9-5.3-4.9c-0.1,1.4-0.1,2.7-1.1,4.2c-2.3,3.6-7.1,3.9-9.2,3.9c-9.1,0-11.8-5.5-11.8-9.6c0-5,3.9-9.6,11.6-9.6
		c1.9,0,2.4,0.2,3.3,0.3l-0.1-8.8h-13.6v-7.4L147.8,79.7L147.8,79.7z M148.2,102.8c-1-0.4-1.9-0.7-3.4-0.7c-3.2,0-4.7,1.6-4.7,3.2
		c0,1.5,1.3,3.1,4.4,3.1c3.7,0,3.7-1.7,3.7-3.1V102.8z"/>
</g>
<path class="st0" d="M189.9,85.1c-2.8,0-5.3-1.4-6.8-3.6c-1.9,2.5-3.9,3.5-6.7,3.5c-4.5,0-8.1-3.5-8.1-7.8c0-1.5,0.5-3.2,1.5-4.8
	c7.6-11.8,9.4-13.5,13.4-13.5c2.6,0,4.9,1.3,6.2,3.3c0.1-0.1,0.2-0.3,0.3-0.4c1.4-1.8,3.6-2.9,5.9-2.9c4.1,0,7.4,3.1,7.4,7.1
	c0,1.1-0.2,2-0.6,3C197,82,195.7,85.1,189.9,85.1z"/>
<path class="st2" d="M172.3,77.3c0-0.8,0.3-1.7,0.9-2.7c7.5-11.7,8.4-11.7,10-11.7c1.7,0,3.4,1.2,3.4,3c0,0.5-0.1,1-0.4,1.5
	c-6.1,12.7-7.1,13.6-9.8,13.6C174.3,81,172.3,79.5,172.3,77.3z M185.8,77.3c0-0.8,0.3-1.7,0.8-2.7c1.8-3,4.4-8.1,6.2-10.3
	c0.8-1,1.8-1.4,2.8-1.4c1.8,0,3.4,1.2,3.4,3.1c0,0.5-0.1,0.9-0.3,1.5c-5.1,12.3-5.8,13.6-8.8,13.6C187.8,81.1,185.8,79.6,185.8,77.3
	z"/>
<path class="st0" d="M245.2,129.5c-4.4,0-14.6,0-14.6-8.4c0-4.3,3.4-7.6,7.8-7.6c0.3,0,1,0,1.7,0.2c2,0.3,3.8,0.5,5.3,0.5
	c3.9,0,3.9-1,3.9-1.4c0-3.4,0-9.7,0.1-16.8c0-7,0.1-14.8,0.1-20.8H238c5.6,0.9,9.4,4.6,9.7,9.8c0.1,2.6,0.2,5.6,0.2,8.5
	c0,2.3-0.1,4.5-0.2,6.6c-0.6,6.3-5.3,10.7-11.8,11.1c-2.4,0.1-4.8,0.2-7.1,0.2c-2.4,0-4.7-0.1-7-0.2c-6.7-0.4-11.5-4.9-11.8-11.1
	c-0.1-2.3-0.1-4.7-0.1-7.2c0-2.4,0-4.9,0.1-7.3c0.2-5.4,3.9-9.4,9.2-10.3h-10.1c-4.3,0-7.5-3.2-7.5-7.4s3.2-7.5,7.5-7.5H268
	c4.4,0,7.7,3.2,7.7,7.5s-3.3,7.4-7.7,7.4h-3c0,9.7,0,23.4,0.1,27.8l0.1,11C265.2,121.1,260,129.5,245.2,129.5z M225.3,96.4
	c1.2,0.1,3,0.1,4.2,0.1c1.5,0,2.4,0,3.1-0.1c0-0.8,0-1.8,0-2.7c0-1.5,0-3.1-0.1-4.5c-1.2,0-2.7,0-3.6,0c-1.2,0-2.5,0-3.6,0
	c0,1,0,2.3,0,3.6C225.3,94.1,225.3,95.3,225.3,96.4z"/>
<path class="st2" d="M261.2,113.8c0,0.1,0,0.1,0,0.2c0,5.4-3.8,11.6-15.9,11.6c-7.5,0-10.6-1.2-10.6-4.4c0-1.8,1.4-3.6,3.8-3.6
	c0.2,0,0.6,0,0.9,0.1c2.1,0.4,4.2,0.6,6.1,0.6c4.7,0,7.9-1.5,7.9-5.4c0-7.6,0.1-30,0.1-41.6h-44.2c-2.4,0-3.5-1.8-3.5-3.4
	c0-1.8,1.1-3.4,3.5-3.4H268c2.5,0,3.7,1.8,3.7,3.4c0,1.8-1.2,3.4-3.7,3.4h-7c0,9.2,0,26.8,0.1,31.9L261.2,113.8z M235.7,107
	c-2.2,0.1-4.6,0.2-6.9,0.2c-2.4,0-4.7-0.1-6.8-0.2c-4.3-0.2-7.7-3-7.9-7.3c-0.1-2.2-0.1-4.6-0.1-7.1c0-2.4,0-4.8,0.1-7.1
	c0.1-3.5,2.6-6.4,7-6.7c1.9-0.1,4.2-0.2,6.6-0.2c2.9,0,5.9,0.1,8.4,0.2c3.9,0.2,7.4,2.2,7.7,6.2c0.1,2.6,0.2,5.4,0.2,8.3
	c0,2.2-0.1,4.3-0.2,6.3C243.3,103.8,240.3,106.8,235.7,107z M236.6,93.8c0-2.2-0.1-4.3-0.1-6.1c-0.1-2.2-0.8-2.4-7.6-2.4
	c-1.8,0-3.5,0-4.8,0.1c-2.8,0.2-2.8,1.5-2.8,7.6c0,1.7,0,3.4,0.1,5c0.1,2.4,1.8,2.6,8.1,2.6c6.2,0,6.8-0.5,7-2.4
	C236.6,96.8,236.6,95.3,236.6,93.8z"/>
<path class="st0" d="M285.2,129.9c-3.4,0-6.3-2.4-7.1-5.6c-0.4,0.1-0.7,0.1-1.1,0.1c-4,0-7.1-3.1-7.1-7.1c0-2.9,1.8-5.4,4.6-6.7
	c6.2-2.7,11.8-6.7,17.4-12.4c-0.2-0.3-0.4-0.5-0.6-0.8c-2.8,3.2-6.5,5.8-10.1,5.8c-4.2,0-7.5-3.1-7.5-7.1c0-1.1,0.3-2.2,0.8-3.1
	c-3.9-1.9-3.9-6.9-3.9-9c0-3.1,0-12,9.1-13.7c-2.3-1.4-3.6-3.8-3.6-6.2c0-3.3,2.6-6.8,7.4-6.8c14.9-0.2,28.3-1.2,39.9-3.1
	c0.7-0.2,1.3-0.2,1.7-0.2c4.2,0,7.4,3.1,7.4,7.1c0,3.8-2,5.5-4.5,6.4c-0.1,0.8-0.3,1.6-0.6,2.4c0.4,0,0.8,0,1.3,0
	c7.2,0.1,12.5,4.5,12.8,10.7c0.1,1,0.1,2.1,0.1,3.2c0,4.9-1.7,7.4-3.9,8.6c0.1,0.4,0.1,0.8,0.1,1.2c0,4.3-3.5,7.8-7.7,7.8
	c-2.7,0-5-1.4-6.4-4c-0.3-0.5-0.6-1.1-1-1.6c-0.4,0.7-0.8,1.3-1.3,1.9c3.7,1.5,5.5,4.8,5.5,7.8c0,2.6-0.9,4.6-3.6,7.3
	c2.9,0.4,6,0.5,9.3,0.5h1.9c4.1,0,7.2,3.2,7.2,7.2c0,3.5-1.8,7.8-10.3,7.8c-8.8,0-17-1.6-23.9-4.7
	C297.2,128.8,287.2,129.9,285.2,129.9z"/>
<path class="st2" d="M334.4,117.7c2,0,3.1,1.5,3.1,3.2c0,3.7-3.7,3.8-6.3,3.8c-9.3,0-17.5-1.9-23.9-5.1c-10.4,5.4-20.8,6.4-22.1,6.4
	c-2.1,0-3.4-1.8-3.4-3.4c0-1.5,1-3,3.3-3.1c5.8-0.2,11.2-1.8,15.9-3.8c-2.5-1.9-4.5-4-5.9-6.3c-5.8,5-15.5,11.1-18.1,11.1
	c-1.9,0-3.1-1.5-3.1-3.1c0-1.2,0.7-2.4,2.2-3.1c6.9-3.1,13.7-7.8,21.1-15.9c0.4-0.4,0.7-0.7,1.1-0.9c-3.7-0.8-5-3.2-5-7.4
	c0-0.5-0.1-2-0.1-3.6c0-3.1,0.2-5.2,3.3-5.2c1.7,0,3.4,1,3.4,2.7c0,2.1-0.1,4.6-0.1,5.4c0.1,2,0.6,2.8,5.7,2.8c6.6,0,8-0.5,8-3.9
	c0-1.8,1.4-2.7,2.9-2.7c1.8,0,3.6,1.1,3.6,2.8c0,8.3-3.6,9.6-14.6,9.6c-1,0-1.9,0-2.8-0.1c0.6,0.5,1,1.2,1,2c0,0.5-0.1,0.9-0.4,1.4
	c4.6-0.1,12-0.2,13.3-0.2c4.1,0,6.1,2.2,6.1,4.7c0,1.9-0.7,3.7-8.6,9.6c4.9,1.5,10.9,2.3,18.3,2.3
	C333,117.7,333.7,117.7,334.4,117.7L334.4,117.7z M281.7,86.6c0,2.1-1.8,3.1-3.7,3.1c-3.5,0-3.6-2.5-3.6-5.8c0-4.3,0.2-9.9,8.1-10
	c2.2,0,4.5-0.2,6.9-0.2c-0.8-1.8-1.5-2.8-2-3.5c-0.2-0.4-0.3-0.8-0.3-1.2c0-0.8,0.5-1.5,1.2-1.9c-1.6,0.1-3.1,0.1-4.5,0.2
	c-0.1,0-0.1,0-0.1,0c-2.5,0-3.8-1.7-3.8-3.3c0-1.5,1.1-2.8,3.4-2.8c12.3-0.2,26.8-0.9,40.7-3.1c0.3-0.1,0.6-0.1,0.9-0.1
	c2.3,0,3.4,1.6,3.4,3.1c0,2.5-1.5,2.8-5.6,3.3c0.7,0.5,1.1,1.2,1.1,2.2c0,1.5-1.9,5.8-2.8,7.2c2.5,0,4.9,0.1,7.2,0.2
	c4.1,0.1,8.7,2.1,8.9,7c0.1,0.8,0.1,1.9,0.1,3c0,2.9-0.3,5.5-4,5.5c-1.8,0-3.6-1.1-3.6-3.1c0-0.1,0-0.1,0-0.2c0-5.4,0-6.4-4.1-6.4
	c-5.3-0.1-12.4-0.2-19.5-0.2c2,1.2,6.1,4.5,6.1,6.9c0,1.9-1.7,3.5-3.3,3.5c-0.8,0-1.6-0.4-2.1-1.3c-1.5-2.4-3.6-4.4-4.5-5.2
	c-0.5-0.5-0.8-1-0.8-1.5c0-0.9,0.7-1.8,1.7-2.4c-6.4,0-12.6,0.1-17.1,0.2c-4.1,0.1-4.3,1.4-4.4,3.3
	C281.7,83.1,281.7,83.1,281.7,86.6L281.7,86.6L281.7,86.6z M277.6,96.1c0-1.2,0.7-2.3,2.3-3.2c1.8-1,5.1-4.2,6-6.8
	c0.5-1.5,1.7-2.2,2.8-2.2c1.8,0,3.5,1.3,3.5,3.1c0,3.5-6.2,12.2-11,12.2C279,99.2,277.6,97.8,277.6,96.1z M292.5,67.3
	c0.6,0.6,3.6,4.1,3.6,6c0,0.2-0.1,0.4-0.1,0.5c2.2,0,4.5-0.1,6.7-0.1c-0.7-2.4-1.5-3.8-2-4.7c-0.1-0.4-0.2-0.7-0.2-1
	c0-0.6,0.3-1.2,0.8-1.6c-3.1,0.2-6.2,0.4-9.1,0.5L292.5,67.3z M313.1,107c0-0.3-0.4-0.5-0.7-0.5c-0.1,0-0.2,0-0.3,0
	c-0.4,0.1-6.9,0.2-11.5,0.2c1.7,2.2,3.8,4,6.5,5.6C310.9,109.9,313.1,107.6,313.1,107z M314.5,73.3c1.1-2.1,2.2-4.8,2.8-7.7
	c0-0.2,0.1-0.3,0.1-0.5c-3.8,0.4-7.8,0.8-11.7,1.1c0.2,0.1,3.5,3.8,3.5,6.7c0,0.3,0,0.6-0.1,0.9c1.8,0,3.6,0.1,5.4,0.1
	C314.4,73.7,314.4,73.5,314.5,73.3z M327,95.7c-1.7-3-4.1-5.8-6.2-7.6c-0.8-0.8-1.2-1.5-1.2-2.3c0-1.5,1.5-2.8,3.3-2.8
	c2.7,0,10.7,7.4,10.7,10.7c0,2.2-1.8,3.8-3.7,3.8C328.8,97.6,327.7,97.1,327,95.7z"/>
<path class="st0" d="M379.2,128.5c-2.9,0-5.4-1.6-6.8-4.3c-4.3-8.4-10.6-18.1-15.7-24.1c-6.6-7.7-6.2-15.4,1.1-22.9
	c1.1-1.1,2.1-2.2,3.3-3.4c4.2-4.3,8.6-8.8,12.1-13.6c1.7-2.2,4-3.4,6.6-3.4c3.2,0,6.3,2,7.7,4.9c1.4,2.8,0.9,6.1-1.1,8.6
	c-2.6,3.2-6.7,6.9-10.7,10.6c-2.3,2.1-4.5,4.1-6.2,5.8c-1.4,1.4-1.5,2-1.5,2l0,0c0,0,0,0.4,0.9,1.4c1.4,1.7,2.7,3.4,4,5
	c6,7.3,11.1,13.7,14.4,20.9c1.3,2.8,1.1,5.8-0.5,8.3C385,126.9,382.1,128.5,379.2,128.5z"/>
<path class="st2" d="M376,122.4c-4.5-8.7-11-18.7-16.3-24.9c-5.1-5.9-5.1-11.3,0.9-17.6c5.2-5.4,11.1-11.1,15.7-17.3
	c3.5-4.7,10.4,0.8,6.8,5.2c-3.8,4.7-12,11.3-16.7,16.1c-3.3,3.3-3.5,5.6-0.9,8.7c7.7,9.6,14.2,16.8,17.9,25
	C385.9,122.8,378.5,127.3,376,122.4z"/>
<path class="st0" d="M413.2,85.5c-2.6,0-4.9-1.3-6.2-3.3c-0.1,0.1-0.2,0.3-0.3,0.4c-1.4,1.8-3.6,2.9-5.9,2.9c-4.1,0-7.4-3.1-7.4-7.1
	c0-1.1,0.2-2,0.6-3c5.4-13,6.7-16.1,12.5-16.1c2.8,0,5.3,1.4,6.8,3.6c1.9-2.5,3.9-3.5,6.7-3.5c4.5,0,8.1,3.5,8.1,7.8
	c0,1.5-0.5,3.2-1.5,4.8C419,83.7,417.3,85.5,413.2,85.5z"/>
<path class="st2" d="M400.7,81.5c-1.8,0-3.4-1.2-3.4-3.1c0-0.5,0.1-0.9,0.3-1.5c5.1-12.3,5.8-13.6,8.8-13.6c2.1,0,4.1,1.5,4.1,3.8
	c0,0.8-0.3,1.7-0.8,2.7c-1.8,3-4.5,8.1-6.2,10.3C402.7,81.1,401.7,81.5,400.7,81.5z M409.8,78.5c0-0.5,0.1-1,0.4-1.5
	c6.1-12.7,7-13.6,9.8-13.6c2.1,0,4.1,1.5,4.1,3.8c0,0.8-0.3,1.7-0.9,2.7c-7.5,11.7-8.4,11.7-10,11.7S409.8,80.3,409.8,78.5z"/>
<g>
	<path class="st0" d="M452.5,119c-6.8,0-11.4-2.6-13.9-6.1l-0.6,1.7l-16.4-4.6l2.1-4.3c1.6-3.2,4.2-10.4,6.1-17.5h-5.6V72.6h8.4
		c0.1-0.7,0.1-1.3,0.1-1.9l0.2-3.9l16.8,0.6l-0.9,5.2h7.9v0.5c2.6-0.4,6.8-0.9,14.3-1.2l3.8-0.1l1.4,16.9l-5.4-0.5
		c-0.9-0.1-1.9-0.2-2.9-0.2c-0.1,0-0.3,0-0.5,0l0.2,7.2c5,3,6.7,4.6,7.9,5.7l2.4,2.2l-1.6,2.8l-7.1,12.1l-3.7-3.9
		c-0.2-0.2-0.3-0.4-0.5-0.6C462.6,117,458.3,119,452.5,119z M446.1,88.1c-0.3,1.4-0.7,2.8-1.1,4.3c1.9-0.8,4.1-1.2,6.7-1.3l-0.1-3
		H446.1z"/>
	<path class="st1" d="M445,71.2c-0.1,0.9-0.8,4.6-0.9,5.4h8.6v7.5h-9.8c-1.5,7.5-4.8,18.2-7.4,25.6l-8.1-2.3
		c2.2-4.5,5.8-14.9,7.5-23.3h-6.6v-7.5h7.9c0.4-2.7,0.5-4,0.6-5.7L445,71.2z M471.9,84.3c-1.2-0.1-2.5-0.3-4-0.3
		c-1.8,0-3.3,0.2-4.5,0.3l0.3,13.2c6.3,3.6,8,5.2,9.2,6.3l-4.4,7.5c-1.3-1.4-3.3-3.2-5.4-5.2l0,1c-0.3,5.6-5,7.7-10.5,7.7
		c-8.2,0-12.2-4.4-12.2-9.8c0-4.3,2.9-10.1,12.6-10.1c1.2,0,2.1,0.1,3,0.2l-0.5-17.8c2.3-0.4,6.2-1.2,15.8-1.5L471.9,84.3z
		 M456,102.3c-0.9-0.3-1.9-0.7-3.5-0.7c-0.7,0-5.3,0.1-5.3,3.4c0,1,0.5,3.4,4.7,3.4c4,0,4.1-2.1,4.1-3.3L456,102.3L456,102.3z"/>
	<path class="st0" d="M491.6,116.8l-13.3,1.8l-0.7-3.8l3.9-0.7l-4,0.6c-0.6-3.3-1.7-9.3-1.7-19.7c0-7.5,0.5-14.8,1.7-23.8l0.5-3.8
		l15.9,1.2l-0.8,4.7c-0.1,0.9-0.3,2.2-0.5,3.6h9.6c0-2.1-0.1-4.5-0.1-5.2l-0.3-4.3h16.6l-0.1,4.1c0,0.8,0,3.2,0,5.3h8.1v15.3h-7.8
		c-0.1,13-3.1,23-22.7,26.5l-3,0.5L491.6,116.8z M491.6,93.2c0,4,0.1,7.5,0.5,10.7c9.2-1.5,10.5-2.7,10.5-11.4h-11
		C491.6,92.7,491.6,92.9,491.6,93.2z"/>
	<path class="st1" d="M489.4,72.4c-0.5,3.1-1.7,10.4-1.7,20.8c0,6.7,0.4,13.4,2,19.8l-8,1.1c-0.6-3.2-1.7-9-1.7-19.1
		c0-8,0.6-15.4,1.7-23.2L489.4,72.4z M506.4,81.1c0-1.5-0.1-8.1-0.3-9.5h8.1c0,1.5,0,8.1,0,9.5h8.1v7.3h-7.9
		c0.4,15.4-1.5,23.4-19.3,26.6l-3.4-7.1c13.9-2.2,15-5.4,14.8-19.5h-14.7v-7.3H506.4z"/>
	<path class="st0" d="M533.8,118.8v-4c0-0.4,0-1.2,0-2.1l-2.8,3.2l-7.8-16.4l2.5-2c3.1-2.4,5.6-5.4,7.2-7.4l-7.3,0.1V74.7h8.3
		c0-0.3,0-2.9,0-3.1v-4h16.1v4c0,0.1,0,0.7,0,1.5c3-1.5,5.9-2.2,8.8-2.2c3.7,0,6.6,1.1,8.8,3.4c3.8,3.8,3.7,9.5,3.6,11.7l-0.4,14.1
		c0,0.6,0,1.1,0,1.4c0.9,0.1,2.4,0.1,3.8,0.2l5.2,0.1l-4.7,15.9l-3.2-0.2c-5.5-0.3-12.5-0.7-15.7-6.8c-2.1-4-1.8-9.8-1.8-9.9
		c0,0,0.5-13.3,0.5-13.4c-1.3,0.5-3.2,1.7-5.5,4.2c0,2.2-0.1,5.4-0.1,9.6c0,6.5,0.1,10.4,0.3,13.5l0.2,4.2L533.8,118.8L533.8,118.8z
		"/>
	<path class="st1" d="M546.1,71.6c0,0.4-0.2,8.2-0.3,9.2c2.3-2,7.3-5.9,13-5.9c8.7,0,8.5,8.4,8.4,11.1l-0.4,14
		c-0.2,5.5,0.9,5.5,7.7,5.7l-2.3,7.8c-5.3-0.3-10.2-0.6-12.4-4.7c-1.3-2.6-1.4-6.9-1.3-7.8l0.5-13.2c0.1-2.8,0-4.9-2.5-4.9
		c-0.6,0-5.4,0.2-11,7.1c0,2.3-0.2,5.9-0.2,11.1c0,6.7,0.2,10.6,0.3,13.7h-8c0-2.2,0.1-11.7,0.1-13.7c-1.6,2.7-1.6,2.8-5.9,7.6
		l-3.8-8c5.6-4.3,9.4-10.3,9.7-10.8V86l-8.2,0.1v-7.4h8.2c0-0.8,0-6.8,0-7.1L546.1,71.6L546.1,71.6z"/>
	<path class="st0" d="M616.1,115.1c-0.2-0.2-0.5-0.6-0.9-1c-2.5,2.7-6.6,4.6-12.2,4.6c-3,0-5.6-0.7-7.7-1.8l0.1,0.5l-16.3,1.6
		l-0.5-3.8l4-0.5l-4,0.5c-0.5-3.4-1.6-11.5-1.6-23c0-8,0.5-15.1,1.5-21.1l0.6-3.6l16.3,1.4l-0.9,4.4c-0.2,0.7-0.4,1.7-0.6,3h8.1
		l-0.4-8l6.1,0.1l-0.5-1.1l12.2-2.3l0.4,0.9l5.6-1.3l1.4,2.7c1.2,2.3,2.4,6,2.8,8.4l0.5,3.6l-3.4,0.8v11.6h-8.5l0.1,4
		c2.2,1.3,5.3,3.3,8.9,7l2.5,2.5l-10.5,13.9L616.1,115.1z M592.8,93.3c0,0.7,0,1.4,0,2.1c2.1-1.8,4.9-3.2,8.4-3.6h-8.4
		C592.8,92.3,592.8,92.8,592.8,93.3z"/>
	<path class="st1" d="M590.7,72.5c-0.7,3.3-1.9,9.6-1.9,20.8c0,11.3,1.2,17.8,1.8,20.6l-8,0.8c-0.4-3.3-1.5-11.2-1.5-22.4
		c0-10.6,0.9-17.2,1.5-20.4L590.7,72.5z M606.3,80.3l-0.4-7.9l6.2,0.1c0.4,1.4,1,3.7,1.3,5.9l0.5-0.1l0.1,2.1h8.8v7.4h-8.6l0.2,10.4
		c1.7,0.9,5.3,2.7,10.1,7.4l-5.3,7c-0.6-0.8-3.7-4.3-5.2-5.8c0,0.3,0,0.7,0,0.9c-0.2,3.3-3.8,7-11,7c-7.1,0-10.8-4.6-10.8-9.4
		c0-4.5,3.5-9.7,11.5-9.7c1.4,0,2.3,0.2,3.1,0.3l-0.3-8.1h-13.3v-7.4L606.3,80.3L606.3,80.3z M606.9,102.5c-1-0.4-2.3-0.7-3.5-0.7
		c-3,0-4.9,1.3-4.9,3.5c0,2.9,3.1,3.3,4.5,3.3c4,0,3.9-2.6,3.9-3.6V102.5z M614.8,77.4c-0.4-2.3-1-5.1-1.9-7.2l4.2-0.8
		c1,2.3,1.3,3.7,2.1,7.1L614.8,77.4z M621.4,77.3c-0.9-4.3-1.6-6-2.2-7.3l4.1-0.9c0.9,1.8,2.1,5.1,2.4,7.2L621.4,77.3z"/>
	<path class="st0" d="M656.2,119c-6.8,0-11.4-2.6-13.9-6.1l-0.6,1.7l-16.4-4.6l2.1-4.3c1.6-3.2,4.2-10.4,6.1-17.5H628V72.6h8.4
		c0.1-0.7,0.1-1.3,0.1-1.9l0.2-3.9l16.8,0.6l-0.9,5.2h7.9v0.5c2.6-0.4,6.8-0.9,14.3-1.2l3.8-0.1l1.4,16.9l-5.4-0.5
		c-0.9-0.1-1.9-0.2-2.9-0.2c-0.2,0-0.3,0-0.5,0l0.2,7.2c5,3,6.7,4.6,7.9,5.7l2.4,2.2L680,106l-7.1,12.1l-3.7-3.9
		c-0.2-0.2-0.3-0.4-0.5-0.6C666.4,117,662,119,656.2,119z M649.8,88.1c-0.3,1.4-0.7,2.8-1.1,4.3c1.9-0.8,4.1-1.2,6.7-1.3l-0.1-3
		H649.8z"/>
	<path class="st1" d="M648.8,71.2c-0.2,0.9-0.8,4.6-0.9,5.4h8.6v7.5h-9.8c-1.5,7.5-4.8,18.2-7.4,25.6l-8.1-2.3
		c2.2-4.5,5.8-14.9,7.5-23.3H632v-7.5h7.9c0.4-2.7,0.5-4,0.6-5.7L648.8,71.2z M675.6,84.3c-1.2-0.1-2.5-0.3-4-0.3
		c-1.8,0-3.3,0.2-4.5,0.3l0.3,13.2c6.3,3.6,8,5.2,9.2,6.3l-4.4,7.5c-1.3-1.4-3.3-3.2-5.4-5.2l0,1c-0.3,5.6-5,7.7-10.5,7.7
		c-8.2,0-12.2-4.4-12.2-9.8c0-4.3,2.9-10.1,12.6-10.1c1.2,0,2.1,0.1,3,0.2l-0.5-17.8c2.3-0.4,6.2-1.2,15.8-1.5L675.6,84.3z
		 M659.8,102.3c-0.9-0.3-1.9-0.7-3.5-0.7c-0.7,0-5.3,0.1-5.3,3.4c0,1,0.5,3.4,4.7,3.4c4,0,4.1-2.1,4.1-3.3L659.8,102.3L659.8,102.3z
		"/>
	<path class="st0" d="M693.5,118.8c-4.5,0-5.6-0.1-7.8-0.2l-3.1-0.2l-3.1-16.1l1.3,0.1l0-2.2c0-13.4,0.9-18.9,1.2-21.2l0.5-3.6
		l3.7,0.2l2.1,0.1l1.7-9l3.4,0.1c8.6,0.2,16.6,1.3,23.6,3.3l3.6,1l-3.1,13.7c5.2,2.8,8.4,8,8.4,14.5c0,7.2-3.4,12.7-9.9,16
		C712.9,117.1,708.2,118.8,693.5,118.8z M696.6,103.5c13-0.1,13-3.2,13-4.2c0-1.4-1.9-1.6-3-1.6c-3.6,0-7.4,1.3-10,3.3L696.6,103.5
		L696.6,103.5z M697.6,82.7c-0.1,0.6-0.2,1.2-0.3,1.8c1.6-0.5,3.2-0.9,4.7-1.2C700.5,83.1,699,82.8,697.6,82.7z"/>
	<path class="st1" d="M694,80.3c-0.7,3.5-1.1,7.8-1.2,10.7c6.7-4.2,14.5-4.2,15.3-4.2c9,0,14,5.8,14,12.7c0,6.6-3.5,10.3-7.7,12.4
		c-2.4,1.2-6.3,2.9-20.8,2.9c-4.5,0-5.6-0.1-7.5-0.2l-1.5-7.8c5,0.5,8.7,0.6,11.4,0.6c14.1,0,17.7-3.4,17.7-8.2c0-5.3-5.8-5.6-7-5.6
		c-4.9,0-10.5,2-14,5.5v1.4l-7.8-0.3c0-13.2,0.8-18.4,1.2-20.6L694,80.3z M714.1,82.2c-6-2.4-17.2-3.8-22.1-4l1.3-7.3
		c2.8,0.1,12.6,0.3,22.6,3.1L714.1,82.2z"/>
	<path class="st0" d="M753.9,119c-6.8,0-11.4-2.6-13.9-6.1l-0.6,1.7l-16.4-4.6l2.1-4.3c1.6-3.2,4.2-10.4,6.1-17.5h-5.6V72.6h8.4
		c0.1-0.7,0.1-1.3,0.1-1.9l0.2-3.9l16.8,0.6l-0.9,5.2h7.9v0.5c2.6-0.4,6.8-0.9,14.3-1.2l3.8-0.1l1.4,16.9l-5.4-0.5
		c-0.9-0.1-1.9-0.2-2.9-0.2c-0.2,0-0.3,0-0.5,0l0.2,7.2c5,3,6.7,4.6,7.9,5.7l2.4,2.2l-1.6,2.8l-7.1,12.1l-3.7-3.9
		c-0.2-0.2-0.3-0.4-0.5-0.6C764.1,117,759.7,119,753.9,119z M747.6,88.1c-0.3,1.4-0.7,2.8-1.1,4.3c1.9-0.8,4.1-1.2,6.7-1.3l-0.1-3
		H747.6z"/>
	<path class="st1" d="M746.5,71.2c-0.2,0.9-0.8,4.6-0.9,5.4h8.6v7.5h-9.8c-1.5,7.5-4.8,18.2-7.4,25.6l-8.1-2.3
		c2.2-4.5,5.8-14.9,7.5-23.3h-6.6v-7.5h7.9c0.4-2.7,0.5-4,0.6-5.7L746.5,71.2z M773.3,84.3c-1.2-0.1-2.5-0.3-4-0.3
		c-1.8,0-3.3,0.2-4.5,0.3l0.3,13.2c6.3,3.6,8,5.2,9.2,6.3l-4.4,7.5c-1.3-1.4-3.3-3.2-5.4-5.2l0,1c-0.3,5.6-5,7.7-10.5,7.7
		c-8.2,0-12.2-4.4-12.2-9.8c0-4.3,2.9-10.1,12.6-10.1c1.2,0,2.1,0.1,3,0.2l-0.5-17.8c2.3-0.4,6.2-1.2,15.8-1.5L773.3,84.3z
		 M757.5,102.3c-0.9-0.3-1.9-0.7-3.5-0.7c-0.7,0-5.3,0.1-5.3,3.4c0,1,0.5,3.4,4.7,3.4c4,0,4.1-2.1,4.1-3.3L757.5,102.3L757.5,102.3z
		"/>
	<path class="st0" d="M792,117.8c-5.8,0-15.6-3.8-15.6-29.2c0-5.1,0.5-11.2,0.9-15.2l0.4-4.3l16.6,1.5l-0.7,4.3
		c-1,5.8-1.4,10.2-1.4,14.4c0,4.5,0.4,7.5,0.8,9.4c0.5-1,1.1-2.5,1.8-4.6l1.6-4.6l13.5,7.9l-1,3.1C804.9,112,799.2,117.8,792,117.8z
		 M811.5,108.7c0-1,0.1-2,0.1-3.3c0-15.8-5.1-21.8-7.3-23.6l-4.1-3.4l13.5-9l2.3,2.3c4.6,4.7,12.3,12.5,12,36.8l-0.1,3.7l-16.7,1
		L811.5,108.7z"/>
	<path class="st1" d="M789.7,74.3c-0.8,5.1-1.4,10-1.4,15.1c0,4.5,0.3,15.3,4.3,15.3c2.5,0,4.7-5.2,6.1-9.2l6.4,3.8
		c-1.5,4.3-5.3,14.6-13,14.6c-10.4,0-11.6-16.9-11.6-25.2c0-5.1,0.5-11.2,0.9-15.1L789.7,74.3z M815.5,108.9c0-1,0.1-2,0.1-3.6
		c0-16.8-5.5-24-8.7-26.7l6.3-4.2c4.4,4.5,11.2,11.3,10.8,33.9L815.5,108.9z"/>
</g>
</svg>
