<!-- Generator: Adobe Illustrator 23.1.0, SVG Export Plug-In  -->
<svg version="1.1" xmlns="http://www.w3.org/2000/svg" xmlns:xlink="http://www.w3.org/1999/xlink" x="0px" y="0px"
   width="832.19px" height="129.88px" viewBox="0 0 832.19 129.88" style="enable-background:new 0 0 832.19 129.88;"
   xml:space="preserve">
<style type="text/css">
  .st0{fill:#FFFFFF;}
  .st1{fill:#172A88;}
  .st2{fill:#EA609E;}
</style>
<defs>
</defs>
<g>
  <path class="st0" d="M3.02,37.57l4.68-0.45c4.05-0.39,7.56-0.91,10.65-1.75l-0.38-0.2c-5.41-2.84-10.2-4.39-13.76-5.42L0,28.52
    l4.42-11.34l-0.64-0.17L9.69,3.02l3.25,0.71c6.1,1.34,10.57,2.76,15.93,5.07l3.67,1.58l-5.16,11.96l0.42,0.22l-4.41,10.93
    c5.44-2.68,9.27-7.26,12.39-15.49l-0.81,0.16l-0.64-4.14c-0.12-0.81-0.82-4.6-1.72-7.01L30.9,2.42l12.45-1.96l0.21,0.56L49.96,0
    l1.27,2.75c1.55,3.35,2.54,7.73,2.55,7.78l0.88,3.98l-3.63,0.73l2.21,1.15l-1.11,3.25C43.68,44.5,30.58,50.88,10.83,53.5l-3.5,0.46
    L3.02,37.57z"/>
  <path class="st1" d="M19.82,31.62c-5.92-3.11-11.1-4.74-14.51-5.72l2.62-6.71c2.32,0.54,9.67,2.52,14.8,5.23L19.82,31.62z
     M8.08,41.09c16.78-1.63,26.65-5.38,33.06-26.5l7.2,3.75C40.85,40.4,30.04,46.92,10.3,49.53L8.08,41.09z M24.17,19.68
    c-5.33-2.62-9.38-3.95-14.9-5.38l2.81-6.66c5.63,1.23,9.82,2.52,15.2,4.84L24.17,19.68z M38.28,13.41c-0.1-0.64-0.84-4.89-1.92-7.8
    l4.39-0.69c0.44,1.18,1.14,2.76,2.17,7.55L38.28,13.41z M45.48,12.28c-0.39-2.02-1.18-4.93-2.17-7.16l4.29-0.69
    c1.28,2.76,2.17,6.51,2.27,6.96L45.48,12.28z"/>
  <path class="st0" d="M81.51,50.26c-8.54,0.88-22.97,1.66-28.84,1.98l-5.59,0.32l-1.88-16.4c0,0,5.83,0,6.35,0
    c6.05-19.61,6.29-20.58,8.17-30.04l0.71-3.55l17.12,1.65l-1.38,4.65c-1.98,6.65-3.43,11.54-4.57,15.34l11.03-5.12l1.95,2.53
    c4.98,6.45,9.28,14.37,12.8,23.54l1.37,3.57l-3.5,1.54l-11.83,5.14C83.42,55.43,81.64,50.62,81.51,50.26z M70.35,28.32
    c-0.97,3.16-1.7,5.43-2.43,7.58c1.69-0.05,3.81-0.13,7.02-0.27c-1.73-3.22-2.95-4.96-3.72-6.06L70.35,28.32z"/>
  <path class="st1" d="M81.41,24.07c7.16,9.28,11.1,19.59,12.24,22.55l-7.94,3.45c-0.69-1.88-1.04-2.81-1.58-4.15
    c-8.34,1.13-30.05,2.22-33.51,2.42l-0.94-8.19c0.79,0,3.8,0,4.84-0.05c6.86-22.21,7.11-23.04,9.13-33.21l8.69,0.84
    c-6.61,22.26-7.35,24.72-10.12,32.27c4.84-0.05,6.27-0.1,19.05-0.64c-3.21-6.91-5.38-10.12-6.76-12.09L81.41,24.07z"/>
  <path class="st0" d="M96.46,49.09V33.34h50.64v15.75H96.46z M100.21,23.38V7.73h43.09v15.65H100.21z"/>
  <path class="st1" d="M143.1,37.34v7.75h-42.64v-7.75H143.1z M139.3,11.73v7.65h-35.09v-7.65H139.3z"/>
  <rect x="144.43" y="20.17" class="st0" width="51.52" height="16.24"/>
  <path class="st1" d="M191.96,24.17v8.24h-43.52v-8.24H191.96z"/>
  <path class="st0" d="M191.64,47.1l2.4-3.66c1.75-2.66,3.8-6.43,6.31-17.27l-6.08,0.09V10.69h8.57c0.18-1.74,0.32-3.43,0.42-5.09
    l0.26-4l16.39,1.09c0,0-0.9,7.1-1.02,8c3.11,0.04,5.73,0.69,7.85,1.94c-0.45-1.25-0.99-2.57-1.58-3.6l-2.59-4.49l12.2-3.33l0.5,0.8
    l6.46-1.78l1.66,2.56c0.65,1.01,1.87,2.88,3.65,8.46l1.23,3.88l-5.37,1.61c2.04,4.81,3.23,10.74,3.68,18.29l0.23,3.84l-14.35,1.44
    c-0.63,3.2-1.65,6.34-3.26,8.48c-3.88,5.1-9.24,5.1-11.53,5.1c-3.47,0-5.88-0.41-7.63-0.71l-2.48-0.43l-1.14,2.25L191.64,47.1z
     M213.45,38.19c0.81,0.11,1.63,0.19,2.54,0.19c0.25,0,0.43-0.02,0.55-0.03c0.56-1.22,1.28-6.03,1.28-9.98c0-0.63,0-1.69-0.07-2.34
    c-0.15-0.01-0.34-0.02-0.58-0.02l-0.75,0.01C215.53,30.48,214.56,34.5,213.45,38.19z"/>
  <path class="st1" d="M215.4,6.4c-0.25,1.92-0.49,4.05-1.09,8.29h4.24c9.82,0,10.96,7.3,10.96,13.97c0,2.81-0.35,13.52-3.5,17.72
    c-2.52,3.31-5.82,3.5-8.34,3.5c-3.26,0-5.43-0.4-7.16-0.69l-0.3-7.5c1.83,0.35,3.55,0.69,5.77,0.69c2.47,0,3.31-0.94,3.8-1.68
    c1.38-2.02,2.02-8.78,2.02-12.34c0-3.95-0.1-6.42-4.79-6.37l-3.95,0.05c-1.68,9.47-4.05,18.9-8.39,27.49l-7.3-3.9
    c2.17-3.31,4.79-8.14,7.94-23.54l-7.06,0.1v-7.5h8.14c0.44-3.6,0.69-6.51,0.84-8.83L215.4,6.4z M231.63,14.99
    c-0.44-1.78-1.53-5.38-3.01-7.94l4.34-1.18c1.43,2.27,2.62,5.72,3.11,7.65L231.63,14.99z M234.2,36.11
    c-0.25-12.34-2.76-16.88-3.75-18.7l7.2-2.22c2.47,4.19,4.34,10.17,4.93,20.08L234.2,36.11z M238.94,13.76
    c-0.15-0.54-1.43-4.69-3.26-7.7l4.29-1.18c0.54,0.84,1.58,2.32,3.26,7.6L238.94,13.76z"/>
  <path class="st0" d="M240.78,42.92l4.41-2.45c6.49-3.61,9.75-7.33,11.71-13.97h-11.44v-15.4h13.6c0.07-1.79,0.07-3.21,0.07-4.44
    V2.63l16.51,0.1l-0.18,4.15c-0.06,1.33-0.13,2.7-0.22,4.22h17.54v11.55c0,2.74-0.11,16.71-2.2,22.73
    c-2.94,8.31-10.47,8.31-13.3,8.31c-5.17,0-8.11-0.64-9.37-0.92l-2.99-0.65l-0.23-3.07l-0.21-4.06c-3.89,4.63-7.85,7.11-9.81,8.34
    l-2.83,1.77L240.78,42.92z M269.57,37.25c1.67,0.27,3.91,0.64,6.23,0.64c0.08,0,0.15,0,0.21,0c0.31-1.91,0.75-7.5,0.85-11.39h-3.49
    C272.43,30.65,271.1,34.21,269.57,37.25z"/>
  <path class="st1" d="M288.78,15.09v7.55c0,5.33-0.35,16.73-1.97,21.42c-1.97,5.58-6.81,5.63-9.52,5.63c-4.84,0-7.45-0.59-8.59-0.84
    l-0.39-7.75c1.83,0.3,4.54,0.79,7.5,0.79c3.11,0,3.65-0.84,4.1-3.01c0.44-2.37,0.99-9.87,0.99-13.87v-2.52h-10.81
    c-3.01,18.36-13.97,25.22-17.52,27.44l-5.43-5.97c8.69-4.84,12.73-10.31,14.8-21.47h-12.48v-7.4h13.37c0.3-3.85,0.3-6.46,0.3-8.44
    l8.34,0.05c-0.1,2.32-0.25,4.89-0.49,8.39H288.78z"/>
  <path class="st0" d="M296.7,41.77l5.21-1.26c7.1-1.71,11.59-3.65,14.68-6.78l-5.85,1.34L310.73,35l-11.16,2.63l-0.72-4.19
    c-0.46-2.68-1.46-6.84-3.58-11.43l-2-4.32l13.96-3.74l0.26,0.49l11.42-2.43l1.38,2.77c0.9,1.8,1.69,3.8,2.36,5.99
    c0.36-1.48,0.7-3.07,1.04-4.79l0.81-4.04l15.6,3.62l-0.95,3.92c-2.83,11.7-7.08,29.3-31.8,35.03l-2.88,0.67L296.7,41.77z"/>
  <path class="st1" d="M302.8,32.76c-0.54-3.16-1.68-7.65-3.9-12.44l6.27-1.68c2.42,4.64,3.65,9.52,4.34,12.53L302.8,32.76z
     M302.85,44.4c17.81-4.29,21.47-11.1,24.77-27.63l7.65,1.78c-2.81,11.65-6.46,26.89-28.82,32.08L302.85,44.4z M313.95,30.24
    c-1.18-6.66-2.52-10.07-3.5-12.34l6.27-1.33c2.52,5.03,3.45,10.76,3.7,12.19L313.95,30.24z"/>
  <polygon class="st0" points="341.09,50.72 341.09,34.97 370.11,34.97 370.11,22.05 341.58,22.05 341.58,6.35 386.45,6.35
    386.45,50.72  "/>
  <path class="st1" d="M382.45,10.35v36.37h-37.36v-7.75h29.02V18.05h-28.52v-7.7H382.45z"/>
  <path class="st0" d="M432.63,55.92c-5.09-1.58-9.65-3.51-13.41-5.64v0.91l-3.17,0.67c-11.63,2.46-21.03,3.29-24.12,3.56l-4.02,0.35
    l-1.95-15.41c0,0,4.78-0.35,5.04-0.37V4.67h15.1V0.83h15.5v3.85h15.2V29.9l5.88,5.32l-3.78,2.92c-0.94,0.73-1.83,1.39-2.68,1.99
    c0.82,0.19,1.59,0.35,2.33,0.49l5.25,1.03l-7.98,15.25L432.63,55.92z M406.53,38.61c0.03,0,0.05-0.01,0.08-0.01
    c-0.03-0.04-0.05-0.08-0.08-0.12V38.61z"/>
  <path class="st1" d="M390.44,44.06c2.02-0.15,3.16-0.2,4.54-0.3V8.67h15.1V4.83h7.5v3.85h15.2v23l3.65,3.31
    c-4.59,3.55-8.09,5.53-9.52,6.32c4.44,1.92,8.09,2.71,10.86,3.26l-3.95,7.55c-8.24-2.57-14.9-6.07-18.6-9.52v5.38
    c-11.65,2.47-21.02,3.26-23.83,3.5L390.44,44.06z M402.53,15.19v2.62h22.65v-2.62H402.53z M402.53,23.43v2.71h22.65v-2.71H402.53z
     M402.53,32.36v10.71c3.85-0.4,7.75-0.84,11.6-1.53c-3.7-3.65-5.53-7.35-6.42-9.18H402.53z M415.66,32.36
    c0.99,1.53,1.83,2.91,4.74,5.23c2.42-1.28,5.68-3.31,8.14-5.23H415.66z"/>
  <path class="st0" d="M468.76,53.93c-6.84-5.73-13.7-10.12-19.76-14l-0.7-0.45c-5.14-3.25-9.2-5.81-9.2-11.26
    c0-4.23,2.63-6.54,6.99-10.36c8.9-7.85,12.72-11.3,16.42-15.05l2.05-2.08l16.52,8.4l-4.31,3.9c-6.14,5.55-13.42,11.23-17.84,14.52
    c5.47,2.99,16.82,9.33,22.85,14.32l3.9,3.24l-14.49,10.87L468.76,53.93z"/>
  <path class="st1" d="M471.33,50.87c-7.3-6.12-14.56-10.71-20.87-14.75c-4.69-2.96-7.35-4.64-7.35-7.9c0-2.42,1.63-3.85,5.63-7.35
    c9.18-8.09,12.88-11.45,16.63-15.25l8.73,4.44c-7.3,6.61-16.14,13.27-19.34,15.59c-0.84,0.64-1.92,1.43-1.92,2.17
    c0,0.99,0.89,1.43,2.52,2.32c4.64,2.52,17.52,9.52,23.88,14.8L471.33,50.87z"/>
  <path class="st0" d="M507,51.26l-0.76-2.36c-2.86,1.65-6.02,2.66-9.4,2.66c-10.08,0-13.67-7.06-13.67-13.67
    c0-7.33,4.31-12.88,9.38-16.38h-7.51V6.3h9.62V2.45h16.1l-0.15,3.85h21.85v15.21h-3.91c3.98,3.24,6.18,7.89,6.18,13.62
    c0,7.94-4.11,17.67-23.67,18.89l-3.1,0.19L507,51.26z M519,34.56c-0.49,0.97-1.03,1.95-1.62,2.92c0.85-0.6,1.62-1.58,1.62-2.85
    C519,34.61,519,34.58,519,34.56z"/>
  <path class="st1" d="M498.67,6.45h7.94l-0.15,3.85h22.01v7.21h-22.21c-0.05,0.94-0.05,2.17-0.05,3.16c0.94-0.1,2.57-0.3,5.08-0.3
    c11.4,0,19.44,5.03,19.44,14.75c0,13.67-15.2,14.61-19.94,14.9l-2.22-6.86c5.72-0.3,7.45-0.39,10.21-1.88
    c2.42-1.28,4.19-3.75,4.19-6.66c0-0.69,0-5.13-5.58-6.96c-2.22,8.09-10.46,19.89-20.58,19.89c-8.73,0-9.67-6.66-9.67-9.67
    c0-7.8,6.32-12.98,11.55-15.25c-0.1-2.57-0.1-4.05-0.1-5.13h-9.57V10.3h9.62V6.45z M499.26,29.79c-1.08,0.79-4.84,3.4-4.84,7.45
    c0,0.59,0.15,3.6,3.41,3.6c0.49,0,1.88-0.05,3.55-1.04C500.54,37.54,499.85,34.68,499.26,29.79z M511,26.64
    c-1.23-0.05-2.57-0.05-4.64,0.3c0.15,2.47,0.3,4.89,0.84,7.4C509.52,31.13,510.31,28.71,511,26.64z"/>
  <path class="st0" d="M541.45,51.55l-2.77-9.85l-1.35,0.07l-0.4-3.75c-0.14-1.33-0.37-4.09-0.37-5.86c0-1.85,0.09-11.81,1.96-26.46
    L539,1.94l17.46,1.29l-1.36,4.44c1.77-0.58,3.61-0.88,5.5-0.88c5.1,0,10.41,2.45,13.23,6.09c3.54,4.52,4.29,11.05,4.29,15.72
    c0,23.91-19.56,25.08-32.5,25.85l-3.22,0.19L541.45,51.55z M559.32,22.2c-3.88,0-6.71,5.19-6.71,7.89c0,0.77,0.23,5.31,0.34,6.84
    l0.09,1.32c7.92-1.22,8.75-4.21,8.75-10.33C561.78,22.2,561.01,22.2,559.32,22.2z"/>
  <path class="st1" d="M551.17,6.85c-0.54,1.78-1.04,4.59-1.78,9.33c3.01-3.31,6.76-5.38,11.2-5.38c3.85,0,8.04,1.92,10.07,4.54
    c3.21,4.1,3.45,10.71,3.45,13.27c0,20.18-15.59,21.07-28.82,21.86l-2.12-7.55c16.48-0.3,22.6-2.57,22.6-15c0-3.95,0-9.72-6.46-9.72
    c-6.37,0-10.71,7.21-10.71,11.89c0,0.94,0.25,5.63,0.35,7.11l-8.04,0.4c-0.15-1.38-0.35-3.95-0.35-5.43
    c0-1.38,0.05-11.2,1.92-25.96L551.17,6.85z"/>
  <path class="st0" d="M599.54,53.99v1.67h-10.19l-0.01,0.04l-0.06-0.04h-3.51v-2.46l-8.28-5.8l0.86-2.78c0.69-2.23,1.03-3.74,1.27-8
    l-0.05,0l-1.32-14.96h3.57c-0.67-0.66-1.33-1.24-1.99-1.73L577.26,18l6.27-13.95l1.34,1.05c0.22-0.53,0.43-1.06,0.63-1.63
    l1.16-3.34l14.41,3.11l-0.24,0.55h6.41V0.92h15.06v2.86h11.2V18.1h-1.63v2.31h0.64v16.53l1.1,0.34l0.04,2.92
    c0.08,6.6-0.33,10.4-2.8,12.91c-1.4,1.42-3.27,2.14-5.54,2.14h-6.86c-2.93,0-6.01-1.3-7.26-4.7c-1.62,1.7-3.69,3.26-6.33,4.73
    l-3.14,1.76L599.54,53.99z"/>
  <path class="st1" d="M588.53,34.33c-0.1,4.24-0.49,10.76-1.58,14.8l-4.79-3.36c0.99-3.21,1.33-5.33,1.58-11.94L588.53,34.33z
     M601.41,31.47l-3.7,1.09c-0.1-0.59-0.25-1.43-0.3-1.73c-0.3,0.05-1.09,0.15-1.88,0.2v20.63h-5.77V31.72
    c-1.09,0.1-5.82,0.59-6.56,0.64l-0.59-6.71c1.04,0,1.88,0,2.86-0.05c0.79-1.04,1.78-2.42,2.32-3.16c-2.52-3.31-4.59-4.98-5.58-5.72
    l2.86-6.37c0.69,0.54,0.84,0.74,1.13,0.99c1.38-2.57,2.27-4.29,3.06-6.56l6.17,1.33c-1.23,2.81-3.06,6.17-5.23,9.18
    c0.39,0.44,0.69,0.74,1.43,1.58c2.52-3.75,3.6-5.87,4.29-7.25l4.84,2.02V7.79h10.46V4.92h7.06v2.86h11.2v6.32h-11.2v2.42h9.57v5.72
    h-25.71v-5.72h9.08V14.1h-10.46v-0.94c-2.47,4.24-5.43,8.24-8.54,12.09c0.79-0.05,3.26-0.2,3.85-0.25
    c-0.2-0.89-0.59-2.27-0.99-3.01l4.34-1.53c0.59,1.33,1.04,2.27,1.97,5.38v-1.43h27.09v10.31h-6.56v-4.64h-14.26v1.92h5.13
    c-0.2,10.66-1.97,15.35-9.92,19.79l-4.29-6.07c5.38-2.07,7.45-5.18,7.65-11h-4.84V31.47z M600.87,33.45
    c0.79,3.9,1.13,8.64,1.23,10.26l-4.69,0.89c0.05-3.75-0.25-7.25-0.79-10.41L600.87,33.45z M614.59,32.02h6.66v11.35
    c0,1.14,0.2,1.18,0.79,1.18h1.28c0.59,0,0.79-0.25,0.84-0.89c0.1-0.99,0.15-4.69,0.15-5.03l5.33,1.63c0.1,7.85-0.54,11-4.34,11
    h-6.86c-3.85,0-3.85-3.21-3.85-4.29V32.02z"/>
  <path class="st0" d="M648.2,51.82l-13.26,1.79l-0.69-3.75l3.93-0.73l-3.95,0.64c-0.6-3.27-1.73-9.35-1.73-19.68
    c0-7.48,0.53-14.81,1.71-23.77l0.5-3.75l15.9,1.21l-0.75,4.7c-0.15,0.93-0.34,2.15-0.55,3.64h9.6c-0.04-2.08-0.1-4.54-0.15-5.18
    l-0.32-4.3h16.59l-0.14,4.13c-0.03,0.75-0.01,3.2,0.01,5.34h8.13v15.35h-7.85c-0.1,13-3.1,23.01-22.68,26.53l-3,0.54L648.2,51.82z
     M648.25,28.22c0,4.01,0.15,7.5,0.47,10.65c9.18-1.49,10.45-2.68,10.5-11.39h-10.98C648.25,27.72,648.25,27.97,648.25,28.22z"/>
  <path class="st1" d="M645.98,7.44c-0.49,3.11-1.73,10.36-1.73,20.77c0,6.66,0.39,13.37,1.97,19.84l-8.04,1.09
    c-0.59-3.21-1.68-8.98-1.68-19.05c0-7.99,0.64-15.4,1.68-23.24L645.98,7.44z M663,16.13c-0.05-1.48-0.15-8.14-0.25-9.47h8.14
    c-0.05,1.48,0.05,8.14,0.05,9.47h8.09v7.35h-7.89c0.39,15.4-1.53,23.39-19.34,26.6l-3.4-7.11c13.87-2.17,15-5.43,14.8-19.49h-14.66
    v-7.35H663z"/>
  <path class="st0" d="M706.43,53.98c-12.26,0-15.7-6.39-16.66-10.25l-2.89,2.95l-10.07-13.43l3.18-2.4
    c3.17-2.4,4.93-3.86,14.3-11.98l-10.36,0.21V3.34h37.31v12.02l-2.87,2.43c8.19,2.49,12.44,9.87,12.44,17.18
    C730.81,44.16,724.41,53.98,706.43,53.98z M712.06,32.09c0.98,0.88,1.78,1.89,2.41,2.99C714.37,33.5,713.38,32.6,712.06,32.09z"/>
  <path class="st1" d="M717.24,7.34v6.17c-7.45,6.32-7.9,6.71-9.47,7.99c0.79-0.25,1.78-0.59,4.39-0.59
    c10.07,0,14.66,7.45,14.66,14.06c0,8.14-6.17,15-20.38,15c-12.78,0-13.03-7.94-13.03-8.98c0-5.18,5.03-8.09,9.77-8.09
    c5.92,0,8.88,4.1,8.88,8.14c0,0.59-0.05,0.99-0.15,1.68c4.19-1.28,6.56-3.65,6.56-7.4c0-3.01-1.88-7.8-10.21-7.8
    c-7.9,0-11.89,3.75-20.97,13.03l-4.88-6.51c4.05-3.06,5.92-4.69,22.85-19.39l-17.32,0.35V7.34H717.24z M706.33,42.48
    c0-0.35-0.1-3.75-3.55-3.75c-1.88,0-3.16,0.94-3.16,2.42c0,2.52,3.55,2.66,4.69,2.66c0.64,0,1.14-0.05,1.88-0.2
    C706.28,43.17,706.33,42.92,706.33,42.48z"/>
  <path class="st0" d="M732.21,50.52c-0.42-2.24-1.4-7.47-1.4-17.37c0-11.02,1.2-21.58,1.72-26.1l0.47-4.1l16.49,1.08L749.1,6.4
    h29.93v15.75h-31.88c-0.1,1.48-0.17,3.06-0.23,4.74c0.34-0.61,0.71-1.23,1.14-1.87l1.86-2.8l14.44,6.3l-3.28,4.08
    c-0.77,0.96-1.22,1.83-1.35,2.62c0.57,0.18,1.83,0.4,4.5,0.4c4.21,0,8.36-0.21,11.09-0.56l4.43-0.57l0.3,16.13l-3.78,0.39
    c-1.52,0.16-4.36,0.45-9.27,0.45c-4.74,0-13.89,0-19.04-4.81c0.1,0.6,0.21,1.19,0.32,1.77l0.86,4.43l-16.25,1.17L732.21,50.52z"/>
  <path class="st1" d="M744.83,7.74c-0.49,3.01-1.97,11.45-1.97,23.64c0,5.92,0.35,11.99,1.48,17.81l-8.19,0.59
    c-0.44-2.37-1.33-7.35-1.33-16.63c0-11.05,1.23-21.61,1.73-25.96L744.83,7.74z M757.95,30.09c-1.83,2.27-2.27,4.15-2.27,5.58
    c0,3.36,3.75,3.95,8.54,3.95c3.5,0,8.14-0.15,11.6-0.59l0.15,7.99c-1.43,0.15-4.14,0.44-8.98,0.44c-8.09,0-18.8-0.4-18.8-10.36
    c0-1.28,0-5.03,3.21-9.87L757.95,30.09z M775.03,10.4v7.75h-25.36V10.4H775.03z"/>
  <path class="st0" d="M781.29,50.28c-1.01-6.64-1.48-13.57-1.48-21.82c0-6.61,0.21-14.44,1.75-22.38l0.68-3.51l16.17,1.3l-1.03,4.51
    c-0.18,0.77-0.34,1.56-0.49,2.36h8.39v-7.6h15.9v7.6h8.39v15.4h-8.32l0.02,4.49c3.52,1.95,6.78,4.53,8.6,6.39l2.33,2.39
    l-9.74,13.67l-3.33-3.76c-0.17-0.2-0.34-0.38-0.51-0.56c-2.43,3.22-6.7,5.02-12.1,5.02c-3.53,0-6.42-0.71-8.73-1.91l0.08,0.42
    l-16,1.8L781.29,50.28z M795.49,26.15c-0.02,0.99-0.03,2.01-0.03,3.06c0,0.31,0,0.62,0,0.92c2.43-2.02,5.78-3.37,10.01-3.52l0-0.45
    H795.49z"/>
  <path class="st1" d="M793.48,7.49c-1.63,7.11-2.02,14.41-2.02,21.71c0,10.96,1.23,17.22,1.68,19.59l-7.9,0.89
    c-1.08-7.16-1.43-14.21-1.43-21.22c0-7.25,0.3-14.51,1.68-21.61L793.48,7.49z M809.28,14.74v-7.6h7.9v7.6h8.39v7.4h-8.34
    l0.05,10.96c3.85,1.73,7.85,4.79,9.72,6.71l-4.89,6.86c-2.32-2.62-3.95-3.9-5.28-4.93c-0.05,1.38-0.1,2.67-1.08,4.15
    c-2.27,3.55-7.11,3.9-9.23,3.9c-9.08,0-11.79-5.53-11.79-9.62c0-4.98,3.95-9.57,11.55-9.57c1.88,0,2.42,0.15,3.26,0.35l-0.1-8.78
    H795.8v-7.4H809.28z M809.62,37.79c-1.04-0.39-1.88-0.74-3.41-0.74c-3.16,0-4.69,1.58-4.69,3.21c0,1.53,1.28,3.06,4.39,3.06
    c3.7,0,3.7-1.68,3.7-3.11V37.79z"/>
</g>
<g>
  <path class="st0" d="M44.89,120.6l-0.6-3.39l-2.04,1c0,0-1.78-3.95-1.82-4.03h-9.11v3.55H16.71V67.79h24.24v1.78h3.5v-3.7H59.9v3.7
    h9.13v10.21h1.33v14.96h-0.4v10.26h-3.65v6.51c0,8.43-6.88,9.08-8.98,9.08H44.89z"/>
  <path class="st1" d="M20.71,71.79h16.24v38.39h-9.62v3.55h-6.61V71.79z M27.33,78.7v8.88h3.7V78.7H27.33z M27.33,93.75v9.67h3.7
    v-9.67H27.33z M44.6,101.01h-6.02v-7.06h16.33v-3.21H38.13v-6.96h10.31v-3.55h-8.88v-6.66h8.88v-3.7h7.45v3.7h9.13v6.66H55.9v3.55
    h10.46v6.96h-4.05v3.21h3.65v7.06h-3.65v10.51c0,1.38,0,5.08-4.98,5.08h-9.08l-0.94-5.33l-3.11,1.53c-1.58-3.5-3.01-5.87-5.43-9.08
    L44.6,101.01z M53.78,109.3c0.84,0,1.13-0.25,1.13-1.28v-7.01h-9.47c0.59,0.74,2.96,3.7,5.38,8.29H53.78z"/>
  <path class="st0" d="M70.77,115.51c-0.42-2.24-1.4-7.48-1.4-17.37c0-11.01,1.2-21.57,1.72-26.08l0.47-4.12l16.49,1.08l-0.39,2.37
    h29.93v15.75H85.71c-0.1,1.48-0.17,3.06-0.23,4.74c0.34-0.61,0.71-1.23,1.13-1.87l1.86-2.8l14.44,6.3l-3.28,4.08
    c-0.77,0.96-1.22,1.83-1.35,2.62c0.57,0.18,1.83,0.4,4.5,0.4c4.21,0,8.36-0.21,11.09-0.56l4.43-0.57l0.3,16.13l-3.78,0.39
    c-1.52,0.16-4.36,0.45-9.27,0.45c-4.74,0-13.89,0-19.04-4.81c0.1,0.6,0.21,1.19,0.32,1.77l0.86,4.43l-16.25,1.17L70.77,115.51z"/>
  <path class="st1" d="M83.39,72.73c-0.49,3.01-1.97,11.45-1.97,23.64c0,5.92,0.35,11.99,1.48,17.81l-8.19,0.59
    c-0.44-2.37-1.33-7.35-1.33-16.63c0-11.05,1.23-21.61,1.73-25.96L83.39,72.73z M96.51,95.08c-1.83,2.27-2.27,4.15-2.27,5.58
    c0,3.36,3.75,3.95,8.54,3.95c3.5,0,8.14-0.15,11.6-0.59l0.15,7.99c-1.43,0.15-4.15,0.44-8.98,0.44c-8.09,0-18.8-0.4-18.8-10.36
    c0-1.28,0-5.03,3.21-9.87L96.51,95.08z M113.59,75.4v7.75H88.22V75.4H113.59z"/>
  <path class="st0" d="M119.85,115.28c-1.01-6.64-1.48-13.57-1.48-21.82c0-6.61,0.21-14.44,1.75-22.38l0.68-3.51l16.17,1.3
    l-1.03,4.51c-0.18,0.77-0.34,1.56-0.49,2.36h8.39v-7.6h15.9v7.6h8.39v15.4h-8.32l0.02,4.49c3.52,1.95,6.78,4.53,8.6,6.39l2.33,2.39
    l-9.74,13.67l-3.33-3.76c-0.17-0.19-0.34-0.38-0.51-0.56c-2.43,3.22-6.7,5.02-12.09,5.02c-3.52,0-6.42-0.71-8.73-1.91l0.08,0.42
    l-16,1.8L119.85,115.28z M134.05,91.14c-0.02,0.99-0.03,2.01-0.03,3.06c0,0.31,0,0.62,0,0.92c2.43-2.02,5.78-3.37,10.01-3.52
    l-0.01-0.45H134.05z"/>
  <path class="st1" d="M132.05,72.48c-1.63,7.11-2.02,14.41-2.02,21.71c0,10.96,1.23,17.22,1.68,19.59l-7.9,0.89
    c-1.09-7.16-1.43-14.21-1.43-21.22c0-7.25,0.3-14.51,1.68-21.61L132.05,72.48z M147.84,79.74v-7.6h7.9v7.6h8.39v7.4h-8.34
    l0.05,10.96c3.85,1.73,7.85,4.79,9.72,6.71l-4.89,6.86c-2.32-2.62-3.95-3.9-5.28-4.93c-0.05,1.38-0.1,2.67-1.09,4.15
    c-2.27,3.55-7.11,3.9-9.23,3.9c-9.08,0-11.79-5.53-11.79-9.62c0-4.98,3.95-9.57,11.55-9.57c1.88,0,2.42,0.15,3.26,0.35l-0.1-8.78
    h-13.62v-7.4H147.84z M148.18,102.78c-1.04-0.39-1.88-0.74-3.4-0.74c-3.16,0-4.69,1.58-4.69,3.21c0,1.53,1.28,3.06,4.39,3.06
    c3.7,0,3.7-1.68,3.7-3.11V102.78z"/>
</g>
<g>
  <path class="st0" d="M189.9,85.12c-2.83,0-5.33-1.42-6.76-3.57c-1.92,2.49-3.85,3.5-6.73,3.5c-4.49,0-8.14-3.48-8.14-7.76
    c0-1.54,0.51-3.15,1.51-4.78c7.6-11.79,9.35-13.55,13.45-13.55c2.62,0,4.93,1.31,6.24,3.27c0.1-0.13,0.19-0.25,0.29-0.37
    c1.4-1.82,3.56-2.89,5.89-2.89c4.13,0,7.37,3.1,7.37,7.07c0,1.05-0.21,2.04-0.63,3.03C196.96,82.03,195.66,85.12,189.9,85.12z"/>
  <path class="st2" d="M172.27,77.29c0-0.77,0.31-1.69,0.92-2.68c7.51-11.65,8.35-11.65,10.04-11.65c1.69,0,3.37,1.23,3.37,2.99
    c0,0.54-0.15,1-0.38,1.53c-6.13,12.65-7.05,13.57-9.81,13.57C174.26,81.04,172.27,79.51,172.27,77.29z M185.84,77.29
    c0-0.77,0.31-1.69,0.84-2.68c1.76-2.99,4.45-8.05,6.21-10.27c0.77-1,1.84-1.38,2.76-1.38c1.76,0,3.37,1.23,3.37,3.07
    c0,0.46-0.08,0.92-0.31,1.46c-5.14,12.26-5.75,13.64-8.81,13.64C187.83,81.12,185.84,79.59,185.84,77.29z"/>
  <path class="st0" d="M245.24,129.5c-4.36,0-14.58,0-14.58-8.45c0-4.26,3.41-7.6,7.76-7.6c0.33,0,1,0,1.71,0.15
    c2.01,0.35,3.78,0.54,5.26,0.54c3.89,0,3.89-1.01,3.89-1.44c0-3.39,0.03-9.74,0.06-16.76c0.03-7.04,0.07-14.75,0.08-20.85h-11.4
    c5.58,0.87,9.37,4.64,9.67,9.8c0.15,2.63,0.24,5.57,0.24,8.51c0,2.29-0.08,4.51-0.24,6.59c-0.58,6.31-5.31,10.72-11.76,11.05
    c-2.44,0.08-4.77,0.16-7.1,0.16c-2.4,0-4.66-0.07-6.96-0.16c-6.73-0.36-11.53-4.94-11.75-11.14c-0.08-2.3-0.08-4.68-0.08-7.19
    c0-2.41,0-4.9,0.08-7.26c0.23-5.38,3.93-9.43,9.19-10.35h-10.1c-4.29,0-7.53-3.2-7.53-7.45s3.24-7.45,7.53-7.45H268
    c4.38,0,7.68,3.2,7.68,7.45s-3.3,7.45-7.68,7.45h-3.05c0,9.65,0.01,23.38,0.08,27.82l0.15,11.02
    C265.18,121.11,259.96,129.5,245.24,129.5z M225.28,96.43c1.23,0.08,3.04,0.08,4.17,0.08c1.46,0,2.44-0.03,3.09-0.08
    c0.03-0.83,0.03-1.76,0.03-2.67c0-1.52-0.04-3.06-0.09-4.46c-1.16-0.04-2.67-0.04-3.65-0.04c-1.24,0-2.52,0-3.55,0.03
    c-0.04,0.96-0.04,2.31-0.04,3.64C225.25,94.14,225.25,95.3,225.28,96.43z"/>
  <path class="st2" d="M261.18,113.77c0,0.08,0,0.08,0,0.15c0,5.37-3.83,11.57-15.94,11.57c-7.51,0-10.58-1.15-10.58-4.45
    c0-1.84,1.38-3.6,3.76-3.6c0.23,0,0.61,0,0.92,0.08c2.15,0.38,4.22,0.61,6.06,0.61c4.68,0,7.89-1.46,7.89-5.44
    c0-7.59,0.15-29.97,0.15-41.62h-44.22c-2.38,0-3.53-1.76-3.53-3.45c0-1.76,1.15-3.45,3.53-3.45H268c2.45,0,3.68,1.76,3.68,3.45
    c0,1.76-1.23,3.45-3.68,3.45h-7.05c0,9.2,0,26.75,0.08,31.88L261.18,113.77z M235.73,107.03c-2.22,0.08-4.6,0.15-6.9,0.15
    c-2.38,0-4.68-0.08-6.82-0.15c-4.29-0.23-7.74-2.99-7.89-7.28c-0.08-2.22-0.08-4.6-0.08-7.05c0-2.38,0-4.83,0.08-7.13
    c0.15-3.53,2.61-6.44,6.98-6.67c1.92-0.08,4.22-0.15,6.59-0.15c2.91,0,5.9,0.08,8.35,0.15c3.91,0.15,7.43,2.22,7.66,6.21
    c0.15,2.61,0.23,5.44,0.23,8.28c0,2.15-0.08,4.29-0.23,6.29C243.32,103.81,240.33,106.8,235.73,107.03z M236.58,93.77
    c0-2.15-0.08-4.29-0.15-6.13c-0.08-2.22-0.77-2.38-7.59-2.38c-1.76,0-3.53,0-4.75,0.08c-2.84,0.15-2.84,1.46-2.84,7.59
    c0,1.69,0,3.37,0.08,4.98c0.08,2.45,1.84,2.61,8.12,2.61c6.21,0,6.82-0.54,6.97-2.38C236.58,96.83,236.58,95.3,236.58,93.77z"/>
  <path class="st0" d="M285.17,129.88c-3.44,0-6.33-2.36-7.14-5.55c-0.38,0.07-0.73,0.11-1.06,0.11c-4.01,0-7.14-3.1-7.14-7.07
    c0-2.87,1.76-5.44,4.58-6.71c6.17-2.74,11.76-6.72,17.38-12.4c-0.22-0.25-0.42-0.52-0.61-0.8c-2.82,3.23-6.5,5.75-10.07,5.75
    c-4.22,0-7.53-3.14-7.53-7.14c0-1.09,0.26-2.15,0.76-3.12c-3.9-1.9-3.9-6.86-3.9-8.99c0-3.11,0-12.01,9.08-13.69
    c-2.28-1.37-3.56-3.79-3.56-6.16c0-3.31,2.58-6.84,7.37-6.84c14.87-0.19,28.32-1.22,39.94-3.07c0.69-0.15,1.28-0.15,1.68-0.15
    c4.2,0,7.37,3.07,7.37,7.14c0,3.84-2.01,5.51-4.52,6.36c-0.11,0.75-0.33,1.57-0.6,2.4c0.42,0.01,0.83,0.03,1.25,0.04
    c7.24,0.13,12.49,4.54,12.75,10.72c0.08,1,0.08,2.14,0.08,3.24c0,4.94-1.71,7.43-3.89,8.6c0.09,0.42,0.14,0.82,0.14,1.21
    c0,4.25-3.52,7.83-7.68,7.83c-2.67,0-5.01-1.45-6.41-3.97c-0.29-0.52-0.62-1.05-0.97-1.57c-0.37,0.71-0.79,1.34-1.28,1.9
    c3.72,1.49,5.46,4.76,5.46,7.85c0,2.59-0.89,4.64-3.61,7.34c2.88,0.36,6,0.54,9.34,0.54h1.92c4.08,0,7.22,3.17,7.22,7.22
    c0,3.54-1.78,7.76-10.29,7.76c-8.76,0-16.96-1.62-23.87-4.69C297.17,128.8,287.21,129.88,285.17,129.88z"/>
  <path class="st2" d="M334.38,117.68c1.99,0,3.14,1.53,3.14,3.22c0,3.68-3.68,3.76-6.29,3.76c-9.27,0-17.48-1.92-23.91-5.13
    c-10.35,5.36-20.77,6.36-22.15,6.36c-2.15,0-3.37-1.76-3.37-3.37c0-1.53,1-2.99,3.3-3.07c5.75-0.23,11.19-1.76,15.87-3.83
    c-2.45-1.92-4.45-3.99-5.9-6.28c-5.75,4.98-15.48,11.11-18.09,11.11c-1.92,0-3.14-1.46-3.14-3.07c0-1.15,0.69-2.38,2.22-3.07
    c6.9-3.07,13.72-7.82,21.08-15.87c0.38-0.38,0.69-0.69,1.15-0.92c-3.68-0.84-4.98-3.22-4.98-7.36c0-0.54-0.08-1.99-0.08-3.6
    c0-3.14,0.23-5.21,3.3-5.21c1.69,0,3.37,1,3.37,2.68c0,2.07-0.08,4.6-0.08,5.44c0.08,1.99,0.61,2.76,5.67,2.76
    c6.59,0,7.97-0.46,7.97-3.91c0-1.84,1.38-2.68,2.91-2.68c1.76,0,3.6,1.07,3.6,2.84c0,8.35-3.6,9.58-14.56,9.58
    c-1,0-1.92,0-2.84-0.08c0.61,0.46,1,1.23,1,1.99c0,0.46-0.08,0.92-0.38,1.38c4.6-0.08,12.03-0.23,13.34-0.23
    c4.14,0,6.13,2.22,6.13,4.68c0,1.92-0.69,3.68-8.58,9.58c4.91,1.46,10.88,2.3,18.32,2.3c0.61,0,1.3,0,1.92,0H334.38z M281.73,86.56
    c0,2.07-1.84,3.14-3.68,3.14c-3.53,0-3.6-2.53-3.6-5.75c0-4.29,0.23-9.89,8.12-9.96c2.22,0,4.52-0.15,6.9-0.15
    c-0.77-1.84-1.53-2.76-1.99-3.53c-0.23-0.38-0.31-0.77-0.31-1.15c0-0.77,0.46-1.46,1.23-1.92c-1.61,0.08-3.07,0.08-4.45,0.15
    c-0.08,0-0.15,0-0.15,0c-2.45,0-3.83-1.69-3.83-3.3c0-1.46,1.07-2.84,3.37-2.84c12.34-0.15,26.83-0.92,40.7-3.14
    c0.31-0.08,0.61-0.08,0.92-0.08c2.3,0,3.37,1.61,3.37,3.14c0,2.53-1.53,2.76-5.59,3.3c0.69,0.54,1.15,1.23,1.15,2.15
    c0,1.53-1.92,5.75-2.76,7.2c2.45,0,4.91,0.08,7.2,0.15c4.14,0.08,8.74,2.07,8.89,6.97c0.08,0.84,0.08,1.92,0.08,2.99
    c0,2.91-0.31,5.52-3.99,5.52c-1.84,0-3.6-1.07-3.6-3.07c0-0.08,0-0.08,0-0.15c0-5.37,0-6.36-4.06-6.44
    c-5.29-0.08-12.42-0.15-19.47-0.15c1.99,1.15,6.06,4.52,6.06,6.9c0,1.92-1.69,3.53-3.3,3.53c-0.84,0-1.61-0.38-2.15-1.3
    c-1.46-2.38-3.6-4.37-4.52-5.21c-0.54-0.46-0.77-1-0.77-1.53c0-0.92,0.69-1.84,1.69-2.38c-6.36,0-12.57,0.08-17.09,0.15
    c-4.14,0.08-4.29,1.38-4.37,3.3c0,0,0,0,0,3.37V86.56z M277.59,96.07c0-1.15,0.69-2.3,2.3-3.22c1.84-1,5.14-4.22,5.98-6.82
    c0.54-1.53,1.69-2.15,2.84-2.15c1.76,0,3.45,1.3,3.45,3.14c0,3.53-6.21,12.19-11.04,12.19C279.04,99.21,277.59,97.75,277.59,96.07z
     M292.53,67.32c0.61,0.61,3.6,4.06,3.6,5.98c0,0.15-0.08,0.38-0.08,0.54c2.22,0,4.45-0.08,6.67-0.08
    c-0.69-2.45-1.53-3.76-1.99-4.68c-0.15-0.38-0.23-0.69-0.23-1c0-0.61,0.31-1.23,0.84-1.61c-3.14,0.23-6.21,0.38-9.12,0.54
    L292.53,67.32z M313.15,107.03c0-0.31-0.38-0.46-0.69-0.46c-0.15,0-0.23,0-0.31,0c-0.38,0.08-6.9,0.15-11.5,0.15
    c1.69,2.15,3.83,3.99,6.51,5.59C310.93,109.86,313.15,107.64,313.15,107.03z M314.45,73.3c1.15-2.07,2.22-4.75,2.76-7.74
    c0-0.15,0.08-0.31,0.15-0.46c-3.76,0.38-7.82,0.77-11.73,1.07c0.23,0.08,3.45,3.83,3.45,6.67c0,0.31,0,0.61-0.15,0.92
    c1.76,0,3.6,0.08,5.37,0.08C314.38,73.69,314.38,73.46,314.45,73.3z M326.95,95.68c-1.69-2.99-4.06-5.75-6.21-7.59
    c-0.84-0.77-1.23-1.53-1.23-2.3c0-1.53,1.53-2.76,3.3-2.76c2.68,0,10.73,7.43,10.73,10.73c0,2.15-1.84,3.83-3.68,3.83
    C328.79,97.6,327.71,97.06,326.95,95.68z"/>
  <path class="st0" d="M379.19,128.54c-2.89,0-5.42-1.61-6.77-4.32c-4.27-8.39-10.59-18.09-15.72-24.1
    c-6.56-7.65-6.19-15.36,1.08-22.92c1.06-1.11,2.15-2.23,3.26-3.36c4.24-4.34,8.61-8.83,12.12-13.56c1.67-2.21,3.99-3.41,6.56-3.41
    c3.21,0,6.31,1.98,7.71,4.92c1.36,2.84,0.94,6.06-1.12,8.6c-2.59,3.16-6.74,6.93-10.74,10.57c-2.33,2.11-4.52,4.11-6.24,5.83
    c-1.42,1.42-1.49,1.98-1.49,1.98l0,0c0,0,0.05,0.41,0.86,1.42c1.38,1.73,2.72,3.37,4.01,4.96c5.98,7.34,11.15,13.69,14.44,20.87
    c1.27,2.75,1.07,5.79-0.55,8.32C384.95,126.93,382.11,128.54,379.19,128.54z"/>
  <path class="st2" d="M376,122.43c-4.45-8.74-10.96-18.7-16.25-24.91c-5.06-5.9-5.06-11.34,0.92-17.55
    c5.21-5.44,11.11-11.11,15.71-17.32c3.53-4.68,10.42,0.77,6.82,5.21c-3.83,4.68-11.96,11.34-16.71,16.1
    c-3.3,3.3-3.45,5.6-0.92,8.74c7.66,9.58,14.18,16.79,17.93,24.99C385.89,122.82,378.46,127.34,376,122.43z"/>
  <path class="st0" d="M420.16,85.5c-2.62,0-4.93-1.31-6.24-3.27c-0.1,0.13-0.19,0.25-0.29,0.37c-1.4,1.82-3.56,2.89-5.89,2.89
    c-4.13,0-7.37-3.1-7.37-7.07c0-1.05,0.21-2.04,0.63-3.03c5.44-12.98,6.73-16.07,12.49-16.07c2.83,0,5.33,1.42,6.76,3.58
    c1.92-2.49,3.85-3.5,6.73-3.5c4.49,0,8.14,3.48,8.14,7.76c0,1.54-0.51,3.15-1.51,4.78C426,83.74,424.25,85.5,420.16,85.5z"/>
  <path class="st2" d="M407.74,81.5c-1.76,0-3.37-1.23-3.37-3.07c0-0.46,0.08-0.92,0.31-1.46c5.14-12.26,5.75-13.64,8.81-13.64
    c2.07,0,4.06,1.53,4.06,3.83c0,0.77-0.31,1.69-0.84,2.68c-1.76,2.99-4.45,8.05-6.21,10.27C409.73,81.12,408.66,81.5,407.74,81.5z
     M416.78,78.51c0-0.54,0.15-1,0.38-1.53c6.13-12.65,7.05-13.57,9.81-13.57c2.15,0,4.14,1.53,4.14,3.76c0,0.77-0.31,1.69-0.92,2.68
    c-7.51,11.65-8.35,11.65-10.04,11.65S416.78,80.28,416.78,78.51z"/>
</g>
<g>
  <path class="st0" d="M452.49,118.99c-6.83,0-11.36-2.57-13.86-6.14l-0.59,1.66l-16.37-4.56l2.11-4.32
    c1.56-3.18,4.21-10.38,6.06-17.53h-5.58V72.6h8.36c0.06-0.67,0.1-1.26,0.14-1.91l0.23-3.9l16.75,0.6l-0.87,5.21h7.87v0.48
    c2.63-0.43,6.79-0.93,14.33-1.16l3.8-0.12l1.39,16.88l-5.43-0.46c-0.93-0.08-1.89-0.17-2.94-0.17c-0.15,0-0.31,0-0.46,0.01
    l0.16,7.23c5.01,2.97,6.74,4.56,7.92,5.65l2.37,2.18l-1.56,2.84l-7.11,12.14l-3.66-3.94c-0.17-0.18-0.34-0.36-0.53-0.55
    C462.64,117.02,458.25,118.99,452.49,118.99z M446.13,88.1c-0.33,1.39-0.69,2.84-1.09,4.32c1.9-0.76,4.12-1.23,6.69-1.34
    l-0.08-2.98H446.13z"/>
  <path class="st1" d="M445.04,71.22c-0.15,0.89-0.79,4.64-0.89,5.38h8.59v7.5h-9.82c-1.53,7.5-4.79,18.21-7.4,25.56l-8.14-2.27
    c2.22-4.54,5.82-14.95,7.5-23.29h-6.61v-7.5h7.89c0.39-2.71,0.49-4,0.59-5.67L445.04,71.22z M471.88,84.3
    c-1.18-0.1-2.47-0.25-4-0.25c-1.78,0-3.31,0.2-4.54,0.35l0.3,13.23c6.27,3.55,7.99,5.18,9.23,6.32l-4.39,7.5
    c-1.33-1.43-3.26-3.21-5.43-5.18l-0.05,1.04c-0.25,5.58-5.03,7.7-10.51,7.7c-8.24,0-12.24-4.39-12.24-9.82
    c0-4.34,2.91-10.12,12.63-10.12c1.23,0,2.07,0.05,2.96,0.15l-0.49-17.81c2.32-0.44,6.22-1.18,15.84-1.48L471.88,84.3z
     M456.04,102.26c-0.94-0.35-1.88-0.69-3.55-0.69c-0.69,0-5.28,0.05-5.28,3.4c0,1.04,0.54,3.36,4.74,3.36c4.05,0,4.1-2.07,4.1-3.31
    V102.26z"/>
  <path class="st0" d="M491.58,116.79l-13.26,1.79l-0.69-3.75l3.93-0.73l-3.95,0.64c-0.6-3.27-1.73-9.35-1.73-19.68
    c0-7.48,0.53-14.81,1.71-23.77l0.5-3.75l15.9,1.21l-0.75,4.7c-0.15,0.93-0.34,2.15-0.55,3.64h9.6c-0.04-2.08-0.1-4.54-0.15-5.18
    l-0.32-4.3h16.59l-0.14,4.13c-0.03,0.75-0.01,3.2,0.01,5.34h8.13v15.35h-7.85c-0.1,13-3.1,23.01-22.68,26.53l-3,0.54L491.58,116.79
    z M491.63,93.18c0,4.01,0.15,7.5,0.47,10.65c9.18-1.49,10.45-2.68,10.5-11.39h-10.98C491.63,92.69,491.63,92.93,491.63,93.18z"/>
  <path class="st1" d="M489.36,72.4c-0.49,3.11-1.73,10.36-1.73,20.77c0,6.66,0.39,13.37,1.97,19.84l-8.04,1.09
    c-0.59-3.21-1.68-8.98-1.68-19.05c0-7.99,0.64-15.4,1.68-23.24L489.36,72.4z M506.38,81.09c-0.05-1.48-0.15-8.14-0.25-9.47h8.14
    c-0.05,1.48,0.05,8.14,0.05,9.47h8.09v7.35h-7.89c0.39,15.4-1.53,23.39-19.34,26.6l-3.4-7.11c13.87-2.17,15-5.43,14.8-19.49h-14.66
    v-7.35H506.38z"/>
  <path class="st0" d="M533.82,118.79v-4c0-0.43,0-1.15,0.01-2.05l-2.81,3.17l-7.77-16.44l2.55-1.97c3.11-2.39,5.64-5.41,7.17-7.43
    l-7.25,0.09v-15.5h8.27c0-0.3,0.02-2.93,0.02-3.06l0-4l16.09,0v4c0,0.11-0.01,0.67-0.03,1.48c2.96-1.48,5.89-2.22,8.76-2.22
    c3.66,0,6.63,1.13,8.82,3.36c3.77,3.84,3.66,9.54,3.62,11.69l-0.4,14.13c-0.02,0.63-0.01,1.08,0,1.4c0.92,0.1,2.42,0.13,3.79,0.16
    l5.23,0.11l-4.7,15.9l-3.16-0.18c-5.55-0.31-12.46-0.7-15.7-6.81c-2.08-4-1.79-9.82-1.79-9.88c0,0,0.55-13.34,0.55-13.44
    c-1.26,0.51-3.21,1.65-5.47,4.19c-0.05,2.2-0.12,5.39-0.12,9.56c0,6.53,0.14,10.36,0.29,13.53l0.2,4.19H533.82z"/>
  <path class="st1" d="M546.11,71.61c0,0.39-0.2,8.19-0.25,9.18c2.27-1.97,7.3-5.92,12.98-5.92c8.73,0,8.49,8.44,8.44,11.05
    l-0.39,14.01c-0.15,5.48,0.94,5.53,7.7,5.67l-2.32,7.85c-5.28-0.3-10.21-0.59-12.39-4.69c-1.33-2.57-1.38-6.86-1.33-7.8l0.54-13.18
    c0.1-2.76-0.05-4.89-2.47-4.89c-0.64,0-5.43,0.2-10.96,7.11c-0.05,2.27-0.15,5.87-0.15,11.05c0,6.71,0.15,10.61,0.3,13.72h-7.99
    c0-2.17,0.1-11.74,0.1-13.67c-1.58,2.71-1.63,2.81-5.87,7.6l-3.8-8.04c5.58-4.29,9.42-10.26,9.72-10.76v-3.9l-8.24,0.1v-7.45h8.24
    c0-0.79,0.05-6.76,0.05-7.06H546.11z"/>
  <path class="st0" d="M616.09,115.14c-0.17-0.21-0.47-0.57-0.86-1.02c-2.48,2.69-6.61,4.62-12.22,4.62c-3.02,0-5.59-0.66-7.7-1.76
    l0.1,0.46l-16.27,1.61l-0.52-3.82l3.96-0.54l-3.97,0.51c-0.47-3.43-1.56-11.47-1.56-22.96c0-7.98,0.52-15.07,1.54-21.1l0.62-3.63
    l16.33,1.39l-0.94,4.43c-0.15,0.72-0.36,1.71-0.59,3.02h8.11l-0.4-7.98l6.06,0.05l-0.49-1.13l12.2-2.32l0.37,0.87l5.58-1.26
    l1.43,2.71c1.19,2.25,2.44,6.04,2.79,8.44l0.53,3.62l-3.4,0.81V91.8h-8.51l0.08,4c2.17,1.26,5.25,3.33,8.92,6.97l2.48,2.46
    l-10.46,13.88L616.09,115.14z M592.75,93.33c0,0.71,0,1.39,0.01,2.06c2.09-1.83,4.89-3.15,8.38-3.58h-8.39
    C592.75,92.3,592.75,92.81,592.75,93.33z"/>
  <path class="st1" d="M590.67,72.5c-0.69,3.26-1.92,9.57-1.92,20.82c0,11.3,1.23,17.77,1.83,20.58l-7.99,0.79
    c-0.44-3.26-1.53-11.2-1.53-22.45c0-10.61,0.94-17.22,1.48-20.43L590.67,72.5z M606.31,80.35l-0.39-7.94l6.17,0.05
    c0.44,1.38,0.99,3.65,1.28,5.87l0.54-0.05l0.1,2.07h8.78v7.45h-8.59l0.2,10.41c1.73,0.89,5.33,2.71,10.07,7.4l-5.28,7.01
    c-0.64-0.79-3.7-4.34-5.18-5.77c0,0.25-0.05,0.69-0.05,0.94c-0.2,3.26-3.8,6.96-10.96,6.96c-7.06,0-10.76-4.64-10.76-9.43
    c0-4.54,3.46-9.67,11.45-9.67c1.38,0,2.27,0.15,3.06,0.3l-0.25-8.14h-13.27v-7.45H606.31z M606.86,102.46
    c-1.04-0.44-2.27-0.74-3.5-0.74c-3.01,0-4.89,1.28-4.89,3.5c0,2.91,3.06,3.26,4.49,3.26c4,0,3.9-2.57,3.9-3.6V102.46z M614.8,77.44
    c-0.39-2.32-0.99-5.08-1.88-7.16l4.15-0.79c0.99,2.32,1.28,3.65,2.07,7.06L614.8,77.44z M621.37,77.34
    c-0.94-4.29-1.63-5.97-2.17-7.25l4.14-0.94c0.94,1.78,2.07,5.13,2.37,7.16L621.37,77.34z"/>
  <path class="st0" d="M656.21,118.99c-6.83,0-11.36-2.57-13.86-6.14l-0.59,1.66l-16.37-4.56l2.11-4.32
    c1.56-3.19,4.21-10.38,6.06-17.53h-5.58V72.6h8.36c0.06-0.67,0.1-1.26,0.14-1.91l0.23-3.9l16.75,0.6l-0.87,5.21h7.87v0.48
    c2.63-0.43,6.79-0.93,14.33-1.16l3.8-0.12l1.39,16.88l-5.43-0.46c-0.93-0.08-1.89-0.17-2.94-0.17c-0.15,0-0.31,0-0.46,0.01
    l0.16,7.23c5.01,2.97,6.74,4.56,7.92,5.65l2.37,2.18l-1.56,2.84l-7.11,12.14l-3.66-3.94c-0.17-0.18-0.34-0.36-0.53-0.55
    C666.36,117.02,661.97,118.99,656.21,118.99z M649.85,88.1c-0.33,1.39-0.69,2.84-1.09,4.32c1.9-0.76,4.12-1.23,6.69-1.34
    l-0.08-2.98H649.85z"/>
  <path class="st1" d="M648.76,71.22c-0.15,0.89-0.79,4.64-0.89,5.38h8.59v7.5h-9.82c-1.53,7.5-4.79,18.21-7.4,25.56l-8.14-2.27
    c2.22-4.54,5.82-14.95,7.5-23.29h-6.61v-7.5h7.9c0.4-2.71,0.49-4,0.59-5.67L648.76,71.22z M675.6,84.3c-1.18-0.1-2.47-0.25-4-0.25
    c-1.78,0-3.31,0.2-4.54,0.35l0.3,13.23c6.27,3.55,7.99,5.18,9.23,6.32l-4.39,7.5c-1.33-1.43-3.26-3.21-5.43-5.18l-0.05,1.04
    c-0.25,5.58-5.03,7.7-10.51,7.7c-8.24,0-12.24-4.39-12.24-9.82c0-4.34,2.91-10.12,12.63-10.12c1.23,0,2.07,0.05,2.96,0.15
    l-0.49-17.81c2.32-0.44,6.22-1.18,15.84-1.48L675.6,84.3z M659.76,102.26c-0.94-0.35-1.88-0.69-3.55-0.69
    c-0.69,0-5.28,0.05-5.28,3.4c0,1.04,0.54,3.36,4.74,3.36c4.05,0,4.1-2.07,4.1-3.31V102.26z"/>
  <path class="st0" d="M693.52,118.79c-4.5,0-5.63-0.05-7.75-0.15l-3.14-0.16l-3.07-16.09l1.27,0.12l0.01-2.2
    c0.05-13.45,0.87-18.86,1.22-21.18l0.55-3.64l3.68,0.21l2.11,0.14l1.65-9l3.39,0.06c8.64,0.15,16.59,1.25,23.63,3.26l3.63,1.04
    l-3.08,13.74c5.21,2.79,8.42,7.99,8.42,14.48c0,7.2-3.42,12.73-9.89,16C712.9,117.07,708.23,118.79,693.52,118.79z M696.63,103.49
    c12.97-0.11,12.97-3.21,12.97-4.24c0-1.41-1.88-1.63-3.01-1.63c-3.56,0-7.38,1.29-9.96,3.31V103.49z M697.62,82.67
    c-0.1,0.59-0.19,1.19-0.27,1.78c1.64-0.53,3.23-0.91,4.66-1.17C700.52,83.05,699.03,82.84,697.62,82.67z"/>
  <path class="st1" d="M694.01,80.25c-0.74,3.5-1.14,7.75-1.23,10.71c6.66-4.24,14.46-4.24,15.3-4.24c9.03,0,13.96,5.82,13.96,12.73
    c0,6.61-3.5,10.31-7.7,12.44c-2.37,1.18-6.32,2.91-20.82,2.91c-4.54,0-5.58-0.05-7.55-0.15l-1.48-7.75
    c5.03,0.49,8.73,0.59,11.4,0.59c14.06,0,17.71-3.36,17.71-8.24c0-5.33-5.82-5.63-7.01-5.63c-4.93,0-10.51,1.97-13.96,5.53v1.43
    l-7.8-0.25c0.05-13.23,0.84-18.36,1.18-20.63L694.01,80.25z M714.14,82.17c-6.02-2.42-17.22-3.8-22.11-4l1.33-7.25
    c2.76,0.05,12.58,0.25,22.6,3.11L714.14,82.17z"/>
  <path class="st0" d="M753.92,118.99c-6.83,0-11.36-2.57-13.86-6.14l-0.59,1.66l-16.37-4.56l2.11-4.32
    c1.56-3.19,4.21-10.38,6.06-17.53h-5.58V72.6h8.36c0.06-0.67,0.1-1.26,0.14-1.91l0.23-3.9l16.75,0.6l-0.87,5.21h7.87v0.48
    c2.63-0.43,6.79-0.93,14.33-1.16l3.8-0.12l1.39,16.88l-5.43-0.46c-0.93-0.08-1.89-0.17-2.94-0.17c-0.15,0-0.31,0-0.46,0.01
    l0.16,7.23c5.01,2.97,6.74,4.56,7.92,5.65l2.37,2.18l-1.56,2.84l-7.11,12.14l-3.66-3.94c-0.17-0.18-0.34-0.36-0.53-0.55
    C764.07,117.02,759.68,118.99,753.92,118.99z M747.56,88.1c-0.33,1.39-0.69,2.84-1.09,4.32c1.9-0.76,4.12-1.23,6.69-1.34
    l-0.08-2.98H747.56z"/>
  <path class="st1" d="M746.47,71.22c-0.15,0.89-0.79,4.64-0.89,5.38h8.59v7.5h-9.82c-1.53,7.5-4.79,18.21-7.4,25.56l-8.14-2.27
    c2.22-4.54,5.82-14.95,7.5-23.29h-6.61v-7.5h7.9c0.4-2.71,0.49-4,0.59-5.67L746.47,71.22z M773.31,84.3c-1.18-0.1-2.47-0.25-4-0.25
    c-1.78,0-3.31,0.2-4.54,0.35l0.3,13.23c6.27,3.55,7.99,5.18,9.23,6.32l-4.39,7.5c-1.33-1.43-3.26-3.21-5.43-5.18l-0.05,1.04
    c-0.25,5.58-5.03,7.7-10.51,7.7c-8.24,0-12.24-4.39-12.24-9.82c0-4.34,2.91-10.12,12.63-10.12c1.23,0,2.07,0.05,2.96,0.15
    l-0.49-17.81c2.32-0.44,6.22-1.18,15.84-1.48L773.31,84.3z M757.47,102.26c-0.94-0.35-1.88-0.69-3.55-0.69
    c-0.69,0-5.28,0.05-5.28,3.4c0,1.04,0.54,3.36,4.74,3.36c4.05,0,4.1-2.07,4.1-3.31V102.26z"/>
  <path class="st0" d="M792.02,117.81c-5.83,0-15.6-3.79-15.6-29.17c0-5.13,0.53-11.17,0.88-15.16l0.37-4.28l16.62,1.48l-0.7,4.25
    c-0.97,5.85-1.38,10.17-1.38,14.45c0,4.53,0.36,7.52,0.75,9.38c0.5-1.02,1.12-2.48,1.83-4.55l1.58-4.63l13.46,7.87l-1.05,3.09
    C804.88,112,799.24,117.81,792.02,117.81z M811.51,108.72c0.05-1.01,0.09-1.97,0.09-3.35c0-15.76-5.08-21.75-7.26-23.59l-4.08-3.44
    l13.5-8.97l2.31,2.34c4.61,4.66,12.33,12.47,11.96,36.78l-0.06,3.72l-16.7,0.97L811.51,108.72z"/>
  <path class="st1" d="M789.65,74.28c-0.84,5.08-1.43,9.97-1.43,15.1c0,4.49,0.35,15.35,4.29,15.35c2.52,0,4.69-5.18,6.07-9.23
    l6.42,3.75c-1.48,4.34-5.33,14.56-12.98,14.56c-10.41,0-11.6-16.93-11.6-25.17c0-5.08,0.54-11.15,0.89-15.1L789.65,74.28z
     M815.51,108.92c0.05-0.99,0.1-2.02,0.1-3.55c0-16.83-5.53-23.98-8.68-26.65l6.32-4.19c4.44,4.49,11.15,11.35,10.81,33.9
    L815.51,108.92z"/>
</g>
</svg>
