<!-- Generator: Adobe Illustrator 24.0.1, SVG Export Plug-In  -->
<svg version="1.1" xmlns="http://www.w3.org/2000/svg" xmlns:xlink="http://www.w3.org/1999/xlink" x="0px" y="0px" width="40.9px"
   height="66.4px" viewBox="0 0 40.9 66.4" style="enable-background:new 0 0 40.9 66.4;" xml:space="preserve">
<defs>
</defs>
<path d="M2.3,64.1c-3-3-3-7.9,0-10.9l0,0l20-20l-20-20v0c-3-3-3-7.9,0-10.9l0,0c3-3,7.9-3,10.9,0l0,0l25.4,25.4
  c1.4,1.4,2.3,3.4,2.3,5.5l0,0c0,2-0.8,4-2.3,5.5l0,0L13.2,64.1c-1.5,1.5-3.5,2.3-5.5,2.3l0,0C5.8,66.4,3.8,65.6,2.3,64.1L2.3,64.1z"
  />
</svg>
