<!-- Generator: Adobe Illustrator 24.0.1, SVG Export Plug-In  -->
<svg version="1.1" xmlns="http://www.w3.org/2000/svg" xmlns:xlink="http://www.w3.org/1999/xlink" x="0px" y="0px" width="415.5px"
   height="45.4px" viewBox="0 0 415.5 45.4" style="enable-background:new 0 0 415.5 45.4;" xml:space="preserve">
<style type="text/css">
  .st0{fill:#221815;}
</style>
<defs>
</defs>
<path class="st0" d="M121.7,38.4h37v-30h-37V38.4z M133.4,19.7H147v7.6h-13.6V19.7z"/>
<polygon class="st0" points="51.2,27.2 51.2,8.3 40.9,8.3 40.9,38.4 63,38.4 63,27.2 "/>
<polygon class="st0" points="210.1,19.7 210.1,38.4 198.3,38.4 198.3,8.3 235,8.3 235,19.7 "/>
<rect x="66.6" y="8.3" class="st0" width="11.5" height="30"/>
<polygon class="st0" points="248.2,27.2 248.2,8.3 237.9,8.3 237.9,38.4 260,38.4 260,27.2 "/>
<rect x="263.6" y="8.3" class="st0" width="11.5" height="30"/>
<polygon class="st0" points="330.8,27.2 330.8,8.3 319.5,8.3 319.5,38.4 341.7,38.4 341.7,27.2 "/>
<rect x="345.2" y="8.3" class="st0" width="11.5" height="37.1"/>
<rect x="361" y="8.3" class="st0" width="11.5" height="18.1"/>
<path class="st0" d="M290.1,8.3V0h-11.5v38.4H315v-30H290.1z M303.8,27.2h-13.7v-7.6h13.7V27.2z"/>
<polygon class="st0" points="93.2,27.2 93.2,18.3 102.9,18.3 102.9,8.6 93.2,8.6 93.2,0.2 81.7,0.2 81.7,38.4 118.4,38.4
  118.4,27.2 "/>
<polygon class="st0" points="415.5,8.3 378.2,8.3 378.2,18.2 396.5,28.4 378.2,28.4 378.2,38.3 415.5,38.3 415.5,28.4 398.2,18.2
  415.5,18.2 "/>
<polygon class="st0" points="36.7,8.3 0,8.3 0,38.4 21.7,38.4 21.7,27.2 11.5,27.2 11.5,20.3 25.8,20.3 25.8,27.2 25.7,27.2
  25.7,38.4 36.7,38.4 "/>
</svg>
