<svg id="BASE" xmlns="http://www.w3.org/2000/svg" viewBox="0 0 156.28 206.68"><defs><style>.cls-1{fill:#233237;}.cls-2{fill:#ffdcb9;}.cls-3{fill:#914137;}.cls-4{fill:#0fafaa;}.cls-5{fill:#fa6482;}.cls-6{fill:none;}</style></defs><path class="cls-1" d="M644.21,208.35a7.59,7.59,0,0,1,4,7,8.21,8.21,0,0,1-2.77,6.4,9.75,9.75,0,0,1-6.8,2.5h-13v-30.7h12.1a9.57,9.57,0,0,1,6.65,2.43,8,8,0,0,1,2.7,6.21A7.48,7.48,0,0,1,644.21,208.35Zm-6.45-9.12h-6V206h6a3.16,3.16,0,0,0,2.35-1,3.3,3.3,0,0,0,.94-2.41,3.35,3.35,0,0,0-.92-2.42A3.13,3.13,0,0,0,637.76,199.23Zm.92,19.39a3.44,3.44,0,0,0,2.55-1,3.6,3.6,0,0,0,1-2.61,3.54,3.54,0,0,0-1-2.57,3.4,3.4,0,0,0-2.55-1h-7v7.24Z" transform="translate(-597.77 -45.48)"/><path class="cls-1" d="M672.16,224.27l-2-5.52H657.59l-1.84,5.52h-6.54L660,193.57h7.5l10.83,30.7Zm-12.6-11.18h8.64l-4.43-12.55Z" transform="translate(-597.77 -45.48)"/><path class="cls-1" d="M690.88,224.89a13.74,13.74,0,0,1-7.68-2,10.94,10.94,0,0,1-4.38-5.55l5.17-3q1.8,4.69,7.07,4.7a6.07,6.07,0,0,0,3.72-.92,2.85,2.85,0,0,0,1.19-2.33,2.81,2.81,0,0,0-1.45-2.52,22.17,22.17,0,0,0-5.17-1.95,31.75,31.75,0,0,1-3.49-1.23,15,15,0,0,1-2.85-1.65,6.55,6.55,0,0,1-2.17-2.61,8.48,8.48,0,0,1-.75-3.68,8.25,8.25,0,0,1,3-6.65,10.76,10.76,0,0,1,7.13-2.47,11.83,11.83,0,0,1,6.56,1.82,12.22,12.22,0,0,1,4.4,5.06l-5.08,2.94a6.14,6.14,0,0,0-5.88-3.95,4.62,4.62,0,0,0-3,.86,2.7,2.7,0,0,0-1.08,2.21,2.81,2.81,0,0,0,1.21,2.35A16.78,16.78,0,0,0,692,206.2l2.12.68q.74.24,2,.75a12.94,12.94,0,0,1,1.93.94,15.52,15.52,0,0,1,1.56,1.19,5.79,5.79,0,0,1,1.33,1.53,8.81,8.81,0,0,1,1.12,4.34,8.24,8.24,0,0,1-3.09,6.76A12.45,12.45,0,0,1,690.88,224.89Z" transform="translate(-597.77 -45.48)"/><path class="cls-1" d="M712.57,218.48h13.59v5.79H706.51v-30.7h19.43v5.79H712.57v6.54h12.28v5.7H712.57Z" transform="translate(-597.77 -45.48)"/><polygon class="cls-2" points="80.18 54.74 76.1 54.74 27.88 138.25 128.39 138.25 80.18 54.74"/><polygon class="cls-3" points="80.18 54.74 93 32.54 89.94 30.77 79.91 48.14 79.91 27.88 76.37 27.88 76.37 48.14 66.34 30.77 63.27 32.54 76.1 54.74 80.18 54.74"/><polygon class="cls-4" points="106.28 114.1 95.18 133.32 117.38 133.32 106.28 114.1"/><polygon class="cls-4" points="50 114.1 38.9 133.32 61.1 133.32 50 114.1"/><polygon class="cls-5" points="78.13 114.1 67.03 133.32 89.23 133.32 78.13 114.1"/><rect class="cls-6" width="156.28" height="206.68"/></svg>