<svg id="BASE" xmlns="http://www.w3.org/2000/svg" viewBox="0 0 156.28 206.68"><defs><style>.cls-1{fill:#fff;}.cls-2{fill:#ffdcb9;}.cls-3{fill:#914137;}.cls-4{fill:#0fafaa;}.cls-5{fill:#fa6482;}.cls-6{fill:none;}</style></defs><path class="cls-1" d="M644.21,506a7.59,7.59,0,0,1,4,7,8.21,8.21,0,0,1-2.77,6.4,9.75,9.75,0,0,1-6.8,2.5h-13v-30.7h12.1a9.57,9.57,0,0,1,6.65,2.43,8,8,0,0,1,2.7,6.21A7.5,7.5,0,0,1,644.21,506Zm-6.45-9.12h-6v6.75h6a3.16,3.16,0,0,0,2.35-1,3.6,3.6,0,0,0,0-4.83A3.13,3.13,0,0,0,637.76,496.87Zm.92,19.38a3.4,3.4,0,0,0,2.55-1,3.57,3.57,0,0,0,1-2.61,3.51,3.51,0,0,0-1-2.56,3.4,3.4,0,0,0-2.55-1h-7v7.23Z" transform="translate(-597.77 -343.12)"/><path class="cls-1" d="M672.16,521.91l-2-5.52H657.59l-1.84,5.52h-6.54L660,491.21h7.5l10.83,30.7Zm-12.6-11.18h8.64l-4.43-12.55Z" transform="translate(-597.77 -343.12)"/><path class="cls-1" d="M690.88,522.53a13.74,13.74,0,0,1-7.68-2,10.94,10.94,0,0,1-4.38-5.55l5.17-3q1.8,4.69,7.07,4.69a6,6,0,0,0,3.72-.92,2.89,2.89,0,0,0-.26-4.84,22.54,22.54,0,0,0-5.17-2,29.93,29.93,0,0,1-3.49-1.22A15,15,0,0,1,683,506a6.62,6.62,0,0,1-2.17-2.61,8.48,8.48,0,0,1-.75-3.68,8.24,8.24,0,0,1,3-6.65,10.77,10.77,0,0,1,7.13-2.48,11.91,11.91,0,0,1,6.56,1.82,12.31,12.31,0,0,1,4.4,5.07l-5.08,2.94a6.14,6.14,0,0,0-5.88-3.95,4.62,4.62,0,0,0-3,.86,2.7,2.7,0,0,0-1.08,2.21,2.81,2.81,0,0,0,1.21,2.35,16.78,16.78,0,0,0,4.63,1.95l2.12.68q.74.24,2,.75a12,12,0,0,1,1.93.94,16.87,16.87,0,0,1,1.56,1.18,6,6,0,0,1,1.33,1.54,8.81,8.81,0,0,1,1.12,4.34,8.24,8.24,0,0,1-3.09,6.76A12.45,12.45,0,0,1,690.88,522.53Z" transform="translate(-597.77 -343.12)"/><path class="cls-1" d="M712.57,516.12h13.59v5.79H706.51v-30.7h19.43V497H712.57v6.53h12.28v5.71H712.57Z" transform="translate(-597.77 -343.12)"/><polygon class="cls-2" points="80.18 54.74 76.1 54.74 27.88 138.25 128.39 138.25 80.18 54.74"/><polygon class="cls-3" points="80.18 54.74 93 32.54 89.94 30.77 79.91 48.14 79.91 27.88 76.37 27.88 76.37 48.14 66.34 30.77 63.27 32.54 76.1 54.74 80.18 54.74"/><polygon class="cls-4" points="106.28 114.1 95.18 133.32 117.38 133.32 106.28 114.1"/><polygon class="cls-4" points="50 114.1 38.9 133.32 61.1 133.32 50 114.1"/><polygon class="cls-5" points="78.13 114.1 67.03 133.32 89.23 133.32 78.13 114.1"/><rect class="cls-6" width="156.28" height="206.68"/></svg>