<?xml version="1.0" encoding="utf-8"?>
<!-- Generator: Adobe Illustrator 25.3.1, SVG Export Plug-In . SVG Version: 6.00 Build 0)  -->
<svg version="1.1" id="レイヤー_1" xmlns="http://www.w3.org/2000/svg" xmlns:xlink="http://www.w3.org/1999/xlink" x="0px"
	 y="0px" viewBox="0 0 248 81" style="enable-background:new 0 0 248 81;" xml:space="preserve">
<style type="text/css">
	.st0{enable-background:new    ;}
	.st1{fill:#FFFFFF;}
</style>
<g id="hero_youytube_text" transform="translate(-508 -469)">
	<g class="st0">
		<path class="st1" d="M516.1,474.1l0-0.2l0-1.7l0-0.8c0-0.5,0.2-0.7,0.7-0.7c0.4,0,0.6,0.2,0.7,0.7c0,0.4,0,1.3,0.1,2.7l0.2,0
			l1.8-0.1c0.8,0,1.2-0.1,1.2-0.1c0.3,0,0.4,0.1,0.6,0.3c0.1,0.1,0.1,0.2,0.1,0.4c0,0.4-0.2,0.6-0.6,0.6c-0.2,0-0.9,0.1-2.3,0.2
			l-0.7,0l-0.3,0l0,0.6l0,5.7l0,1c0,0.7-0.1,1.2-0.2,1.5c-0.2,0.4-0.4,0.5-0.8,0.5c-0.2,0-0.3,0-0.6-0.1c-0.1-0.1-0.6-0.3-1.5-0.7
			c-0.3-0.1-0.5-0.2-0.8-0.4c-0.4-0.2-0.5-0.3-0.5-0.5c0-0.3,0.1-0.4,0.4-0.4c0.1,0,0.7,0.2,1.8,0.5c0.3,0.1,0.4,0.1,0.5,0.1
			c0.1,0,0.2,0,0.2,0c0.1,0,0.1,0,0.2-0.1c0-0.1,0.1-0.4,0-0.9c0-0.3,0-1.4,0-3.2c0-0.3,0-1,0-2.1c-1.9,2.3-4.1,4.1-6.7,5.4
			c-0.2,0.1-0.4,0.2-0.5,0.2c-0.1,0-0.3-0.1-0.3-0.2c-0.1-0.1-0.1-0.2-0.1-0.3c0-0.1,0.1-0.2,0.2-0.3c0,0,0.3-0.2,0.7-0.4
			c1.9-1.1,3.5-2.5,5-4.3c0.4-0.4,0.7-0.9,1.1-1.4l-0.4,0c-3.1,0.2-4.9,0.3-5.3,0.4c-0.1,0-0.2,0-0.2,0c-0.5,0-0.7-0.2-0.7-0.6
			c0-0.4,0.2-0.6,0.7-0.6C510.2,474.5,512.3,474.3,516.1,474.1z"/>
		<path class="st1" d="M538.3,476.4c0.6,0,0.9,0.2,0.9,0.7c0,0.3-0.1,0.5-0.4,0.6c-0.1,0-0.4,0.1-1,0.1c-2.7,0.1-6.3,0.2-10.8,0.5
			c0,0-0.1,0-0.1,0c-0.2,0-0.3-0.1-0.5-0.2c-0.2-0.1-0.2-0.3-0.2-0.5c0-0.4,0.2-0.6,0.6-0.7c0.1,0,0.4,0,0.9-0.1
			c2.2-0.1,3.9-0.2,5.1-0.3c2.3-0.1,3.6-0.1,3.9-0.2C537.5,476.4,538.1,476.4,538.3,476.4z"/>
		<path class="st1" d="M550.3,475.8c2.2,0.7,3.8,1.3,4.8,2c0.5,0.3,0.8,0.6,0.8,0.9c0,0.2-0.1,0.3-0.2,0.5c-0.1,0.1-0.3,0.2-0.4,0.2
			c-0.2,0-0.4-0.1-0.8-0.4c-1.1-0.8-2.5-1.5-4.2-2.2v7.2c0,0.5-0.2,0.7-0.7,0.7s-0.7-0.2-0.7-0.7v-12.6c0-0.5,0.2-0.7,0.7-0.7
			s0.7,0.2,0.7,0.7V475.8z"/>
		<path class="st1" d="M565.7,473.1c0.3,0,0.5,0.1,0.6,0.4c0.1,0.1,0.1,0.3,0.1,0.6c0,3.6-0.9,6.4-2.6,8.3c-0.4,0.5-0.8,0.7-0.9,0.7
			c-0.1,0-0.2,0-0.3-0.1c-0.1-0.1-0.2-0.2-0.2-0.4c0-0.1,0.1-0.3,0.2-0.5c1-1.2,1.7-2.6,2.1-4.2c0.2-1.1,0.4-2.4,0.4-4.2
			C565,473.4,565.2,473.1,565.7,473.1z M570.2,472.1v9.6c0,0.3,0,0.4,0.1,0.4c0.1,0,0.3-0.1,0.8-0.3c1.9-0.9,3.5-2.2,4.9-3.8
			c0.2-0.2,0.3-0.3,0.5-0.3c0.1,0,0.3,0,0.4,0.1c0.1,0.1,0.2,0.2,0.2,0.4c0,0.2-0.1,0.5-0.4,0.8c-1,1.3-2.3,2.5-3.8,3.4
			c-1.3,0.8-2.2,1.2-2.8,1.2c-0.8,0-1.2-0.5-1.2-1.5v-10c0-0.2,0-0.3,0.1-0.5c0.1-0.2,0.3-0.3,0.6-0.3c0.3,0,0.5,0.1,0.6,0.3
			C570.1,471.8,570.2,472,570.2,472.1z"/>
		<path class="st1" d="M583.6,476c2.8-0.5,5.1-1,6.9-1.5c0.2-0.1,0.3-0.1,0.4-0.1c0.4,0,0.6,0.2,0.6,0.7c0,0.3-0.2,0.5-0.5,0.6
			c-0.3,0.1-1.3,0.3-3.1,0.7c-1.6,0.3-3.1,0.5-4.4,0.7v3.6c0,0.9,0.3,1.4,1,1.6c0.3,0.1,1.1,0.1,2.3,0.1c1.2,0,2.8-0.1,4.9-0.3
			c0.1,0,0.1,0,0.2,0c0.2,0,0.4,0.1,0.5,0.2c0.1,0.1,0.2,0.3,0.2,0.5c0,0.4-0.2,0.6-0.6,0.6c-0.1,0-0.2,0-0.5,0
			c-1.8,0.1-3.3,0.2-4.8,0.2c-1.4,0-2.3-0.1-2.8-0.2c-0.8-0.2-1.4-0.7-1.6-1.3c-0.1-0.4-0.2-0.8-0.2-1.4v-8.9c0-0.4,0.2-0.7,0.7-0.7
			c0.4,0,0.7,0.2,0.7,0.7V476z M591.4,471.2c0.1,0,0.3,0.1,0.5,0.2c0.7,0.5,1.3,1,1.7,1.6c0.1,0.2,0.2,0.3,0.2,0.4
			c0,0.2-0.1,0.3-0.2,0.4c-0.1,0.1-0.2,0.1-0.4,0.1c-0.2,0-0.3-0.1-0.5-0.4c-0.4-0.6-0.8-1.1-1.3-1.7c-0.2-0.2-0.3-0.3-0.3-0.4
			C591.1,471.3,591.2,471.2,591.4,471.2z M593,470c0.3,0,0.8,0.3,1.4,0.9c0.6,0.5,0.8,0.9,0.8,1.2c0,0.2-0.1,0.3-0.2,0.4
			c-0.1,0.1-0.2,0.1-0.3,0.1c-0.2,0-0.3-0.1-0.4-0.2c-0.5-0.7-0.9-1.2-1.4-1.7c-0.2-0.2-0.3-0.3-0.3-0.4
			C592.6,470.1,592.8,470,593,470z"/>
		<path class="st1" d="M610.3,476.4c0.6,0,0.9,0.2,0.9,0.7c0,0.3-0.1,0.5-0.4,0.6c-0.1,0-0.4,0.1-1,0.1c-2.7,0.1-6.3,0.2-10.8,0.5
			c0,0-0.1,0-0.1,0c-0.2,0-0.3-0.1-0.5-0.2c-0.2-0.1-0.2-0.3-0.2-0.5c0-0.4,0.2-0.6,0.6-0.7c0.1,0,0.4,0,0.9-0.1
			c2.2-0.1,3.9-0.2,5.1-0.3c2.3-0.1,3.6-0.1,3.9-0.2C609.5,476.4,610.1,476.4,610.3,476.4z"/>
		<path class="st1" d="M622.9,479.5c-1.7,1.8-3.6,3.2-5.6,4.3c-0.4,0.2-0.6,0.3-0.8,0.3c-0.2,0-0.3-0.1-0.4-0.2
			c-0.1-0.1-0.1-0.2-0.1-0.3c0-0.1,0.1-0.3,0.2-0.4c0,0,0.2-0.2,0.6-0.4c1.7-1,3.3-2.4,4.9-4.1c1.4-1.5,2.5-3,3.2-4.4
			c0.2-0.4,0.3-0.6,0.3-0.7s-0.1-0.1-0.2-0.1c-0.1,0-0.2,0-0.4,0c-0.8,0.1-1.9,0.2-3.4,0.3c-1.1,0.1-1.9,0.1-2.3,0.2
			c-0.1,0-0.2,0-0.2,0c-0.5,0-0.7-0.2-0.7-0.6c0-0.3,0.2-0.6,0.5-0.6c0.1,0,0.3,0,0.7-0.1c1.4-0.1,2.9-0.2,4.5-0.4
			c1.1-0.1,1.8-0.2,2-0.2c0.3,0,0.6,0.1,0.8,0.2c0.3,0.2,0.4,0.4,0.4,0.7c0,0.3-0.2,0.7-0.5,1.3c-0.7,1.3-1.6,2.7-2.9,4.2
			c2,1.2,3.6,2.4,4.9,3.7c0.3,0.3,0.4,0.6,0.4,0.8c0,0.2-0.1,0.4-0.2,0.5c-0.1,0.1-0.3,0.2-0.5,0.2c-0.2,0-0.3-0.1-0.5-0.2
			c0,0-0.1-0.1-0.3-0.3C626.2,482,624.7,480.7,622.9,479.5z M627.8,470.6c0.1,0,0.3,0.1,0.5,0.2c0.7,0.5,1.3,1,1.7,1.6
			c0.1,0.2,0.2,0.3,0.2,0.4c0,0.2-0.1,0.3-0.2,0.4c-0.1,0.1-0.2,0.1-0.4,0.1c-0.2,0-0.3-0.1-0.5-0.4c-0.4-0.6-0.8-1.2-1.3-1.7
			c-0.2-0.2-0.3-0.3-0.3-0.4C627.5,470.7,627.6,470.6,627.8,470.6z M629.4,469.5c0.3,0,0.8,0.3,1.4,0.9c0.6,0.5,0.8,0.9,0.8,1.2
			c0,0.2-0.1,0.3-0.2,0.4c-0.1,0.1-0.2,0.1-0.3,0.1c-0.2,0-0.3-0.1-0.5-0.3c-0.4-0.6-0.9-1.1-1.3-1.6c-0.2-0.2-0.3-0.3-0.3-0.4
			C629,469.6,629.1,469.5,629.4,469.5z"/>
		<path class="st1" d="M644.7,472.4c0.4,0,0.6,0.1,0.9,0.3c0.3,0.2,0.4,0.6,0.4,1c0,0.3-0.1,0.8-0.2,1.4c-0.7,3-2.1,5.4-4.4,7.2
			c-0.9,0.8-1.9,1.3-2.8,1.8c-0.2,0.1-0.3,0.1-0.4,0.1c-0.1,0-0.3-0.1-0.3-0.2c-0.1-0.1-0.1-0.2-0.1-0.3c0-0.2,0.1-0.3,0.4-0.5
			c1-0.6,1.8-1.1,2.4-1.7c2.1-1.9,3.3-4.1,3.9-6.6c0.1-0.5,0.2-0.8,0.2-1c0-0.2-0.1-0.2-0.3-0.2c-0.1,0-0.3,0-0.5,0L641,474
			l-3.4,0.3c-1.4,0.1-2.2,0.2-2.2,0.2c-0.5,0-0.7-0.2-0.7-0.7c0-0.3,0.1-0.5,0.4-0.6c0.1,0,0.4-0.1,1-0.1c5.3-0.4,8.1-0.6,8.4-0.6
			C644.6,472.4,644.6,472.4,644.7,472.4z M646.1,470.3c0.1,0,0.3,0.1,0.5,0.2c0.7,0.5,1.3,1,1.7,1.7c0.1,0.2,0.2,0.3,0.2,0.4
			c0,0.2-0.1,0.3-0.2,0.4c-0.1,0.1-0.2,0.1-0.4,0.1c-0.2,0-0.3-0.1-0.5-0.4c-0.4-0.6-0.8-1.2-1.3-1.7c-0.2-0.2-0.3-0.3-0.3-0.4
			C645.8,470.4,645.9,470.3,646.1,470.3z M647.7,469.1c0.3,0,0.8,0.3,1.4,0.9c0.6,0.5,0.8,0.9,0.8,1.2c0,0.2-0.1,0.3-0.2,0.4
			c-0.1,0.1-0.2,0.1-0.3,0.1c-0.2,0-0.3-0.1-0.5-0.3c-0.4-0.6-0.9-1.1-1.3-1.6c-0.2-0.2-0.3-0.3-0.3-0.4
			C647.3,469.2,647.4,469.1,647.7,469.1z"/>
		<path class="st1" d="M663.6,475.3c0.8,0,1.2,0.4,1.2,1.1c0,0.5-0.2,1.1-0.6,2c-0.8,1.8-2,3.3-3.6,4.6c-0.9,0.7-1.9,1.3-3,1.7
			c-0.2,0.1-0.3,0.1-0.4,0.1c-0.2,0-0.3-0.1-0.4-0.2c-0.1-0.1-0.1-0.2-0.1-0.3c0-0.2,0.1-0.3,0.2-0.4c0,0,0.3-0.2,0.8-0.4
			c1.4-0.8,2.7-1.8,3.8-3.2c0.8-1,1.4-2,1.7-3.1c0.1-0.2,0.1-0.3,0.1-0.4c0-0.2-0.1-0.2-0.3-0.2c-0.1,0-0.4,0-0.6,0
			c-0.1,0-0.4,0-0.9,0.1c-0.7,0-2.7,0.2-6,0.4c-1.3,0.1-2,0.1-2.1,0.1c-0.2,0-0.4-0.1-0.5-0.2c-0.1-0.1-0.1-0.2-0.1-0.4
			c0-0.4,0.2-0.6,0.6-0.6c0.3,0,3-0.2,8.3-0.5c0.7,0,1.3-0.1,1.7-0.1C663.5,475.3,663.5,475.3,663.6,475.3z M655.3,473.4
			L655.3,473.4c-0.3,0-0.5-0.1-0.6-0.3c-0.1-0.1-0.1-0.2-0.1-0.4c0-0.3,0.1-0.5,0.4-0.6c0.1,0,0.3,0,0.7-0.1c1.2,0,2.7-0.1,4.4-0.3
			c0.8-0.1,1.4-0.1,1.6-0.2c0.1,0,0.1,0,0.2,0c0.4,0,0.6,0.2,0.6,0.7c0,0.4-0.2,0.6-0.6,0.6c-0.7,0.1-1.8,0.2-3.4,0.3
			C656.9,473.3,655.8,473.4,655.3,473.4z"/>
		<path class="st1" d="M672.2,472.4c0.2,0,0.6,0.1,1.3,0.4c1,0.5,1.9,0.9,2.5,1.5c0.2,0.2,0.4,0.4,0.4,0.7c0,0.2,0,0.3-0.1,0.5
			c-0.1,0.2-0.3,0.3-0.5,0.3s-0.5-0.1-0.8-0.4c-0.8-0.7-1.8-1.3-2.9-2c-0.3-0.1-0.4-0.3-0.4-0.4
			C671.6,472.6,671.8,472.4,672.2,472.4z M683.5,475.3c0.1,0,0.2,0,0.3,0.1c0.1,0.1,0.2,0.2,0.2,0.4c0,0.3-0.3,0.7-0.8,1.4
			c-1.4,1.7-3.1,3.2-5.2,4.4c-1.5,0.9-3.2,1.7-4.8,2.2c-0.3,0.1-0.6,0.2-0.7,0.2c-0.3,0-0.5-0.1-0.7-0.4c-0.1-0.1-0.1-0.3-0.1-0.4
			c0-0.3,0.1-0.5,0.4-0.6c0.1,0,0.4-0.2,1.1-0.4c1.8-0.5,3.7-1.4,5.5-2.6c1.7-1.1,3-2.4,4.2-3.9C683,475.4,683.2,475.3,683.5,475.3z
			"/>
		<path class="st1" d="M694.6,473.2c-1.2,0.4-2.3,0.8-3.3,1c-0.2,0-0.3,0.1-0.4,0.1c-0.3,0-0.5-0.2-0.5-0.5c0-0.2,0.1-0.3,0.2-0.4
			c0.1,0,0.3-0.1,0.7-0.2c1.4-0.4,2.8-1,4.2-1.7c0.6-0.3,1.1-0.6,1.5-0.9c0.2-0.2,0.4-0.3,0.6-0.3c0.2,0,0.4,0.1,0.6,0.3
			c0.1,0.1,0.1,0.3,0.1,0.4c0,0.2-0.1,0.5-0.4,0.6c-0.6,0.4-1.4,0.8-2.3,1.1c0.3,0.1,0.4,0.3,0.4,0.7v2.9l0.4,0
			c2.8-0.2,4.4-0.2,4.8-0.2c0.6,0,0.9,0.2,0.9,0.6c0,0.3-0.2,0.6-0.5,0.6c-0.1,0-0.3,0-0.6,0c-1.4,0-3,0.1-5,0.2
			c-0.1,2.7-0.8,4.7-2.2,6.1c-0.7,0.7-1.3,1.1-1.7,1.1c-0.1,0-0.2,0-0.3-0.1c-0.1-0.1-0.1-0.2-0.1-0.3c0-0.2,0.1-0.3,0.3-0.5
			c1.1-0.9,1.8-2.1,2.2-3.4c0.2-0.8,0.4-1.7,0.4-2.7c-2.2,0.1-4.1,0.3-5.5,0.5c-0.1,0-0.2,0-0.3,0c-0.5,0-0.7-0.2-0.7-0.6
			c0-0.4,0.2-0.6,0.7-0.7c1.4-0.2,3.3-0.4,5.9-0.5v-3C694.5,473.4,694.5,473.3,694.6,473.2z"/>
		<path class="st1" d="M713.1,479.3c-1.7,1.8-3.6,3.2-5.6,4.3c-0.4,0.2-0.6,0.3-0.8,0.3c-0.2,0-0.3-0.1-0.4-0.2
			c-0.1-0.1-0.1-0.2-0.1-0.3c0-0.1,0.1-0.3,0.2-0.4c0,0,0.2-0.2,0.6-0.4c1.7-1,3.3-2.4,4.9-4.1c1.4-1.5,2.5-3,3.2-4.4
			c0.2-0.4,0.3-0.6,0.3-0.7s-0.1-0.1-0.2-0.1c-0.1,0-0.2,0-0.4,0c-0.7,0.1-1.9,0.2-3.4,0.3c-1,0.1-1.7,0.1-2.3,0.2
			c-0.1,0-0.2,0-0.2,0c-0.5,0-0.7-0.2-0.7-0.6c0-0.3,0.2-0.6,0.5-0.6c0.1,0,0.3,0,0.7-0.1c1.4-0.1,2.9-0.2,4.5-0.4
			c1.1-0.1,1.8-0.2,2-0.2c0.3,0,0.6,0.1,0.8,0.2c0.3,0.2,0.4,0.4,0.4,0.7c0,0.3-0.2,0.7-0.5,1.3c-0.7,1.3-1.6,2.7-2.9,4.2
			c2,1.2,3.6,2.4,4.9,3.7c0.3,0.3,0.4,0.6,0.4,0.8c0,0.2-0.1,0.4-0.2,0.5c-0.1,0.1-0.3,0.2-0.5,0.2c-0.2,0-0.3-0.1-0.5-0.2
			c0,0-0.1-0.1-0.3-0.3C716.3,481.9,714.8,480.5,713.1,479.3z"/>
		<path class="st1" d="M730.3,475.8c2.2,0.7,3.8,1.3,4.8,2c0.5,0.3,0.8,0.6,0.8,0.9c0,0.2-0.1,0.3-0.2,0.5c-0.1,0.1-0.3,0.2-0.4,0.2
			c-0.2,0-0.4-0.1-0.8-0.4c-1.1-0.8-2.5-1.5-4.2-2.2v7.2c0,0.5-0.2,0.7-0.7,0.7s-0.7-0.2-0.7-0.7v-12.6c0-0.5,0.2-0.7,0.7-0.7
			s0.7,0.2,0.7,0.7V475.8z"/>
		<path class="st1" d="M754.4,472.3c0.3,0,0.6,0.1,0.8,0.2c0.3,0.2,0.4,0.4,0.4,0.7c0,0.2-0.1,0.6-0.4,1.1c-0.9,1.5-2,2.7-3.4,3.6
			c-0.3,0.2-0.5,0.3-0.7,0.3s-0.3-0.1-0.4-0.2c-0.1-0.1-0.1-0.2-0.1-0.3c0-0.1,0.1-0.2,0.2-0.4c0,0,0.2-0.2,0.4-0.3
			c0.8-0.6,1.5-1.4,2.2-2.4c0.4-0.5,0.6-0.9,0.6-1c0-0.1-0.1-0.1-0.2-0.1c-0.2,0-0.4,0-0.7,0c-0.2,0-0.8,0.1-1.7,0.1
			c-0.6,0-1.7,0.1-3.3,0.3c-3.1,0.3-4.8,0.4-5.2,0.4c-0.3,0-0.4-0.1-0.6-0.2c-0.1-0.1-0.1-0.2-0.1-0.4c0-0.3,0.1-0.5,0.4-0.6
			c0.1,0,0.4-0.1,1-0.1c0.5,0,1.3-0.1,2.6-0.2c1-0.1,2.9-0.2,5.5-0.4c1-0.1,1.7-0.1,2.3-0.2C754.2,472.3,754.3,472.3,754.4,472.3z
			 M749,475.4c0.3,0,0.5,0.1,0.6,0.4c0.1,0.1,0.1,0.3,0.1,0.7c0,1.5-0.1,2.6-0.2,3.3c-0.3,1.5-1,2.8-2.1,3.9
			c-0.5,0.5-0.9,0.8-1.4,1.1c-0.2,0.1-0.3,0.1-0.4,0.1c-0.1,0-0.2,0-0.3-0.1c-0.1-0.1-0.1-0.2-0.1-0.3c0-0.2,0.1-0.4,0.3-0.5
			c1.5-1.2,2.4-2.8,2.7-4.7c0.1-0.5,0.1-1.4,0.1-2.8c0-0.3,0-0.5,0.1-0.6C748.5,475.5,748.7,475.4,749,475.4z"/>
	</g>
	<g class="st0">
		<path class="st1" d="M588.8,503.3c0.5,0,0.7,0.2,0.7,0.7c0,0.3-0.1,0.7-0.4,1.3c-0.7,1.5-1.6,2.8-2.7,4c-0.9,1-1.6,1.5-1.9,1.5
			c-0.2,0-0.3-0.1-0.4-0.2c-0.1-0.1-0.1-0.2-0.1-0.3c0-0.1,0-0.2,0.1-0.3c0,0,0.2-0.2,0.5-0.4c0.7-0.6,1.4-1.5,2.1-2.7
			c0.6-1,1.1-2,1.4-2.9C588.2,503.5,588.5,503.3,588.8,503.3z M595.1,515.4c-2.7,0.5-5,0.9-6.9,1.1c-0.7,0.1-1.1,0.1-1.3,0.1
			c-0.2,0-0.4-0.1-0.6-0.3c-0.1-0.2-0.2-0.4-0.2-0.5c0-0.1,0.2-0.4,0.5-0.9c0.9-1.3,1.8-2.7,2.7-4.2c0.4-0.7,0.7-1.2,0.9-1.6
			c0.2-0.5,0.5-0.7,0.8-0.7c0.1,0,0.2,0,0.4,0.1c0.3,0.1,0.4,0.3,0.4,0.6c0,0.3-0.3,0.9-0.9,1.9c-1,1.6-2,3-3,4.2
			c1.9-0.1,4.1-0.4,6.7-0.8c-0.3-0.5-0.7-1.1-1.2-1.8c-0.2-0.2-0.2-0.4-0.2-0.5c0-0.1,0-0.2,0.1-0.3c0.1-0.1,0.2-0.1,0.3-0.1
			c0.2,0,0.4,0.1,0.7,0.4c1.1,1.1,2.1,2.3,2.9,3.4c0.2,0.3,0.3,0.5,0.3,0.7c0,0.2-0.1,0.4-0.3,0.6c-0.1,0.1-0.3,0.2-0.5,0.2
			c-0.3,0-0.5-0.1-0.7-0.3c0,0-0.1-0.2-0.2-0.4c0,0-0.1-0.2-0.3-0.5C595.2,515.6,595.1,515.6,595.1,515.4z M592.8,502.5
			c0.2,0,0.3,0.1,0.4,0.2c0,0,0.2,0.2,0.3,0.5c0.7,1.2,1.7,2.5,2.9,3.8c0.9,1,1.9,1.8,2.8,2.4c0.5,0.3,0.7,0.5,0.7,0.6
			c0,0.1-0.1,0.2-0.4,0.3c-0.5,0.2-0.9,0.2-1.2,0.2c-0.3,0-0.5-0.1-0.7-0.2c-0.7-0.6-1.5-1.5-2.4-2.7c-1.1-1.5-2.1-2.9-2.8-4.2
			c-0.1-0.2-0.1-0.3-0.1-0.5s0-0.2,0.1-0.3C592.5,502.5,592.6,502.5,592.8,502.5z"/>
		<path class="st1" d="M611.6,506.8c0.3,1.8,0.7,3.4,1.2,4.7c0.6,1.6,1.4,3,2.4,4.1c0.3,0.3,0.4,0.5,0.6,0.5c0.2,0,0.4-0.8,0.6-2.5
			c0-0.3,0.2-0.5,0.5-0.5c0.2,0,0.3,0,0.4,0.1c0.1,0.1,0.1,0.3,0.1,0.6c0,1.1-0.1,2-0.2,2.7c-0.2,0.8-0.5,1.2-1.1,1.2
			c-0.9,0-1.9-1-3.1-3.1c-1.3-2.2-2.1-4.7-2.6-7.7l-7.3,0.4h0c-0.4,0-0.6-0.2-0.6-0.6c0-0.4,0.2-0.6,0.6-0.6l7.2-0.4
			c-0.2-1.6-0.3-2.7-0.3-3.3c0-0.4,0.2-0.6,0.7-0.6c0.3,0,0.5,0.1,0.6,0.4c0,0.1,0.1,0.4,0.1,1c0.1,0.8,0.1,1.7,0.3,2.5l4.4-0.2
			c0.4,0,0.7,0.2,0.7,0.6c0,0.4-0.2,0.6-0.5,0.6L611.6,506.8z M607.2,510.8v3.3c0.9-0.2,1.7-0.4,2.4-0.6c0.4-0.1,0.7-0.2,0.8-0.2
			c0.3,0,0.5,0.2,0.5,0.5c0,0.3-0.1,0.5-0.4,0.6c-0.4,0.2-1.2,0.4-2.2,0.7s-1.9,0.5-2.5,0.7c-1.5,0.3-2.4,0.5-2.8,0.5
			c-0.4,0-0.7-0.2-0.7-0.7c0-0.3,0.1-0.4,0.4-0.5c0.1,0,0.4-0.1,0.8-0.2c0.6-0.1,1.4-0.2,2.2-0.4l0.1,0v-3.6l-2.4,0.2l-0.1,0
			c-0.2,0-0.3-0.1-0.4-0.2c-0.1-0.1-0.1-0.2-0.1-0.4c0-0.4,0.2-0.6,0.5-0.6l6-0.4c0.1,0,0.2,0,0.3,0c0.2,0.1,0.3,0.3,0.3,0.5
			c0,0.4-0.2,0.5-0.5,0.6L607.2,510.8z M613.1,502.1c0.3,0,0.9,0.4,1.9,1.1c0.3,0.2,0.4,0.3,0.5,0.4c0.2,0.2,0.3,0.4,0.3,0.6
			c0,0.2-0.1,0.3-0.2,0.4c-0.1,0.2-0.3,0.2-0.5,0.2c-0.2,0-0.4-0.1-0.7-0.4c-0.6-0.6-1.1-1.1-1.5-1.4c-0.2-0.2-0.3-0.3-0.3-0.5
			C612.7,502.2,612.8,502.1,613.1,502.1z"/>
		<path class="st1" d="M622.3,511l-3.1-6.7c-0.1-0.1-0.1-0.2-0.1-0.3c0-0.2,0.1-0.4,0.3-0.5c0.1-0.1,0.3-0.1,0.4-0.1
			c0.3,0,0.5,0.1,0.6,0.4l2.6,5.7l2.6-5.7c0.1-0.3,0.3-0.4,0.6-0.4c0.1,0,0.3,0,0.4,0.1c0.2,0.1,0.4,0.3,0.4,0.6
			c0,0.1,0,0.2-0.1,0.3l-3.1,6.7v4.6c0,0.2-0.1,0.3-0.2,0.5c-0.1,0.1-0.3,0.2-0.5,0.2c-0.3,0-0.5-0.1-0.6-0.3
			c-0.1-0.1-0.1-0.2-0.1-0.3V511z"/>
		<path class="st1" d="M632,507.3c1.2,0,2.1,0.5,2.7,1.6c0.5,0.8,0.7,1.7,0.7,2.9c0,1.1-0.2,2-0.6,2.7c-0.6,1.2-1.6,1.9-2.9,1.9
			c-1.1,0-2-0.5-2.6-1.4c-0.6-0.8-0.9-1.9-0.9-3.2c0-1.3,0.3-2.4,0.9-3.2C630.1,507.7,631,507.3,632,507.3z M632,508.5
			c-0.7,0-1.2,0.3-1.6,1c-0.3,0.6-0.5,1.3-0.5,2.2c0,0.8,0.1,1.5,0.4,2.1c0.4,0.9,0.9,1.3,1.7,1.3c0.6,0,1.1-0.3,1.5-0.9
			c0.4-0.6,0.6-1.4,0.6-2.5c0-0.9-0.2-1.7-0.5-2.2C633.2,508.9,632.7,508.5,632,508.5z"/>
		<path class="st1" d="M643,515c-0.8,0.9-1.7,1.4-2.6,1.4c-0.9,0-1.6-0.4-2.1-1.1c-0.3-0.5-0.5-1.1-0.5-1.9v-5.3
			c0-0.2,0.1-0.3,0.2-0.4c0.1-0.1,0.3-0.2,0.5-0.2c0.2,0,0.4,0.1,0.6,0.3c0.1,0.1,0.1,0.2,0.1,0.4v5c0,1.4,0.5,2.1,1.4,2.1
			c0.5,0,1-0.3,1.5-0.8c0.3-0.3,0.5-0.6,0.6-0.9c0.1-0.2,0.1-0.4,0.1-0.5v-4.9c0-0.2,0.1-0.3,0.2-0.4c0.1-0.1,0.3-0.2,0.5-0.2
			c0.2,0,0.4,0.1,0.6,0.3c0.1,0.1,0.1,0.2,0.1,0.4v7.5c0,0.4-0.2,0.6-0.6,0.6c-0.3,0-0.5-0.2-0.5-0.7L643,515z"/>
		<path class="st1" d="M649.3,504.8h-2.6c-0.2,0-0.3-0.1-0.4-0.2c-0.1-0.1-0.2-0.3-0.2-0.5c0-0.3,0.1-0.5,0.3-0.6
			c0.1-0.1,0.2-0.1,0.3-0.1h6.7c0.2,0,0.3,0,0.4,0.1c0.1,0.1,0.2,0.3,0.2,0.5c0,0.3-0.1,0.5-0.3,0.6c-0.1,0.1-0.2,0.1-0.3,0.1h-2.6
			v10.8c0,0.2-0.1,0.3-0.2,0.4c-0.1,0.1-0.3,0.2-0.5,0.2c-0.3,0-0.5-0.1-0.6-0.3c-0.1-0.1-0.1-0.2-0.1-0.3V504.8z"/>
		<path class="st1" d="M661,515c-0.8,0.9-1.7,1.4-2.6,1.4c-0.9,0-1.6-0.4-2.1-1.1c-0.3-0.5-0.5-1.1-0.5-1.9v-5.3
			c0-0.2,0.1-0.3,0.2-0.4c0.1-0.1,0.3-0.2,0.5-0.2c0.2,0,0.4,0.1,0.6,0.3c0.1,0.1,0.1,0.2,0.1,0.4v5c0,1.4,0.5,2.1,1.4,2.1
			c0.5,0,1-0.3,1.5-0.8c0.3-0.3,0.5-0.6,0.6-0.9c0.1-0.2,0.1-0.4,0.1-0.5v-4.9c0-0.2,0.1-0.3,0.2-0.4c0.1-0.1,0.3-0.2,0.5-0.2
			c0.2,0,0.4,0.1,0.6,0.3c0.1,0.1,0.1,0.2,0.1,0.4v7.5c0,0.4-0.2,0.6-0.6,0.6c-0.3,0-0.5-0.2-0.5-0.7L661,515z"/>
		<path class="st1" d="M666.2,508.6c0.6-0.8,1.4-1.3,2.3-1.3c1,0,1.8,0.4,2.3,1.3c0.5,0.8,0.8,1.8,0.8,3.1c0,1.2-0.2,2.2-0.7,3
			c-0.6,1.1-1.4,1.6-2.5,1.6c-1,0-1.7-0.5-2.3-1.4l-0.2,0.8c-0.1,0.3-0.3,0.5-0.6,0.5c-0.4,0-0.5-0.2-0.5-0.5V504
			c0-0.1,0-0.2,0.1-0.3c0.1-0.2,0.3-0.3,0.6-0.3c0.4,0,0.7,0.2,0.7,0.6V508.6z M666.2,511.5v0.2c0,0.9,0.2,1.7,0.5,2.3
			c0.4,0.7,0.9,1.1,1.6,1.1c0.6,0,1.1-0.3,1.4-0.9c0.4-0.6,0.5-1.4,0.5-2.5c0-1-0.2-1.8-0.5-2.4c-0.4-0.6-0.8-0.9-1.4-0.9
			c-0.5,0-1,0.3-1.4,0.8C666.4,509.9,666.2,510.7,666.2,511.5z"/>
		<path class="st1" d="M675,512.1c0,0.8,0.2,1.4,0.4,1.9c0.4,0.8,1,1.2,1.8,1.2c0.8,0,1.4-0.3,1.9-1c0.2-0.2,0.4-0.4,0.6-0.4
			c0.1,0,0.3,0,0.4,0.1c0.2,0.1,0.2,0.3,0.2,0.5s-0.1,0.4-0.3,0.7c-0.7,0.9-1.6,1.3-2.8,1.3c-1.3,0-2.2-0.5-2.9-1.6
			c-0.5-0.8-0.7-1.8-0.7-3c0-1.1,0.2-2.1,0.7-2.9c0.7-1.1,1.6-1.6,2.8-1.6c0.8,0,1.5,0.3,2.2,0.9c0.4,0.4,0.7,0.9,0.9,1.5
			c0.2,0.5,0.3,1,0.3,1.6c0,0.6-0.3,0.9-0.9,0.9H675z M675,511h3.8c0.2,0,0.3-0.1,0.3-0.3c0-0.6-0.2-1.1-0.5-1.5
			c-0.4-0.5-0.9-0.7-1.4-0.7c-0.5,0-0.9,0.2-1.3,0.6C675.3,509.6,675.1,510.2,675,511z"/>
	</g>
	<g class="st0">
		<path class="st1" d="M526.9,539.5c0.2,0,0.5,0.1,1,0.2c1,0.3,1.8,0.7,2.6,1.3c0.3,0.2,0.4,0.5,0.4,0.8c0,0.2,0,0.3-0.1,0.4
			c-0.1,0.2-0.3,0.2-0.5,0.2c-0.2,0-0.4-0.1-0.6-0.3c-0.8-0.6-1.7-1.2-2.8-1.7c-0.3-0.1-0.4-0.3-0.4-0.5
			C526.4,539.7,526.6,539.5,526.9,539.5z M539.4,538.9c0.4,0,0.5,0.2,0.5,0.5c0,0.3-0.3,0.9-0.9,1.8c-1.8,2.7-4.3,4.8-7.5,6.3
			c-1.4,0.7-2.3,1-2.6,1c-0.3,0-0.5-0.1-0.6-0.4c-0.1-0.1-0.1-0.2-0.1-0.4c0-0.3,0.1-0.4,0.3-0.6c0,0,0.4-0.2,1.1-0.4
			c2-0.8,3.9-1.9,5.6-3.3c1.5-1.2,2.7-2.6,3.6-4.1C539,539.1,539.2,538.9,539.4,538.9z M528.9,535.6c0.1,0,0.4,0,0.6,0.1
			c1.2,0.5,2.2,0.9,2.8,1.5c0.3,0.3,0.4,0.5,0.4,0.8c0,0.2-0.1,0.4-0.2,0.5c-0.1,0.1-0.3,0.2-0.5,0.2c-0.2,0-0.4-0.1-0.7-0.3
			c-0.8-0.7-1.6-1.3-2.6-1.8c-0.3-0.1-0.4-0.3-0.4-0.5C528.4,535.7,528.5,535.6,528.9,535.6z M537.4,534.6c0.1,0,0.3,0.1,0.5,0.2
			c0.7,0.5,1.3,1,1.7,1.6c0.1,0.2,0.2,0.3,0.2,0.4c0,0.2-0.1,0.3-0.2,0.4c-0.1,0.1-0.2,0.1-0.4,0.1c-0.2,0-0.3-0.1-0.5-0.4
			c-0.4-0.6-0.8-1.2-1.3-1.7c-0.2-0.2-0.3-0.3-0.3-0.4C537.1,534.7,537.2,534.6,537.4,534.6z M539,533.5c0.3,0,0.8,0.3,1.4,0.9
			c0.6,0.5,0.8,0.9,0.8,1.2c0,0.2-0.1,0.3-0.2,0.4c-0.1,0.1-0.2,0.1-0.3,0.1c-0.2,0-0.3-0.1-0.5-0.3c-0.4-0.6-0.9-1.1-1.3-1.6
			c-0.2-0.2-0.3-0.3-0.3-0.4C538.7,533.6,538.8,533.5,539,533.5z"/>
		<path class="st1" d="M555.3,545.5c-1.9,0.5-4,0.9-6.5,1.3c-1.7,0.3-2.8,0.4-3,0.4c-0.3,0-0.5-0.1-0.7-0.2
			c-0.2-0.2-0.4-0.4-0.4-0.7c0-0.2,0.1-0.4,0.2-0.6c0-0.1,0.2-0.3,0.5-0.7c1-1.5,2.2-3.5,3.4-6c0.5-0.9,0.9-1.8,1.3-2.7
			c0.1-0.3,0.4-0.5,0.7-0.5c0.2,0,0.3,0.1,0.5,0.2c0.2,0.1,0.3,0.3,0.3,0.6c0,0.2-0.1,0.5-0.4,1c-1.7,3.2-3.2,5.8-4.7,7.9
			c-0.1,0.1-0.1,0.2-0.1,0.3c0,0.1,0.1,0.1,0.2,0.1c0.5,0,1.7-0.1,3.5-0.4c1.6-0.2,3.1-0.5,4.6-0.8c-0.5-0.9-1-1.6-1.6-2.3
			c-0.1-0.2-0.2-0.3-0.2-0.5c0-0.1,0-0.2,0.1-0.3c0.1-0.1,0.2-0.1,0.3-0.1c0.4,0,1.3,0.9,2.6,2.7c1,1.4,1.6,2.4,1.6,2.8
			c0,0.3-0.1,0.5-0.3,0.6c-0.2,0.1-0.3,0.2-0.5,0.2c-0.3,0-0.5-0.2-0.7-0.5C556,546.8,555.7,546.2,555.3,545.5z"/>
		<path class="st1" d="M575.6,543.8c0.5,0,0.7,0.2,0.7,0.7c0,0.3-0.1,0.5-0.4,0.6c-0.1,0-0.5,0.1-1.1,0.1c-2.9,0.1-6.7,0.4-11.5,0.8
			c-0.6,0.1-1,0.1-1.1,0.1c-0.5,0-0.7-0.2-0.7-0.7c0-0.3,0.1-0.5,0.4-0.6c0.1,0,0.5-0.1,1.2-0.1c0.9,0,2.8-0.2,5.6-0.4
			C572.8,543.9,575.1,543.8,575.6,543.8z M571.8,537.3c0.1,0,0.3,0,0.4,0.1c0.2,0.1,0.3,0.3,0.3,0.5c0,0.4-0.3,0.6-0.9,0.7
			c-1.4,0.2-2.9,0.4-4.5,0.5c-0.8,0.1-1.4,0.1-1.6,0.1c-0.5,0-0.8-0.2-0.8-0.7c0-0.3,0.2-0.5,0.5-0.6c0.1,0,0.3,0,0.6,0
			c1.4,0,2.9-0.2,4.5-0.4c0.5-0.1,0.8-0.1,1.1-0.2C571.7,537.3,571.8,537.3,571.8,537.3z"/>
		<path class="st1" d="M592.3,540.4c0.6,0,0.9,0.2,0.9,0.7c0,0.3-0.1,0.5-0.4,0.6c-0.1,0-0.4,0.1-1,0.1c-2.7,0.1-6.3,0.2-10.8,0.5
			c0,0-0.1,0-0.1,0c-0.2,0-0.3-0.1-0.5-0.2c-0.2-0.1-0.2-0.3-0.2-0.5c0-0.4,0.2-0.6,0.6-0.7c0.1,0,0.4,0,0.9-0.1
			c2.2-0.1,3.9-0.2,5.1-0.3c2.3-0.1,3.6-0.1,3.9-0.2C591.5,540.4,592.1,540.4,592.3,540.4z"/>
		<path class="st1" d="M605.2,537.6c0.1,0.3,0.2,0.7,0.2,1.2c0,1.8-0.7,3.7-2.1,5.9c-1,1.6-2,2.4-2.9,2.4c-0.6,0-1.2-0.3-1.7-1
			c-0.6-0.8-0.9-1.9-0.9-3.2c0-1.4,0.5-2.6,1.6-3.8c0.8-0.9,1.8-1.6,3-2.1c1.1-0.4,2.2-0.7,3.4-0.7c1.7,0,3,0.5,4.1,1.5
			c1.2,1.1,1.8,2.4,1.8,4.1c0,1.5-0.5,2.9-1.4,4c-0.7,0.9-1.6,1.5-2.7,2c-0.2,0.1-0.4,0.1-0.5,0.1c-0.2,0-0.3-0.1-0.4-0.2
			c-0.1-0.1-0.1-0.2-0.1-0.3c0-0.1,0.1-0.3,0.2-0.4c0.1-0.1,0.3-0.2,0.7-0.4c0.6-0.4,1.2-0.9,1.7-1.5c0.8-1,1.1-2.1,1.1-3.3
			c0-1.4-0.5-2.5-1.5-3.4c-0.8-0.7-1.8-1.1-2.9-1.1L605.2,537.6L605.2,537.6L605.2,537.6L605.2,537.6z M604,537.8
			c-1.7,0.5-3.1,1.4-4,2.6c-0.6,0.8-0.9,1.7-0.9,2.5c0,0.9,0.2,1.7,0.6,2.3c0.3,0.4,0.5,0.6,0.7,0.6c0.4,0,1-0.5,1.6-1.4
			c0.6-1,1.2-2,1.5-3.2c0.3-0.9,0.4-1.7,0.4-2.4C604.1,538.6,604.1,538.2,604,537.8z"/>
		<path class="st1" d="M618,542.5c0.4,0,0.6,0.2,0.6,0.6c0,0.3-0.1,0.8-0.3,1.7c-0.5,2-1.4,3.6-2.6,4.7c-0.2,0.2-0.3,0.2-0.5,0.2
			c-0.1,0-0.2,0-0.3-0.1c-0.1-0.1-0.2-0.2-0.2-0.4c0-0.1,0.1-0.3,0.4-0.7c0.6-0.6,1.1-1.5,1.5-2.7c0.3-0.8,0.6-1.7,0.7-2.7
			C617.5,542.7,617.7,542.5,618,542.5z M620.3,542.2l-0.2,5c0,0.1,0,0.2,0,0.2c0,0.4,0.1,0.7,0.4,0.9c0.3,0.2,1.6,0.3,3.8,0.3
			c2.1,0,3.8-0.1,4.9-0.3c0.4-0.1,0.7-0.3,0.9-0.7c0.1-0.2,0.2-0.6,0.2-0.9c0-0.3,0.2-0.5,0.4-0.5c0.2,0,0.4,0.1,0.4,0.4
			c0.1,0.4,0.1,0.8,0.1,1.2c0,0.7-0.2,1.1-0.6,1.4c-0.7,0.3-2.7,0.5-6,0.5c-2.6,0-4.2-0.1-4.7-0.3c-0.6-0.2-0.9-0.7-0.9-1.6
			c0-0.1,0-0.1,0-0.2l0.2-5.3l-2.1,0.1c0,0.3-0.2,0.4-0.6,0.4c-0.4,0-0.5-0.2-0.6-0.6l-0.4-5.6c0,0,0-0.1,0-0.1
			c0-0.3,0.2-0.5,0.6-0.5c0.3,0,0.4,0.1,0.5,0.3l0.9-0.1c0.4-0.5,0.7-1.2,1.1-2.1c0.2-0.4,0.4-0.6,0.7-0.6c0.1,0,0.2,0,0.3,0.1
			c0.2,0.1,0.3,0.3,0.3,0.5c0,0.1-0.1,0.3-0.2,0.5c-0.3,0.6-0.6,1.1-0.9,1.5l2.5-0.2c0,0,0.1,0,0.2,0c0.8,0,1.2,0.4,1.2,1.1
			c0,0.1,0,0.1,0,0.2l-0.3,4.6c0,0.4-0.2,0.6-0.5,0.6c-0.3,0-0.5-0.1-0.6-0.4L620.3,542.2z M618.6,538.8v-1.5l-1.8,0.1l0.1,1.5
			L618.6,538.8z M618.6,541.4v-1.6l-1.7,0.1l0.1,1.6L618.6,541.4z M619.7,538.7l1.8-0.1l0.1-1c0-0.3-0.1-0.5-0.4-0.5c0,0,0,0-0.1,0
			l-1.4,0.1V538.7z M619.7,539.6v1.6l1.7-0.1l0.1-1.6L619.7,539.6z M622.5,545.6c-0.1-0.3-0.1-0.5-0.2-0.6c0-0.1-0.1-0.2-0.1-0.3
			c0-0.2,0.1-0.4,0.4-0.4c0.2,0,0.3,0.1,0.4,0.4c0.5,0.9,0.8,1.5,0.8,1.9c0,0.1-0.1,0.3-0.2,0.4s-0.2,0.1-0.4,0.1
			c-0.2,0-0.4-0.1-0.5-0.4c0-0.1-0.1-0.2-0.1-0.4c-1,0.4-1.6,0.7-2,0.7c-0.2,0-0.3-0.1-0.4-0.2c-0.1-0.1-0.1-0.3-0.1-0.4
			c0-0.1,0-0.3,0.1-0.5c0.2-0.6,0.5-1.4,0.7-2.4c0.1-0.4,0.3-0.6,0.5-0.6c0.4,0,0.5,0.2,0.5,0.5c0,0.4-0.3,1.3-0.9,2.5
			C621.6,545.9,622,545.8,622.5,545.6z M627.5,541c0.6,0.9,1.3,1.7,2.2,2.6c0.4,0.4,0.8,0.7,1.2,1s0.6,0.4,0.6,0.6
			c0,0.1-0.1,0.2-0.4,0.3s-0.5,0.1-0.8,0.1c-0.2,0-0.3-0.1-0.4-0.2c-0.9-0.9-1.8-2-2.4-3v4.8c0,0.4-0.2,0.5-0.6,0.5
			c-0.4,0-0.6-0.2-0.6-0.5v-4.3c-0.5,0.9-1.1,1.8-1.7,2.5c-0.2,0.2-0.3,0.3-0.5,0.3c-0.1,0-0.2,0-0.3-0.1c-0.1-0.1-0.1-0.2-0.1-0.3
			c0-0.1,0.1-0.3,0.3-0.6c0.6-0.9,1.3-2,1.9-3.4l-2.2,0.2c0,0-0.1,0-0.1,0c-0.3,0-0.5-0.2-0.5-0.5c0-0.3,0.2-0.5,0.6-0.5l2.6-0.2
			v-1.8l-2.1,0.2l-0.1,0c-0.3,0-0.5-0.1-0.5-0.5c0-0.3,0.2-0.5,0.6-0.6l2.1-0.2v-2.5c0-0.4,0.2-0.5,0.6-0.5c0.4,0,0.6,0.2,0.6,0.5
			v2.5l1.9-0.2c0.4,0,0.6,0.1,0.6,0.5c0,0.3-0.2,0.5-0.6,0.5l-1.9,0.2v1.8l2.9-0.3c0,0,0,0,0.1,0c0.4,0,0.5,0.2,0.5,0.5
			c0,0.3-0.2,0.5-0.6,0.5L627.5,541z"/>
		<path class="st1" d="M641,539.4c-0.4,1.2-0.8,2.2-1.1,3c-1.1,2.5-2.7,4.4-4.9,5.8c-0.2,0.1-0.4,0.2-0.5,0.2
			c-0.1,0-0.3-0.1-0.4-0.2c-0.1-0.1-0.1-0.2-0.1-0.3c0-0.1,0.1-0.3,0.2-0.4c0,0,0.2-0.2,0.5-0.4c1.5-1.1,2.7-2.7,3.7-4.7
			c0.4-0.8,0.8-1.8,1.2-3l-3.9,0.3c0,0-0.1,0-0.1,0c-0.4,0-0.6-0.2-0.6-0.6c0-0.4,0.2-0.6,0.6-0.6l4.3-0.3c0.3-1.2,0.5-2.3,0.7-3.4
			c0.1-0.5,0.3-0.7,0.8-0.7c0.2,0,0.3,0.1,0.5,0.2c0.2,0.1,0.2,0.3,0.2,0.5c0,0.3,0,0.6-0.1,1c0,0.2-0.2,0.9-0.4,2.1
			c0,0.1,0,0.2-0.1,0.3l4-0.3c0.1,0,0.2,0,0.2,0c0.9,0,1.4,0.4,1.4,1.3c0,0.2-0.1,0.8-0.2,1.7c-0.5,3.4-1.1,5.9-1.8,7.4
			c-0.3,0.7-0.8,1-1.5,1c-0.6,0-1.6-0.4-2.8-1.1c-0.3-0.2-0.5-0.3-0.5-0.3c-0.2-0.1-0.2-0.2-0.2-0.4c0-0.1,0-0.2,0.1-0.2
			c0.1-0.1,0.2-0.2,0.4-0.2c0.1,0,0.3,0,0.5,0.1c1,0.4,1.7,0.6,2.1,0.6c0.4,0,0.7-0.2,0.9-0.6c0.4-0.7,0.8-2,1.1-3.8
			c0.2-1.2,0.4-2.4,0.5-3.6c0-0.2,0-0.3,0-0.4c0-0.3-0.2-0.4-0.5-0.4c0,0-0.1,0-0.2,0L641,539.4z"/>
		<path class="st1" d="M658.9,544c-0.5,0.3-0.9,0.6-1.4,1c-0.5,0.5-0.8,0.9-0.8,1.4c0,0.7,0.7,1.1,2,1.1c1.4,0,2.7-0.1,3.7-0.2
			c0.1,0,0.1,0,0.2,0c0.2,0,0.4,0.1,0.5,0.3c0.1,0.1,0.1,0.3,0.1,0.4c0,0.3-0.2,0.5-0.6,0.6c-0.6,0.1-1.7,0.1-3.3,0.1
			c-0.9,0-1.5,0-1.8-0.1c-1.4-0.3-2.1-1-2.1-2.1c0-0.6,0.2-1.2,0.6-1.7c0.5-0.7,1.5-1.3,2.8-2c-0.1-0.8-0.5-1.2-1.1-1.2
			c-0.8,0-1.4,0.2-2,0.6c-0.2,0.2-0.4,0.2-0.6,0.2c-0.2,0-0.3-0.1-0.4-0.2c-0.1-0.1-0.2-0.3-0.2-0.4s0.1-0.3,0.2-0.5
			c0.4-0.5,1-1.5,1.8-3.1c-0.9,0.1-1.7,0.2-2.3,0.2c-0.5,0-0.7-0.2-0.7-0.6c0-0.4,0.2-0.6,0.7-0.6h0.3c0.7,0,1.6,0,2.7-0.1
			c0.3-0.6,0.6-1.3,0.9-2c0.1-0.4,0.4-0.5,0.7-0.5c0.1,0,0.2,0,0.3,0.1c0.2,0.1,0.3,0.3,0.3,0.5c0,0.1,0,0.3-0.1,0.5
			c0,0.1-0.1,0.2-0.2,0.4c-0.1,0.3-0.3,0.7-0.5,1c0.9-0.1,1.8-0.3,2.6-0.4c0.1,0,0.2,0,0.3,0c0.3,0,0.4,0.1,0.5,0.4
			c0,0.1,0,0.2,0,0.3c0,0.3-0.2,0.5-0.6,0.6c-0.8,0.2-2,0.4-3.5,0.5c-0.4,0.8-0.9,1.7-1.5,2.7l0,0.1c0.6-0.3,1.1-0.4,1.7-0.4
			c1,0,1.7,0.6,2,1.7c2.2-1.1,3.5-1.7,3.9-1.7c0.2,0,0.4,0.1,0.5,0.2c0.1,0.1,0.1,0.3,0.1,0.4c0,0.2-0.1,0.3-0.2,0.4
			c-0.1,0-0.2,0.1-0.4,0.2c-1.4,0.5-2.6,1.1-3.8,1.7v1.8c0,0.5-0.2,0.7-0.6,0.7c-0.4,0-0.6-0.2-0.6-0.7V544z"/>
		<path class="st1" d="M675.8,548.5l-4.8,0.3v0.1c0,0.1,0,0.2-0.1,0.3c-0.1,0.1-0.3,0.2-0.5,0.2c-0.2,0-0.4-0.1-0.5-0.3
			c-0.1-0.1-0.1-0.2-0.1-0.3V539c0-0.2,0.1-0.3,0.2-0.4c0.1-0.1,0.3-0.1,0.4-0.1c0.2,0,0.4,0.1,0.5,0.3l0.9-0.1v-2.1l-1.6,0.1
			l-0.1,0c-0.2,0-0.4-0.1-0.5-0.3c0-0.1-0.1-0.2-0.1-0.3c0-0.3,0.2-0.5,0.5-0.6l6-0.5l0.1,0c0.2,0,0.4,0.1,0.5,0.3
			c0,0.1,0.1,0.2,0.1,0.3c0,0.3-0.2,0.5-0.5,0.6l-1.5,0.1v2.1l1.1-0.1c0,0,0.1,0,0.2,0c0.7,0,1,0.4,1,1.1v9.4c0,0.1,0,0.2-0.1,0.3
			c-0.1,0.1-0.3,0.2-0.5,0.2c-0.2,0-0.4-0.1-0.5-0.2c-0.1-0.1-0.1-0.2-0.1-0.3V548.5z M671.9,539.7l-0.8,0.1v5.1l4.8-0.3v-1.7
			l-0.5,0c-0.1,0-0.2,0-0.4,0c-0.5,0-0.8-0.1-1-0.3c-0.1-0.2-0.2-0.4-0.2-0.8v-2.3l-0.9,0.1c-0.1,1.7-0.3,2.9-0.8,3.7
			c-0.2,0.3-0.3,0.5-0.5,0.5c-0.2,0-0.4-0.1-0.4-0.4c0-0.1,0-0.2,0.1-0.5C671.7,542.1,671.8,541,671.9,539.7z M675.8,545.6l-4.8,0.3
			v1.8l4.8-0.3V545.6z M673.8,538.5v-2.1l-0.9,0.1v2.1L673.8,538.5z M674.8,539.4v2c0,0.4,0.2,0.5,0.5,0.5c0,0,0.1,0,0.1,0l0.4,0
			v-2.2c0-0.1,0-0.2-0.1-0.2c-0.1-0.1-0.3-0.1-0.4-0.1c0,0,0,0-0.1,0L674.8,539.4z M679.7,541.6v5.2c0,0.4,0.2,0.6,0.5,0.7
			c0.2,0.1,0.8,0.1,1.6,0.1c1.1,0,1.8-0.1,2-0.2c0.1-0.1,0.2-0.2,0.2-0.4c0-0.2,0-0.5,0-0.9c0-0.6,0-0.9,0.1-1
			c0.1-0.1,0.2-0.1,0.4-0.1c0.2,0,0.4,0.1,0.4,0.4c0.1,0.7,0.2,1.3,0.2,2c0,0.7-0.3,1.1-0.8,1.3c-0.5,0.2-1.4,0.2-2.7,0.2
			c-1.2,0-2.1-0.1-2.5-0.2c-0.5-0.2-0.8-0.8-0.8-1.7v-5.4c-0.2-0.1-0.3-0.3-0.3-0.5c0-0.3,0.2-0.5,0.6-0.6l3.7-0.3l0.5-3.1
			c0,0,0-0.1,0-0.2c0-0.2-0.1-0.3-0.4-0.3c0,0-0.1,0-0.1,0l-4,0.4c0,0-0.1,0-0.1,0c-0.4,0-0.6-0.2-0.6-0.6c0-0.4,0.2-0.6,0.6-0.6
			l4.4-0.4c0.1,0,0.2,0,0.3,0c0.8,0,1.2,0.3,1.2,1c0,0.1,0,0.3-0.1,0.4l-0.7,3.3c0.2,0.1,0.3,0.3,0.3,0.5c0,0.3-0.2,0.5-0.6,0.5
			L679.7,541.6z"/>
		<path class="st1" d="M690.8,538.2v10.9c0,0.4-0.2,0.6-0.6,0.6c-0.4,0-0.6-0.2-0.6-0.6v-8.8c-1,1.6-1.8,2.4-2.2,2.4
			c-0.1,0-0.2,0-0.3-0.1c-0.1-0.1-0.2-0.2-0.2-0.4s0.1-0.3,0.2-0.4c1.4-1.7,2.6-3.9,3.6-6.8c0.1-0.4,0.4-0.6,0.7-0.6
			c0.1,0,0.2,0,0.3,0.1c0.2,0.1,0.3,0.3,0.3,0.5C692.1,535.4,691.7,536.5,690.8,538.2z M702.2,537.8l-9.8,0.7
			c-0.5,0-0.7-0.2-0.7-0.6c0-0.4,0.2-0.6,0.6-0.6l9.8-0.7c0.5,0,0.7,0.2,0.7,0.6C702.8,537.6,702.6,537.8,702.2,537.8z M701,547.8
			c0.3,0.1,0.4,0.2,0.4,0.5c0,0.3-0.2,0.5-0.6,0.5l-5.5,0.3c0,0.3-0.2,0.5-0.7,0.5c-0.4,0-0.6-0.2-0.7-0.7l-0.5-3.9c0,0,0-0.1,0-0.1
			c0-0.4,0.2-0.6,0.7-0.6c0.3,0,0.5,0.1,0.6,0.4l5.5-0.4c0.1,0,0.1,0,0.1,0c0.6,0,0.9,0.3,0.9,0.8c0,0.1,0,0.2,0,0.3L701,547.8z
			 M700,543l-5.5,0.4l-0.1,0c-0.2,0-0.4-0.1-0.5-0.2c-0.1-0.1-0.1-0.2-0.1-0.4c0-0.3,0.2-0.5,0.6-0.5l5.6-0.4c0.4,0,0.7,0.2,0.7,0.6
			C700.6,542.8,700.4,543,700,543z M699.9,540.5l-5.4,0.4c-0.1,0-0.1,0-0.1,0c-0.4,0-0.6-0.2-0.6-0.6c0-0.3,0.2-0.5,0.6-0.5l5.4-0.4
			c0,0,0,0,0.1,0c0.4,0,0.6,0.2,0.6,0.6C700.5,540.3,700.3,540.5,699.9,540.5z M695.2,534.1c0.1,0,0.3,0,0.5,0.1
			c2.2,0.6,3.3,1.2,3.3,1.8c0,0.1,0,0.2-0.1,0.3c-0.1,0.2-0.3,0.3-0.5,0.3c-0.2,0-0.4-0.1-0.7-0.3c-0.7-0.4-1.6-0.9-2.8-1.4
			c-0.2-0.1-0.3-0.2-0.3-0.4C694.8,534.2,694.9,534.1,695.2,534.1z M699.7,547.9l0.2-1.9c0,0,0-0.1,0-0.1c0-0.2-0.1-0.3-0.4-0.2
			l-4.7,0.3l0.2,2.2L699.7,547.9z"/>
		<path class="st1" d="M712.2,544l-3.5,0.2c0,0.1,0,0.1,0,0.2c0,0.4-0.2,0.6-0.7,0.6c-0.3,0-0.6-0.2-0.6-0.6l-0.9-6
			c0-0.1,0-0.1,0-0.2c0-0.4,0.2-0.6,0.7-0.6c0.3,0,0.5,0.2,0.6,0.5l4.4-0.4v-3.3c0-0.2,0.1-0.4,0.2-0.5c0.1-0.1,0.3-0.1,0.4-0.1
			s0.3,0,0.5,0.1c0.2,0.1,0.2,0.3,0.2,0.5v3.2l4.7-0.4c0,0,0.1,0,0.1,0c0.4,0,0.7,0.1,0.9,0.3c0.2,0.2,0.3,0.4,0.3,0.7
			c0,0.1,0,0.2,0,0.4l-0.8,3.9c0.3,0,0.5,0.2,0.5,0.6c0,0.4-0.2,0.6-0.7,0.6l-4.9,0.3v5.4c0,0.1,0,0.2-0.1,0.3
			c-0.1,0.2-0.3,0.3-0.6,0.3s-0.5-0.1-0.6-0.3c-0.1-0.1-0.1-0.2-0.1-0.3V544z M712.2,542.8V539l-4.2,0.4l0.5,3.7L712.2,542.8z
			 M713.6,542.7l3.7-0.2l0.6-3.7c0,0,0,0,0-0.1c0-0.2-0.1-0.3-0.4-0.3l-4,0.3V542.7z"/>
		<path class="st1" d="M731,546.8c0.2,0,0.4,0.1,0.6,0.2c0.4,0.2,0.6,0.6,0.6,1.1c0,0.3-0.1,0.6-0.3,0.8c-0.2,0.3-0.6,0.4-0.9,0.4
			c-0.2,0-0.4,0-0.6-0.1c-0.4-0.2-0.7-0.6-0.7-1.1c0-0.4,0.1-0.7,0.4-0.9C730.4,546.9,730.7,546.8,731,546.8z M731.6,544.7
			c0,0.4-0.2,0.7-0.6,0.7c-0.4,0-0.6-0.2-0.6-0.7l-0.4-9.5v-0.1c0-0.2,0.1-0.4,0.2-0.5c0.2-0.2,0.5-0.4,0.8-0.4
			c0.3,0,0.6,0.1,0.8,0.3c0.1,0.2,0.2,0.4,0.2,0.6L731.6,544.7z"/>
	</g>
</g>
</svg>
