<svg xmlns="http://www.w3.org/2000/svg" width="422.497" height="268.216" viewBox="0 0 422.497 268.216">
  <g id="hero_catch" transform="translate(-405.52 -189.459)">
    <g id="グループ_1" data-name="グループ 1" transform="translate(458.23 332.717)">
      <path id="パス_2" data-name="パス 2" d="M588.232,387.932l-16.6-15.857-16.6,15.857L538.42,372.074l-16.6,15.857-16.606-15.857-16.6,15.857-17.64-16.847,2.072-2.17L488.6,383.783l16.6-15.857,16.606,15.857,16.6-15.857,16.606,15.857,16.605-15.857,16.6,15.857,16.6-15.857,16.606,15.857,16.6-15.857,16.605,15.857,16.606-15.857,16.608,15.857,16.608-15.857,16.608,15.857,16.609-15.857L754.3,383.784l15.575-14.869,2.072,2.17L754.3,387.931,737.69,372.074l-16.609,15.857-16.608-15.857-16.608,15.857-16.608-15.857-16.606,15.857-16.605-15.857-16.6,15.857-16.607-15.857Z" transform="translate(-472 -370)" fill="#fff"/>
    </g>
    <g id="グループ_2" data-name="グループ 2" transform="translate(512.145 227.237)">
      <path id="パス_3" data-name="パス 3" d="M540,241.981v14.541h11.061v-5.468h-5.1v-3.231h6.96v8.7h5.593V241.981Z" transform="translate(-540 -238.004)" fill="#fff"/>
      <path id="パス_4" data-name="パス 4" d="M570.769,250.929v-8.948h-5.22v14.665H576.61v-5.717Z" transform="translate(-545.292 -238.004)" fill="#fff"/>
      <path id="パス_5" data-name="パス 5" d="M688.186,250.929v-8.948h-5.22v14.665h11.061v-5.717Z" transform="translate(-569.613 -238.004)" fill="#fff"/>
      <path id="パス_6" data-name="パス 6" d="M739.285,250.929v-8.948h-5.22v14.665h11.061v-5.717Z" transform="translate(-580.197 -238.004)" fill="#fff"/>
      <rect id="長方形_1" data-name="長方形 1" width="5.593" height="14.665" transform="translate(33.058 3.977)" fill="#fff"/>
      <rect id="長方形_2" data-name="長方形 2" width="5.593" height="14.665" transform="translate(126.155 3.977)" fill="#fff"/>
      <rect id="長方形_3" data-name="長方形 3" width="5.593" height="18.145" transform="translate(166.421 3.977)" fill="#fff"/>
      <rect id="長方形_4" data-name="長方形 4" width="5.593" height="9.072" transform="translate(174.126 3.977)" fill="#fff"/>
      <path id="パス_7" data-name="パス 7" d="M596.816,249.89v-3.977h4.6v-4.971h-4.6v-3.977H591.1v18.642h18.269V249.89Z" transform="translate(-550.584 -236.965)" fill="#fff"/>
      <path id="パス_8" data-name="パス 8" d="M616.022,241.981v14.665h18.269V241.981Zm12.179,9.2h-6.338v-3.6H628.2Z" transform="translate(-555.746 -238.004)" fill="#fff"/>
      <path id="パス_9" data-name="パス 9" d="M676.659,241.981H658.514v14.665h6.09v-9.321h12.055Z" transform="translate(-564.548 -238.004)" fill="#fff"/>
      <path id="パス_10" data-name="パス 10" d="M713.952,240.975v-3.853h-5.593v18.517h17.979V240.975Zm6.96,9.2H714.2v-3.6h6.712Z" transform="translate(-574.872 -236.998)" fill="#fff"/>
      <path id="パス_11" data-name="パス 11" d="M788.635,241.981H770.117v4.847l9.131,4.971h-9.131v4.847h18.518V251.8l-8.218-4.971h8.218Z" transform="translate(-587.664 -238.004)" fill="#fff"/>
    </g>
    <g id="グループ_3" data-name="グループ 3" transform="translate(405.52 265.809)">
      <path id="パス_12" data-name="パス 12" d="M421.033,325.14H407.169a1.517,1.517,0,0,1-1.649-1.6,1.43,1.43,0,0,1,1.134-1.392c1.8-.566,1.752-.875,1.752-2.782V292.361c0-1.907.052-2.216-1.752-2.783a1.429,1.429,0,0,1-1.134-1.391,1.517,1.517,0,0,1,1.649-1.6h13.863Zm2.319-38.551h1.6c3.248,0,6.546.052,9.535,1.495a8.471,8.471,0,0,1,5.051,7.937c0,5.67-4.741,8.3-9.74,9.071v.1c5.721.928,10.256,3.453,10.256,9.9a9.006,9.006,0,0,1-4.844,8.349c-3.3,1.856-6.545,1.7-10.205,1.7h-1.649v-2.99c3.454-.154,3.866-2.113,3.866-3.968v-6.649c0-2.371-.568-4.587-3.866-4.844V303.7c3.763-.309,3.866-2.525,3.866-4.432v-5.154c0-2.165-.773-4.227-3.866-4.536Z" transform="translate(-405.52 -285.816)" fill="#fff"/>
      <path id="パス_13" data-name="パス 13" d="M458.325,292.361c0-1.907.052-2.216-1.752-2.783a1.429,1.429,0,0,1-1.134-1.391c0-1.495,1.7-1.6,1.907-1.6h13.606v32.779c0,1.907-.052,2.216,1.752,2.782a1.431,1.431,0,0,1,1.134,1.392c0,1.495-1.7,1.6-1.907,1.6H457.346c-.206,0-1.907-.1-1.907-1.6a1.431,1.431,0,0,1,1.134-1.392c1.8-.566,1.752-.875,1.752-2.782Zm14.946-5.772h.258c3.35,0,6.854-.1,9.947,1.391a8.9,8.9,0,0,1,5.258,8.452c.1,5.928-3.814,8.5-9.071,9.741v.1c4.587.67,8.968,2.01,9.071,7.473v4.535c0,.464-.155,1.5.515,1.5.825,0,.979-1.5,2.216-1.5a1.7,1.7,0,0,1,1.495,1.5c0,1.495-1.7,3.4-2.834,4.278a8.5,8.5,0,0,1-5.824,1.855,7.832,7.832,0,0,1-5.824-2.165c-1.8-1.855-2.061-4.123-2.061-6.546v-3.5c0-2.371-.052-5.257-3.144-5.566v-3.041c2.783-.258,3.144-1.958,3.144-4.484v-6.237c0-2.577-.567-3.814-3.144-4.741Z" transform="translate(-415.86 -285.816)" fill="#fff"/>
      <path id="パス_14" data-name="パス 14" d="M515.772,299.629l-4.845,17.626c-.825,3.143-.1,4.02,1.649,4.793.825.361,1.547.67,1.547,1.7,0,1.443-1.65,1.391-2.681,1.391h-5.927c-1.031,0-2.886-.052-2.886-1.546,0-1.237.876-1.185,2.01-1.752,1.082-.567,2.474-1.752,3.453-5.411l6.184-22.626h.155Zm5.514,15.513h-7.525l.722-2.99h6.287l-5.206-22.78.671-2.783h11.39l7.731,32.573c.309,1.442.361,2.422,1.8,3.041.721.309,1.288.67,1.288,1.6,0,1.391-1.856,1.34-2.835,1.34H522.781c-1.031,0-2.525-.1-2.525-1.443,0-.825.309-1.083.979-1.444,1.34-.772,1.546-1.133,1.082-3.144Z" transform="translate(-425.634 -285.816)" fill="#fff"/>
      <path id="パス_15" data-name="パス 15" d="M554.721,296.279h.1l2.886,5.154V317c.825,6.442,4.123,4.433,4.123,6.649,0,1.6-2.113,1.495-2.68,1.495h-5.875c-.567,0-2.681.1-2.681-1.495,0-2.216,3.3-.207,4.123-6.649Zm26.852,16.389V325.14h-7.68L555.03,292.619c-.825-1.442-1.082-2.216-2.783-2.783-.876-.309-1.545-.515-1.545-1.649,0-1.546,1.545-1.546,2.628-1.6h13.246Zm-2.989-16.75c0-7.37-4.227-5.411-4.227-7.782,0-1.443,1.7-1.546,2.216-1.546h7.01c.515,0,2.216.1,2.216,1.546,0,2.371-4.226.412-4.226,7.782v12.524h-.1l-2.886-5.205Z" transform="translate(-435.57 -285.816)" fill="#fff"/>
      <path id="パス_16" data-name="パス 16" d="M615.4,325.711c-11.338-.206-16.7-8.814-16.7-19.379,0-11.906,6.7-20.358,16.7-20.718V288.6c-2.474.515-3.3,2.628-3.3,4.794v24.428c0,2.165.825,4.278,3.3,4.9Zm2.32-40.1c1.907.052,5.875,2.061,7.215,2.061a1.337,1.337,0,0,0,1.391-.979c.309-.67.67-1.082,1.391-1.082a1.653,1.653,0,0,1,1.649,1.855v11.957a1.653,1.653,0,0,1-1.649,1.855,2.043,2.043,0,0,1-1.907-1.855c-.876-4.174-3.3-9.535-8.091-10.823Zm10.153,28.14a1.6,1.6,0,0,1,1.546,1.752c-.1,4.227-6.339,10.411-11.7,10.205v-2.989a10.985,10.985,0,0,0,8.452-7.318C626.477,314.527,626.786,313.754,627.868,313.754Z" transform="translate(-445.533 -285.614)" fill="#fff"/>
      <path id="パス_17" data-name="パス 17" d="M659.06,319.368c0,1.907-.052,2.216,1.752,2.782a1.431,1.431,0,0,1,1.134,1.392c0,1.495-1.7,1.6-1.907,1.6H645.454c-.206,0-1.907-.1-1.907-1.6a1.431,1.431,0,0,1,1.134-1.392c1.8-.566,1.752-.875,1.752-2.782V292.361c0-1.907.052-2.216-1.752-2.783a1.429,1.429,0,0,1-1.134-1.391c0-1.495,1.7-1.6,1.907-1.6h14.586c.205,0,1.907.1,1.907,1.6a1.429,1.429,0,0,1-1.134,1.391c-1.8.567-1.752.876-1.752,2.783Zm6.854-12.318h-4.535v-2.989h4.535v-11.7c0-1.907.052-2.216-1.752-2.783a1.429,1.429,0,0,1-1.134-1.391c0-1.495,1.7-1.6,1.907-1.6H679.52c.207,0,1.908.1,1.908,1.6a1.43,1.43,0,0,1-1.134,1.391c-1.8.567-1.752.876-1.752,2.783v27.007c0,1.907-.052,2.216,1.752,2.782a1.432,1.432,0,0,1,1.134,1.392c0,1.495-1.7,1.6-1.908,1.6H664.935c-.206,0-1.907-.1-1.907-1.6a1.431,1.431,0,0,1,1.134-1.392c1.8-.566,1.752-.875,1.752-2.782Z" transform="translate(-454.823 -285.816)" fill="#fff"/>
      <path id="パス_18" data-name="パス 18" d="M732.972,288.6c-1.959.67-3.66,2.113-3.66,4.226,0,2.525,1.391,4.072,7.525,6.443,9.122,3.5,11.183,8.349,11.183,13.091,0,7.988-6.648,13.193-14.276,13.348v-2.989c2.474-.774,4.587-1.907,4.69-4.741.1-3.247-3.71-4.588-6.184-5.67-6.494-2.731-12.523-5.669-12.523-13.76,0-7.834,5.669-12.679,13.246-12.936Zm-13.246,24.79c0-1.082.206-2.525,1.649-2.525a1.991,1.991,0,0,1,1.907,1.7c.722,4.124,3.608,9.226,8.143,10.154v2.989c-4.484-.1-5.463-1.907-7.318-1.907-1.649,0-1.5,1.7-2.784,1.7-1.6,0-1.6-1.907-1.6-2.165Zm26.9-16.646c0,1.185-.206,2.474-1.7,2.474-1.238,0-1.7-.979-1.855-2.01a10.754,10.754,0,0,0-7.783-8.607v-2.989c3.247.052,6.7,2.01,7.267,2.01,1.341,0,1.238-1.855,2.577-1.855,1.6,0,1.495,1.752,1.495,2.165Z" transform="translate(-470.602 -285.614)" fill="#fff"/>
      <path id="パス_19" data-name="パス 19" d="M759.506,286.589h7.42v2.989c-2.68,1.907-3.4,5.309-3.865,8.04-.155,1.134-.411,2.474-1.855,2.474a1.554,1.554,0,0,1-1.7-1.495Zm9.74,0h12.627v32.779c0,1.907-.052,2.216,1.751,2.782a1.431,1.431,0,0,1,1.134,1.392c0,1.495-1.7,1.6-1.907,1.6H768.267c-.206,0-1.908-.1-1.908-1.6a1.431,1.431,0,0,1,1.134-1.392c1.8-.566,1.753-.875,1.753-2.782ZM791.614,298.6a1.555,1.555,0,0,1-1.7,1.495c-1.442,0-1.7-1.34-1.854-2.474-.464-2.731-1.186-6.134-3.865-8.04v-2.989h7.421Z" transform="translate(-478.841 -285.816)" fill="#fff"/>
      <path id="パス_20" data-name="パス 20" d="M818.823,288.6a3.454,3.454,0,0,0-2.628,3.711v26.7a3.455,3.455,0,0,0,2.628,3.711v2.989c-10.927-.979-16.028-9.792-16.028-20.049s5.1-19.069,16.028-20.048Zm2.32,34.119a3.455,3.455,0,0,0,2.628-3.711v-26.7a3.454,3.454,0,0,0-2.628-3.711v-2.989c10.926.979,16.027,9.792,16.027,20.048s-5.1,19.069-16.027,20.049Z" transform="translate(-487.808 -285.614)" fill="#fff"/>
      <path id="パス_21" data-name="パス 21" d="M853.715,292.361c0-1.907.052-2.216-1.751-2.783a1.429,1.429,0,0,1-1.135-1.391c0-1.495,1.7-1.6,1.907-1.6h13.606v32.779c0,1.907-.052,2.216,1.752,2.782a1.431,1.431,0,0,1,1.134,1.392c0,1.495-1.7,1.6-1.907,1.6H852.736c-.205,0-1.907-.1-1.907-1.6a1.431,1.431,0,0,1,1.135-1.392c1.8-.566,1.751-.875,1.751-2.782Zm14.946-5.772h.258c3.35,0,6.855-.1,9.947,1.391a8.9,8.9,0,0,1,5.257,8.452c.1,5.928-3.813,8.5-9.07,9.741v.1c4.587.67,8.967,2.01,9.07,7.473v4.535c0,.464-.154,1.5.516,1.5.825,0,.979-1.5,2.216-1.5a1.7,1.7,0,0,1,1.494,1.5c0,1.495-1.7,3.4-2.834,4.278a8.5,8.5,0,0,1-5.824,1.855,7.834,7.834,0,0,1-5.824-2.165c-1.8-1.855-2.061-4.123-2.061-6.546v-3.5c0-2.371-.051-5.257-3.144-5.566v-3.041c2.783-.258,3.144-1.958,3.144-4.484v-6.237c0-2.577-.567-3.814-3.144-4.741Z" transform="translate(-497.757 -285.816)" fill="#fff"/>
      <path id="パス_22" data-name="パス 22" d="M902.852,286.589h13.606V325.14H902.852c-.206,0-1.908-.1-1.908-1.6a1.431,1.431,0,0,1,1.134-1.392c1.8-.566,1.752-.875,1.752-2.782V292.361c0-1.907.052-2.216-1.752-2.783a1.429,1.429,0,0,1-1.134-1.391C900.944,286.692,902.646,286.589,902.852,286.589Zm15.926,0H930.27v10.463c0,.257-.052,1.237-1.6,1.237-.876,0-1.135-.515-1.392-1.288-1.339-4.174-3.968-6.7-8.5-7.422Zm0,17.214c2.164-.567,3.143-2.577,3.607-4.535.258-.876.567-1.7,1.649-1.7,1.6,0,1.341,1.855,1.341,2.268v11.132c0,.412.257,2.268-1.341,2.268-1.082,0-1.391-.825-1.649-1.7-.464-1.958-1.443-3.968-3.607-4.535Zm0,18.347a10.562,10.562,0,0,0,8.76-7.472c.361-.774.67-1.6,1.6-1.6a1.463,1.463,0,0,1,1.5,1.753V325.14H918.777Z" transform="translate(-508.137 -285.816)" fill="#fff"/>
    </g>
    <g id="OPEN" transform="translate(468.164 373.413)" style="isolation: isolate">
      <g id="グループ_4" data-name="グループ 4" transform="translate(0 0)" style="isolation: isolate">
        <path id="パス_23" data-name="パス 23" d="M499.515,494.029l-6.165-7.707c-5.652-7.107-8.821-16.355-8.821-27.145,0-21.75,13.017-37.849,30.742-37.849,8.734,0,16.612,4.111,22.606,11.561l6.851,8.563c5.395,6.679,8.306,16.013,8.306,26.117,0,21.665-13.358,38.021-31,38.021C513.216,505.59,505.252,501.222,499.515,494.029Zm44.87-35.023c0-20.81-12.758-35.88-29.114-35.88-16.184,0-28.944,14.728-28.944,36.05s12.76,36.051,28.858,36.051C531.627,495.228,544.385,479.9,544.385,459.007Zm-54.376-.943h14.472v2.227H490.009Zm.258-4.2h14.215V456.1H490.1Zm-.171,8.392h14.386v2.227H490.267Zm.942-12.588h13.444V451.9H490.61Zm-.428,16.783h13.872v2.227H491.038Zm1.541-20.979h12.331V447.7H491.466Zm-.6,25.175h12.93v2.227H492.237Zm2.483-29.457h10.447v2.226H493.007Zm-.942,33.739h11.389v2.226H494.12ZM496.518,437h8.135l-.171,2.226h-9.42A20.038,20.038,0,0,1,496.518,437Zm-1.37,42.13h9.334l.171,2.227H496.6A19.858,19.858,0,0,1,495.148,479.129ZM500.2,432.8h5.052c-.171.685-.257,1.456-.428,2.226h-6.765A26.281,26.281,0,0,1,500.2,432.8Zm-2.055,50.522h6.765a17.091,17.091,0,0,0,.428,2.227h-5.052A26.181,26.181,0,0,1,498.145,483.325Zm8.649-54.8a18.732,18.732,0,0,0-.942,2.312h-3.168A20.438,20.438,0,0,1,506.794,428.521Zm-4.025,59h3.168a18.591,18.591,0,0,0,.942,2.313A17.413,17.413,0,0,1,502.769,487.521Zm5.309-10.275V440.938c0-10.019,3.083-14.729,7.279-14.729,4.367,0,7.364,4.882,7.364,14.729v36.308c0,9.933-3,14.814-7.364,14.814C511.161,492.06,508.078,487.179,508.078,477.246Zm12.844,0V440.938a33.01,33.01,0,0,0-.171-4.025c-2.483,1.284-4.025,5.652-4.025,12.588v36.308a28.922,28.922,0,0,0,.257,4.025C519.467,488.549,520.922,484.1,520.922,477.246Zm3.939,10.275h3.169a20.352,20.352,0,0,1-4.111,2.313A18.6,18.6,0,0,0,524.862,487.521Zm-.856-59a17.494,17.494,0,0,1,4.11,2.312h-3.168A18.722,18.722,0,0,0,524.005,428.521Zm1.456,4.282h5.052a26.29,26.29,0,0,1,2.142,2.226h-6.766A17.1,17.1,0,0,0,525.461,432.8Zm.428,50.522h6.766a26.186,26.186,0,0,1-2.142,2.227h-5.052A17.086,17.086,0,0,0,525.889,483.325ZM526.147,437h8.134c.514.685.942,1.456,1.456,2.226h-9.419Zm.17,42.13h9.334a19.849,19.849,0,0,1-1.456,2.227h-8.048Zm0-37.934h10.448a10.544,10.544,0,0,1,1.028,2.226H526.317Zm0,4.281h12.331l.684,2.226H526.317Zm0,4.2h13.444l.428,2.226H526.317Zm0,4.2h14.215l.17,2.227H526.317Zm0,4.2h14.472v2.227H526.317Zm0,4.2H540.7l-.256,2.227h-14.13Zm0,4.2h13.872l-.428,2.227H526.317Zm0,4.2h12.93l-.684,2.227H526.317Zm0,4.282h11.39a10.548,10.548,0,0,1-1.028,2.226H526.317Z" transform="translate(-484.529 -421.328)" fill="#fff"/>
        <path id="パス_24" data-name="パス 24" d="M575.465,494.812v-5.994h4.367c2.569,0,2.483.086,2.483-2.483V437.182l-6.85-8.563v-5.994h30.913c11.474,0,20.037,3,24.576,8.82l6.85,8.563c2.74,3.34,4.11,7.792,4.11,12.93,0,14.3-10.532,22.35-28.686,22.35h-1.456v13.53l7.107,9.078v6.678H583.257Zm34.767-.6v-3.6h-2.569c-3.6,0-4.281-.685-4.281-4.281V464.927h3c11.988,0,26.888-3.854,26.888-20.552,0-16.613-14.9-19.952-26.888-19.952H577.263v3.6h2.569c3.6,0,4.281.685,4.281,4.282v54.033c0,3.6-.685,4.281-4.281,4.281h-2.569v3.6ZM587.025,428.02h12.76v2.226h-12.16A11.823,11.823,0,0,0,587.025,428.02Zm.6,60.37H599.87a13.931,13.931,0,0,0,.6,2.226H587.025A13.915,13.915,0,0,0,587.625,488.39Zm.086-56.088h12.075v2.226H587.71Zm0,4.281h12.075v2.226H587.71Zm0,4.367h12.075v2.226H587.71Zm0,4.281h12.075v2.226H587.71Zm0,4.368h12.075v2.226H587.71Zm0,4.281h12.075v2.227H587.71Zm0,4.281h12.075v2.226H587.71Zm0,4.367h12.075v2.227H587.71Zm0,4.282h12.075v2.226H587.71Zm0,4.281h12.075v2.226H587.71Zm0,4.367h12.075v2.226H587.71Zm0,4.281h12.075v2.226H587.71Zm0,4.282h12.075v2.226H587.71Zm15.671-22.693V427.762a7.1,7.1,0,0,1,2.055-.257c5.223,0,9.248,4.2,9.248,17.127,0,13.616-4.453,16.956-9.248,16.956A6.307,6.307,0,0,1,603.381,461.33Zm9.5-16.783a31.446,31.446,0,0,0-.771-7.707h-.856v18.325C612.458,452.339,612.886,448.742,612.886,444.546Zm1.028-16.527a30.783,30.783,0,0,1,7.022,2.226h-5.48A17.361,17.361,0,0,0,613.914,428.02Zm2.055,30.142h5.909a22.743,22.743,0,0,1-7.279,2.4A10.945,10.945,0,0,0,615.969,458.161Zm.514-25.86h7.707a19,19,0,0,1,2.312,2.226h-9.334A16.885,16.885,0,0,0,616.483,432.3Zm.856,21.579h9.5a11.863,11.863,0,0,1-1.969,2.227h-8.135A16.9,16.9,0,0,0,617.339,453.88Zm.257-17.3h10.361c.343.771.685,1.455.942,2.226H617.938A19.956,19.956,0,0,0,617.6,436.583Zm.428,13.017h10.961a23.8,23.8,0,0,1-.856,2.226H617.767Zm.086-8.649h11.218a9.333,9.333,0,0,1,.257,2.226H618.2A18.624,18.624,0,0,0,618.109,440.95Zm.171,4.281H629.67a17.652,17.652,0,0,1-.257,2.226H618.2A18.624,18.624,0,0,0,618.281,445.231Z" transform="translate(-503.365 -421.597)" fill="#fff"/>
        <path id="パス_25" data-name="パス 25" d="M661.864,494.812v-5.994h4.367c2.569,0,2.483.086,2.483-2.483V437.182l-6.85-8.563v-5.994h54.8l7.792,9.762v25.689h-6.337l-5.138-6.336v12.844h5.052l7.878,9.761-1.027,30.228H669.656Zm54.461-.6.856-27.831h-3.853c-.514,10.79-9.419,24.662-19.781,24.662-3.168,0-3.853-1.284-3.853-4.71l.085-26.2c5.738,0,10.7,5.223,10.7,15.241h3.854V441.635h-3.854c0,8.649-4.966,14.9-10.7,14.9v-28c0-.6,1.8-.685,2.654-.685,10.02.171,19.524,6.936,19.524,19.524h3.853V424.423H663.662v3.6h2.569c3.6,0,4.281.685,4.281,4.282v54.033c0,3.6-.685,4.281-4.281,4.281h-2.569v3.6Zm-42.9-66.193h12.76v2.226H673.938A7.757,7.757,0,0,0,673.424,428.02Zm.514,60.37h12.246a8.467,8.467,0,0,0,.514,2.226H673.424A7.755,7.755,0,0,0,673.938,488.39Zm.171-56.088h12.075v2.226H674.109Zm0,4.367h12.075v2.226H674.109Zm0,4.281h12.075v2.226H674.109Zm0,4.281h12.075v2.226H674.109Zm0,4.368h12.075v2.226H674.109Zm0,4.281h12.075v2.227H674.109Zm0,4.281h12.075v2.226H674.109Zm0,4.367h12.075v2.227H674.109Zm0,4.282h12.075v2.226H674.109Zm0,4.366h12.075L686.1,473.4H674.109Zm0,4.282H686.1v2.226H674.109Zm0,4.281H686.1v2.226H674.109Zm0,4.367H686.1v2.226H674.109Zm26.631-30.828v3.853h-4.281A11.36,11.36,0,0,0,700.74,453.281Zm-4.281,6.165h4.281v3.682A11.477,11.477,0,0,0,696.458,459.446Zm12.588-19.01c-2.911-2.4-7.108-3-11.218-2.911l.085,9.676a20.434,20.434,0,0,0,1.028-7.279l6.851.086,4.537,6.422A25.059,25.059,0,0,0,709.047,440.436ZM697.914,488.39a22.178,22.178,0,0,0,5.995-4.538l-5.139-6.936a26.882,26.882,0,0,0-.427-5.223h-.514Zm8.564,0H712.9l-.085,2.226h-8.906C704.765,489.931,705.622,489.16,706.478,488.39Zm-.856-60.37h6.594V429.9h-4.109A26.975,26.975,0,0,0,705.622,428.02Zm4.367,56.26h3l-.086,2.226h-4.709A14.713,14.713,0,0,0,709.989,484.279Zm-.086-52.492h2.312v3.34A23.121,23.121,0,0,0,709.9,431.787Zm3.254,47.525-.086,3.083h-1.713A28.864,28.864,0,0,0,713.157,479.313Z" transform="translate(-521.26 -421.597)" fill="#fff"/>
        <path id="パス_26" data-name="パス 26" d="M789.266,495.24l-17.3-35.366v28.944l6.509,8.649v7.107H759.3l-7.792-9.762v-5.994h3.6c2.226,0,2.483-.257,2.483-2.483l.171-50.351-5.908-7.364v-5.994h28.429l7.535,9.333,11.133,22.179V436.069l-5.995-7.45v-5.994H811.7l7.792,9.676V438.3h-4.8c-.942,0-1.2.17-1.2,1.2l-.342,64.994-16.355.171Zm-19.1-1.028v-3.6h-2.14c-3.34,0-4.2-.771-4.282-4.281l-.514-48.467,27.573,56.345h13.7l.515-62c0-3.682,1.028-4.2,4.109-4.2h1.713v-3.6h-16.1v3.6h1.713c3.6,0,4.282.514,4.282,4.282V466.64l-21.323-42.216H753.644v3.6h1.713c3.254,0,4.2.514,4.2,3.254v55.061c0,3.6-.856,4.281-4.452,4.281h-1.8v3.6Zm-8.734-5.566a12.772,12.772,0,0,0,1.2,2.055h-2.4A12.829,12.829,0,0,0,761.436,488.646Zm1.541-59.6a6.357,6.357,0,0,0-.6-1.028h14.9l1.112,2.226H763.576Zm1.541,3.254h14.9l1.113,2.226h-14.9Zm2.141,4.281h14.986l1.113,2.226H767.773Zm2.055,4.367h15.071l1.113,2.226H769.828Zm2.141,4.281h15.072l1.2,2.226H771.968ZM773,449.6h15.157l1.112,2.226H774.11Zm2.055,4.281h15.243l1.113,2.227H776.164Zm2.141,4.281H792.52l1.114,2.226H778.305Zm2.055,4.367h15.414l1.113,2.227H780.36Zm2.141,4.282h15.5L798,469.036H782.5Zm2.142,4.281h15.5l1.114,2.226h-15.5Zm2.054,4.367H801v2.226H786.7Zm2.141,4.281h13.358L801,481.967h-12.16Zm2.055,4.282H801v2.226h-10.1Zm2.141,4.367H801v2.226h-7.964Zm9.677-60.541h2.4a12.866,12.866,0,0,0-1.2,2.055A12.668,12.668,0,0,0,801.6,427.848Z" transform="translate(-539.828 -421.597)" fill="#fff"/>
      </g>
    </g>
    <path id="線_1" data-name="線 1" d="M20.566,33.841-.841.541.841-.541l21.407,33.3Z" transform="translate(465.366 190)" fill="#fff"/>
    <path id="線_2" data-name="線 2" d="M68.489,39.722-.491.871.491-.871,69.47,37.979Z" transform="translate(412.244 206.65)" fill="#fff"/>
    <path id="線_3" data-name="線 3" d="M.841,33.841-.841,32.76,20.566-.541,22.249.541Z" transform="translate(743.663 190)" fill="#fff"/>
    <path id="線_4" data-name="線 4" d="M.491,39.722l-.981-1.743L68.489-.871,69.47.871Z" transform="translate(749.213 206.65)" fill="#fff"/>
  </g>
</svg>
