<svg xmlns="http://www.w3.org/2000/svg" width="278" height="77.445" viewBox="0 0 278 77.445">
  <g id="hero_youtube_btn" transform="translate(-501 -572)">
    <g id="グループ_12" data-name="グループ 12" transform="translate(249.356 -663.295)">
      <path id="パス_41" data-name="パス 41" d="M490.495,1307.831q.008,1.839.016,3.677v1.232h-15.9a1.433,1.433,0,0,1-.024-.183v-4.585a1.336,1.336,0,0,1,.014-.141l-.008.006h1.522v3.38h12.516v-3.38H490.5Z" fill="#fff"/>
      <path id="パス_42" data-name="パス 42" d="M471.54,1293.8h1.524v-14.436h1.544l-.01-.01c0,.056-.005.113-.005.169v20.307h-1.525v-4.538c-.437,0-.85-.008-1.263,0-.2.006-.26-.065-.255-.261.012-.415,0-.83,0-1.245Z" fill="#fff"/>
      <path id="パス_43" data-name="パス 43" d="M477.592,1279.364h1.546v6.038c0,.4,0,.4.388.4h3.049v1.54l.007-.008h-3.45v6.428h-1.52v-14.016c0-.133-.006-.264-.009-.4Z" fill="#fff"/>
      <path id="パス_44" data-name="パス 44" d="M492.022,1292.268h1.512v10.969h-1.512l.01.011v-10.99Z" fill="#fff"/>
      <path id="パス_45" data-name="パス 45" d="M482.581,1287.346l3.045-.016h1.481v1.551l.008-.013q-1.494,0-2.988-.006c-.015,0-.03.021-.075.055v4.852h-1.478v-5.329c0-.367.01-.734.015-1.1Z" fill="#fff"/>
      <path id="パス_46" data-name="パス 46" d="M487.1,1288.88c.119-.012.238-.034.356-.035h3.037v1.5l.008-.007h-1.886v4.938h-1.508v-6.408Z" fill="#fff"/>
      <path id="パス_47" data-name="パス 47" d="M468.158,1296.788h-1.514v-4.506h4.9v1.518l.01-.01h-3.4v3.008Z" fill="#fff"/>
      <path id="パス_48" data-name="パス 48" d="M473.078,1304.77h-1.522v-3.019h-1.87v-3.435l-.011.01h1.886v3.428h1.508v3.026Z" fill="#fff"/>
      <path id="パス_49" data-name="パス 49" d="M492.021,1303.242q0,2.231.01,4.462a.724.724,0,0,1-.033.127h-1.5l.008.006v-4.586h1.528Z" fill="#fff"/>
      <path id="パス_50" data-name="パス 50" d="M474.606,1307.831h-1.528v-3.059l-.009.01c.414,0,.829.016,1.243,0,.227-.009.287.066.285.288-.01.923,0,1.847,0,2.77Z" fill="#fff"/>
      <path id="パス_51" data-name="パス 51" d="M474.607,1279.364v-1.511h2.984v1.513l.012-.01H474.6Z" fill="#fff"/>
      <path id="パス_52" data-name="パス 52" d="M490.495,1290.342h1.527v1.929l.01-.01H490.5v-1.925Z" fill="#fff"/>
      <path id="パス_53" data-name="パス 53" d="M469.686,1298.317h-1.528v-1.529l-.01.01h1.529v1.529Z" fill="#fff"/>
    </g>
    <g id="長方形_20" data-name="長方形 20" transform="translate(249.356 -663.295)">
      <path id="パス_33" data-name="パス 33" d="M463.091,1295.3H261.644a9,9,0,0,1-9-9v-41a9,9,0,0,1,9-9h258a9,9,0,0,1,9,9v41a9,9,0,0,1-9,9H497.973" fill="rgba(255,255,255,0.15)" stroke="#fff" stroke-width="2"/>
    </g>
    <g id="グループ_13" data-name="グループ 13" transform="translate(249.356 -663.295)">
      <path id="パス_33-2" data-name="パス 33" d="M360.987,1255.388a5.342,5.342,0,0,0-3.77-3.769c-3.325-.891-16.658-.891-16.658-.891s-13.333,0-16.658.891a5.342,5.342,0,0,0-3.77,3.769c-.891,3.325-.891,10.263-.891,10.263s0,6.938.891,10.263a5.338,5.338,0,0,0,3.77,3.769c3.325.891,16.658.891,16.658.891s13.333,0,16.658-.891a5.338,5.338,0,0,0,3.77-3.769c.891-3.325.891-10.263.891-10.263S361.874,1258.709,360.987,1255.388Zm-24.7,16.654V1259.25l11.077,6.4Z" fill="#e70000" stroke="#707070" stroke-width="1"/>
      <g id="グループ_10" data-name="グループ 10">
        <path id="パス_34" data-name="パス 34" d="M381.125,1277.877a4.638,4.638,0,0,1-1.8-2.652,17.365,17.365,0,0,1-.534-4.788v-2.713a15.731,15.731,0,0,1,.61-4.848,4.856,4.856,0,0,1,1.906-2.668,6.168,6.168,0,0,1,3.4-.838,5.788,5.788,0,0,1,3.324.854,4.9,4.9,0,0,1,1.829,2.667,16.369,16.369,0,0,1,.579,4.834v2.713a16.623,16.623,0,0,1-.564,4.8,4.722,4.722,0,0,1-1.83,2.653,7.5,7.5,0,0,1-6.921-.015Zm4.726-2.927a9.112,9.112,0,0,0,.351-2.988v-5.823a9,9,0,0,0-.351-2.943,1.255,1.255,0,0,0-1.235-.93,1.236,1.236,0,0,0-1.2.93,8.977,8.977,0,0,0-.351,2.943v5.823a9.473,9.473,0,0,0,.335,2.988,1.226,1.226,0,0,0,1.22.915,1.251,1.251,0,0,0,1.233-.915Z" fill="#fff"/>
        <path id="パス_35" data-name="パス 35" d="M445.886,1270.481v.945a24.816,24.816,0,0,0,.107,2.7,2.554,2.554,0,0,0,.442,1.311,1.254,1.254,0,0,0,1.036.412,1.3,1.3,0,0,0,1.3-.732,6.367,6.367,0,0,0,.381-2.439l3.629.213a5.793,5.793,0,0,1,.031.671,4.957,4.957,0,0,1-1.418,3.872,5.768,5.768,0,0,1-4.009,1.281q-3.109,0-4.36-1.951t-1.25-6.037v-3.263q0-4.207,1.3-6.144t4.436-1.936a5.873,5.873,0,0,1,3.324.793,4.26,4.26,0,0,1,1.631,2.47,17.894,17.894,0,0,1,.473,4.635v3.2Zm.533-7.867a2.573,2.573,0,0,0-.427,1.3,25.112,25.112,0,0,0-.107,2.729v1.342h3.079v-1.342a22.806,22.806,0,0,0-.122-2.729,2.607,2.607,0,0,0-.442-1.311,1.219,1.219,0,0,0-.991-.381A1.2,1.2,0,0,0,446.419,1262.614Z" fill="#fff"/>
        <path id="パス_36" data-name="パス 36" d="M370.879,1270.132l-4.787-17.289h4.177l1.677,7.836q.64,2.9.945,4.939h.122q.213-1.464.945-4.908l1.738-7.867h4.178l-4.848,17.289v8.294h-4.147Z" fill="#fff"/>
        <path id="パス_37" data-name="パス 37" d="M404.026,1259.734v18.689h-3.293l-.366-2.287h-.089a4.3,4.3,0,0,1-4.025,2.592,3.16,3.16,0,0,1-2.744-1.22,6.545,6.545,0,0,1-.884-3.811v-13.963h4.208v13.721a4.191,4.191,0,0,0,.274,1.784.947.947,0,0,0,.915.533,1.86,1.86,0,0,0,1.052-.336,2.072,2.072,0,0,0,.747-.854v-14.848Z" fill="#fff"/>
        <path id="パス_38" data-name="パス 38" d="M425.609,1259.734v18.689h-3.294l-.366-2.287h-.091a4.3,4.3,0,0,1-4.025,2.592,3.16,3.16,0,0,1-2.744-1.22,6.545,6.545,0,0,1-.884-3.811v-13.963h4.208v13.721a4.191,4.191,0,0,0,.274,1.784.947.947,0,0,0,.915.533,1.86,1.86,0,0,0,1.052-.336,2.065,2.065,0,0,0,.747-.854v-14.848Z" fill="#fff"/>
        <path id="パス_39" data-name="パス 39" d="M415.46,1256.227h-4.177v22.2h-4.116v-22.2H402.99v-3.384h12.471Z" fill="#fff"/>
        <path id="パス_40" data-name="パス 40" d="M439.535,1262.722a4.814,4.814,0,0,0-1.235-2.561,3.324,3.324,0,0,0-2.348-.793,3.9,3.9,0,0,0-2.165.656,4.464,4.464,0,0,0-1.555,1.723H432.2V1251.9h-4.055v26.527h3.476l.427-1.769h.092a3.57,3.57,0,0,0,1.464,1.495,4.346,4.346,0,0,0,2.165.549,3.314,3.314,0,0,0,3.14-1.967,14.155,14.155,0,0,0,1.006-6.144v-2.958A24.553,24.553,0,0,0,439.535,1262.722Zm-3.857,7.624a23.755,23.755,0,0,1-.168,3.2,3.461,3.461,0,0,1-.564,1.646,1.3,1.3,0,0,1-1.067.488,1.943,1.943,0,0,1-.96-.244,1.83,1.83,0,0,1-.717-.732V1264.1a2.657,2.657,0,0,1,.732-1.25,1.626,1.626,0,0,1,1.128-.488,1.14,1.14,0,0,1,.991.5,3.857,3.857,0,0,1,.488,1.692,31.6,31.6,0,0,1,.137,3.384Z" fill="#fff"/>
      </g>
    </g>
  </g>
</svg>
