<!-- Generator: Adobe Illustrator 24.3.0, SVG Export Plug-In  -->
<svg version="1.1" xmlns="http://www.w3.org/2000/svg" xmlns:xlink="http://www.w3.org/1999/xlink" x="0px" y="0px" width="246.2px"
	 height="126.3px" viewBox="0 0 246.2 126.3" style="overflow:visible;enable-background:new 0 0 246.2 126.3;"
	 xml:space="preserve">
<style type="text/css">
	.st0{fill-rule:evenodd;clip-rule:evenodd;fill:#FFFFFF;}
</style>
<defs>
</defs>
<path class="st0" d="M193.2,26.4c-3.5,0.3-17.9,3.6-22.7,4.6c-5.2,1.4-52.6,38-55.7,47c-0.7,3.1-1,7.9-1,12.4l-0.3,7.3
	c0,5.2,1.4,13.6,2.1,18.1c3.1,0.7,25.7,0.1,29.8,0.8l-0.5,9.3c-4.1-0.3-32.7-0.2-49.1-0.2c-8.3,0-35,0.9-43.2,0.7l1.5-8.8
	c4.5-0.3,23.1,0.8,27.2-3.5c2-2.1,1.4-4.4,1.4-16.9v-5.9c0-2.8,0-8-0.7-12.8C80.2,73.1,38.5,21,27.7,12.7c-3.1-1-22.6-3-27.5-4
	L0,0.7C2.4-0.5,24.1,1,45.2,0.2c13.8-0.5,45.4,0,49.3,0.5l-1,7c-4.2,1-24.2,1.4-29.3,2.8c13.5,20.1,34.8,45.9,41.8,56
	c3.8-5.5,37.3-28.6,38.3-36.5c-5.2-1-22.4-3.5-25.2-3.5l-1.6-9.1c4.7-0.7,29.5,0,41.8,0c10.6,0,33.3,0,39.8,0.5L193.2,26.4
	L193.2,26.4z"/>
<path class="st0" d="M225,86.8l-15-1.4c1.6-7.6,0.2-65.8,0.1-72l-0.8-12.2c4.2,0.8,3.5,0.4,21.2,2.2c10.7,1.1,12.1,1.6,15.6,1.7
	l-4.6,14.5C237.6,31.2,226.2,82.9,225,86.8L225,86.8z M214.7,117.5l-8-0.7l-0.1-17.4l10.2,1.3l9.1,0.4l-2.5,17L214.7,117.5
	L214.7,117.5z"/>
</svg>