<!-- Generator: Adobe Illustrator 24.3.0, SVG Export Plug-In  -->
<svg version="1.1" xmlns="http://www.w3.org/2000/svg" xmlns:xlink="http://www.w3.org/1999/xlink" x="0px" y="0px" width="708px"
	 height="134.2px" viewBox="0 0 708 134.2" style="overflow:visible;enable-background:new 0 0 708 134.2;" xml:space="preserve">
<style type="text/css">
	.st0{fill-rule:evenodd;clip-rule:evenodd;fill:#FFFFFF;}
</style>
<defs>
</defs>
<g>
	<path class="st0" d="M193.2,34.3c-3.5,0.3-17.9,3.6-22.7,4.6c-5.2,1.4-52.6,38-55.7,47c-0.7,3.1-1,7.9-1,12.4l-0.3,7.3
		c0,5.2,1.4,13.6,2.1,18.1c3.1,0.7,25.7,0.1,29.8,0.8l-0.5,9.3c-4.1-0.3-32.7-0.2-49.1-0.2c-8.3,0-35,0.9-43.2,0.7l1.5-8.8
		c4.5-0.3,23.1,0.8,27.2-3.5c2-2.1,1.4-4.4,1.4-16.9V99c0-2.8,0-8-0.7-12.8C80.2,81,38.5,28.9,27.7,20.6c-3.1-1-22.6-3-27.5-4L0,8.6
		c2.4-1.2,24.1,0.3,45.2-0.5c13.8-0.5,45.4,0,49.3,0.5l-1,7c-4.2,1-24.2,1.4-29.3,2.8c13.5,20.1,34.8,45.9,41.8,56
		c3.8-5.5,37.3-28.6,38.3-36.5c-5.2-1-22.4-3.5-25.2-3.5l-1.6-9.1c4.7-0.7,29.5,0,41.8,0c10.6,0,33.3,0,39.8,0.5L193.2,34.3
		L193.2,34.3z"/>
	<path class="st0" d="M264.7,129.9c-1.5-0.2-18.9-0.2-25.2-0.2c-3.7,0-22.6-0.1-25.9-0.1l1-8.1c4.4-0.2,12.5-2,16.2-2.4
		c-2.4-5.4-10.3-22.8-12.1-26c-4.6,0-21.1,0.5-25.6,1.4c-0.9,1.5-7.1,7.7-8.2,16c3.1,0.7,8.9,1.9,12.4,2.4l-1.3,8.3
		c-3.7-0.2-18.5,0.2-22,0c-3.3,0-18.5,0-21.3,0.5l2.7-8.8c3.5-0.4,11.5-2.9,14.6-3.6c4.6-6.5,25.8-48,27.5-51.9
		c-2.8-0.7-7.7-2.9-10.7-3.4l-0.4-6c3.7,0.2,22.1,0.8,24.1,0.7c4.4-0.2,20.7-0.1,24.4-0.4l-1.4,5.9c-3.3,0.2-8.6,1.8-11.6,2.5
		c1.5,4.6,7.6,19.4,12.2,30.3c3.5,7.9,9.3,23.2,14.7,32.2c3.7,0.7,12.2,3.2,16.1,3.4l0.2,2.2L264.7,129.9L264.7,129.9z M207.6,60.5
		l-0.2-1.4c-3.9,9.2-10.6,23.6-11.9,27.1l21.5,0C214.4,79.4,209.6,66.1,207.6,60.5L207.6,60.5z"/>
	<path class="st0" d="M392.5,107.4c-3-0.2-17.5-0.2-24.9,0c-5.9,0.2-20-0.5-26.7-0.2l-0.5-8.2c2.3-0.2,16.8-1.2,19.5-1.7
		c0.9-4.4,0.5-10.6,0.5-16l-0.4-9.7c-7.4,0-56.4,2.5-58.4,2.8l-3.6,0.5c0,13.2,0.7,17.4,1.6,22.2c3.9,0.7,18.1,1.6,21.1,2.1l-0.2,9
		c-3.5-0.2-25.2,0-31.9,0c-8.1,0-27.8-0.2-32.4,0.1l0.6-9.3c3.7-0.2,17.7-1.6,20.7-2.1c0.5-6,0.7-15.5,0.7-25.5V59.1
		c0-4.2-0.2-16.2-0.5-20.4c-3-0.5-17-1.4-21.2-1.6l-0.7-7c2.8,0.2,22.1-0.3,32.3-0.3c9.5,0,31,0.2,33.6,0l-0.8,7.4
		c-4.4,0.2-19,1.4-21.5,1.8c-0.7,3.5-1.4,6.5-1.4,17.6l-0.3,5.8c4.2,0,55.8-0.2,62.2-1.1v-8c0-10.2,1.6-21.2,0.4-24.2
		c-2.5-0.7-16.3-2.6-20.7-2.9l0.6-7.4c2.8,0.2,15.8,0.2,25.5,0.4c10.2,0,25,0.4,28,0l-0.7,6.1c-3,0.2-16.4,3.6-16.4,3.6
		s-0.9,6.3-0.2,15.5c0.6,7.6,0.7,22.5,0.7,22.5c0.4,16.6,1.4,30,0.5,30.7c-1.1,0.8,10.6,1.5,13.9,2l1.3,2.2L392.5,107.4L392.5,107.4
		z"/>
	<path class="st0" d="M511.8,68.7c1.1,28.3-24.7,42.3-58.2,42.3c-14,0-30.9-2.7-45.4-11.4C396.9,92.9,395,84.1,395,73.1
		c0-22.8,24.8-41.6,62.7-41.4c14.4,0,28.4,2.2,39.6,11c10,7.8,11.7,11.7,13.6,20.3L511.8,68.7L511.8,68.7z M493.2,70.7
		c0.8-23.4-17.5-29.6-40.6-28c-12.1,0.8-36.7,7.2-36.7,28c0,20.6,18.9,31.7,44.1,29.5c19.5-1.7,29.8-8.9,32.3-18.9L493.2,70.7
		L493.2,70.7z"/>
	<path class="st0" d="M681,85.6l-15-1.4c1.6-7.6,0.2-65.8,0.1-72L665.4,0c4.2,0.8,3.5,0.4,21.2,2.2c10.7,1.1,12.1,1.6,15.6,1.7
		l-4.6,14.5C693.6,30.1,682.2,81.8,681,85.6L681,85.6z M670.7,116.4l-8-0.7l-0.1-17.4l10.2,1.3l9.1,0.4l-2.5,17L670.7,116.4
		L670.7,116.4z"/>
	<path class="st0" d="M652.4,57.3c2,26.5-28.6,48.5-66.9,48.5c-15.9,0-29.5-1.9-45.2-12.3c-12.9-8.6-19.1-16-20.7-30.5
		c-2.9-25.8,28.3-47.5,71.6-47.3c16.5,0,32.4,2.5,45.2,12.5c11.5,8.9,13.5,17.4,15.6,27.2L652.4,57.3L652.4,57.3z M632.4,61
		c1.6-25.4-22.9-34.7-49.3-32.9c-13.8,0.9-39.6,9.1-39.6,32.9c0,23.5,21.6,35.3,50.4,32.8c22.3-1.9,31.5-10.3,36.6-21.7
		C630.5,72.1,631.9,68.7,632.4,61L632.4,61z"/>
	<path class="st0" d="M699.5,100.1c4.6,0,8.5,3.7,8.5,8.5c0,4.8-3.9,8.5-8.5,8.5c-4.6,0-8.5-3.7-8.5-8.5
		C691,103.8,694.9,100.1,699.5,100.1L699.5,100.1z M699.5,115.9c3.9,0,7-3.2,7-7.3c0-4.1-3.1-7.3-7-7.3c-3.9,0-7,3.1-7,7.3
		C692.5,112.7,695.6,115.9,699.5,115.9L699.5,115.9z M696.3,103.6h3.7c2.4,0,3.5,0.9,3.5,2.8c0,1.8-1.1,2.6-2.6,2.7l2.9,4.4h-1.6
		l-2.7-4.3h-1.6v4.3h-1.5V103.6L696.3,103.6z M697.8,108.1h1.6c1.3,0,2.6-0.1,2.6-1.7c0-1.4-1.2-1.5-2.2-1.5h-2V108.1L697.8,108.1z"
		/>
</g>
</svg>