<?xml version="1.0" encoding="UTF-8"?><svg id="Logos" xmlns="http://www.w3.org/2000/svg" viewBox="0 0 82.93 24.68"><defs><style>.cls-1{fill:#fff;}.cls-2{fill:none;}</style></defs><g><polygon class="cls-1" points="66.76 20.68 16.59 20.68 20.58 24.68 66.76 20.68"/><path class="cls-1" d="M21.23,4.52v.6c-.93-.59-1.77-.94-2.91-.94-3.52,0-6.19,3.21-6.19,7.14s2.67,7.14,6.19,7.14c1.14,0,1.98-.34,2.91-.94v.6h3.09V4.52h-3.09Zm-2.91,10.67c-1.73,0-3-1.71-3-3.86s1.27-3.86,3-3.86,2.96,1.71,2.96,3.86-1.22,3.86-2.96,3.86Z"/><path class="cls-1" d="M45.99,4.52v8c0,1.5-1.03,2.77-2.53,2.77s-2.53-1.27-2.53-2.77V4.52h-3.09v8c0,3.28,2.24,5.95,5.53,5.95,1.52,0,2.63-.84,2.63-.84v.51h3.09V4.52h-3.09Z"/><path class="cls-1" d="M74.78,18.13v-8c0-1.5,1.03-2.77,2.53-2.77s2.53,1.27,2.53,2.77v8h3.09v-8c0-3.28-2.24-5.95-5.53-5.95-1.52,0-2.63,.84-2.63,.84v-.51h-3.09v13.62h3.09Z"/><path class="cls-1" d="M3.23,18.13v-5.27h2.29l3.96,5.27h4.05l-4.78-6.36c1.49-1.07,2.47-2.81,2.47-4.78,0-3.24-2.63-5.86-5.87-5.86H0V18.13H3.23Zm0-13.78h2.11c1.45,0,2.64,1.18,2.64,2.63s-1.19,2.64-2.64,2.64H3.23V4.35Z"/><path class="cls-1" d="M57.41,14.91c-.28,.19-.63,.33-1.03,.33-.5,0-1.46-.39-1.46-1.67V7.75h2.64v-3.23h-2.64V1.12h-3.09v3.39s-1.63,0-1.63,0v3.23h1.63v5.87c0,3.04,2.29,4.86,4.59,4.86,.86,0,2.05-.28,3.02-.86l-2.04-2.71Z"/><polygon class="cls-1" points="32.01 10.9 37.31 4.52 32.98 4.52 29.27 9.26 29.27 0 26.09 0 26.09 18.13 29.27 18.13 29.27 12.54 33.83 18.13 38.16 18.13 32.01 10.9"/><path class="cls-1" d="M64.54,4.17c-3.58,0-6.14,3.14-6.14,7.15,0,4.22,3.22,7.15,6.45,7.15,1.63,0,3.72-.56,5.47-3.05l-2.73-1.58c-2.11,3.11-5.63,1.53-6.03-1.58h8.9c.76-4.89-2.4-8.1-5.92-8.1Zm2.7,5.4h-5.57c.65-3.19,4.96-3.37,5.57,0Z"/></g><rect class="cls-2" y="1.12" width="82.93" height="19.56"/></svg>