<?xml version="1.0" encoding="utf-8"?>
<!-- Generator: Adobe Illustrator 24.3.0, SVG Export Plug-In . SVG Version: 6.00 Build 0)  -->
<svg version="1.1" id="レイヤー_1" xmlns="http://www.w3.org/2000/svg" xmlns:xlink="http://www.w3.org/1999/xlink" x="0px"
	 y="0px" viewBox="0 0 40 28" style="enable-background:new 0 0 40 28;" xml:space="preserve">
<style type="text/css">
	.st0{fill:#FFFFFF;}
</style>
<g id="レイヤー_2_1_">
	<g id="icon_data">
		<path class="st0" d="M39,28H1c-0.6,0-1-0.4-1-1V1c0-0.1,0-0.2,0-0.3v0c0,0,0,0,0,0c0,0,0,0,0,0v0c0,0,0,0,0,0c0,0,0,0,0,0
			c0-0.1,0.1-0.2,0.2-0.3c0.1-0.1,0.2-0.2,0.3-0.2C0.7,0,0.8,0,1,0c0,0,0,0,0,0h38c0.4,0,0.8,0.3,0.9,0.7s0,0.8-0.3,1.1l-19,15
			c-0.4,0.3-0.9,0.3-1.2,0L2,3.1V26h36V9c0-0.6,0.4-1,1-1s1,0.4,1,1v18C40,27.6,39.6,28,39,28z M3.9,2L20,14.7L36.1,2H3.9z"/>
	</g>
</g>
</svg>
